<svg id="Layer_1" data-name="Layer 1" xmlns="http://www.w3.org/2000/svg" width="1505" height="205.6" viewBox="0 0 1505 205.6"><defs><style>.cls-1{fill:#fff;stroke:#231f20;}.cls-1,.cls-2,.cls-3,.cls-4,.cls-5,.cls-6{stroke-miterlimit:10;}.cls-2,.cls-3,.cls-4,.cls-5,.cls-6{fill:none;}.cls-2,.cls-6{stroke:#bfbfbf;}.cls-2,.cls-5,.cls-6{stroke-width:4px;}.cls-3,.cls-4,.cls-5{stroke:#008fd0;}.cls-3,.cls-4,.cls-5,.cls-6{stroke-linecap:round;}.cls-3{stroke-width:9px;}.cls-4{stroke-width:7px;}.cls-7{fill:#008fd0;}.cls-8{fill:#bfbfbf;}</style></defs><title>azul_gris</title><path class="cls-1" d="M197.2,19.9" transform="translate(-29.7 -22.3)"/><rect class="cls-2" x="2.1" y="23.8" width="175" height="92.66" rx="7.8" ry="7.8"/><rect class="cls-2" x="2" y="128.4" width="53.6" height="34.37" rx="4.1" ry="4.1"/><rect class="cls-2" x="62.8" y="128.3" width="53.6" height="34.37" rx="4.1" ry="4.1"/><rect class="cls-2" x="123.6" y="128.4" width="53.6" height="34.37" rx="4.1" ry="4.1"/><rect class="cls-2" x="229.6" y="5.9" width="175" height="92.66" rx="7.8" ry="7.8"/><rect class="cls-2" x="229.5" y="109.6" width="53.6" height="34.37" rx="3.1" ry="3.1"/><rect class="cls-2" x="290.3" y="109.5" width="53.6" height="34.37" rx="3.1" ry="3.1"/><rect class="cls-2" x="351.1" y="109.6" width="53.6" height="34.37" rx="3.1" ry="3.1"/><line class="cls-3" x1="230.8" y1="172.1" x2="402.4" y2="172.1"/><line class="cls-3" x1="230.6" y1="187.8" x2="402.3" y2="187.8"/><rect class="cls-4" x="446.8" y="21.7" width="175" height="92.66" rx="7.8" ry="7.8"/><rect class="cls-5" x="446.7" y="125.4" width="53.6" height="34.37" rx="2.1" ry="2.1"/><rect class="cls-5" x="507.5" y="125.3" width="53.6" height="34.37" rx="2.1" ry="2.1"/><rect class="cls-5" x="568.1" y="125.2" width="53.6" height="34.37" rx="1.2" ry="1.2"/><line class="cls-6" x1="447.9" y1="188" x2="619.6" y2="188"/><line class="cls-6" x1="447.8" y1="203.6" x2="619.5" y2="203.6"/><line class="cls-6" x1="448.3" y1="172.8" x2="620.4" y2="172.8"/><line class="cls-6" x1="449.6" y1="5.8" x2="623.1" y2="5.8"/><path class="cls-7" d="M681.7,51.4c.3-1.4.6-2.7.9-4.1,2.9-10.5,9.6-17.5,20.1-20.3a27.1,27.1,0,0,1,25.7,5.8,28.3,28.3,0,0,1-23.7,49.2,27.4,27.4,0,0,1-21.1-17.7,49.2,49.2,0,0,1-1.5-5.7l-.4-1.4Zm28.5-19a21.9,21.9,0,1,0,21.7,22,21.9,21.9,0,0,0-21.7-22Z" transform="translate(-29.7 -22.3)"/><path class="cls-7" d="M712.1,45.3c0,1.8,0,3.6,0,5.3a.9.9,0,0,0,.8,1.1h.1l5.3,1.4,1.3.5a2.8,2.8,0,0,1,1.5,3.3,2.6,2.6,0,0,1-3,1.9l-9.8-2.7a2.6,2.6,0,0,1-1.7-2.8q-.1-6.7,0-13.4a2.9,2.9,0,0,1,2.6-3.2h.3a2.9,2.9,0,0,1,2.8,3.1v.2c0,1.7,0,3.5,0,5.2Z" transform="translate(-29.7 -22.3)"/><path class="cls-7" d="M736.2,126a2.4,2.4,0,0,0-2.5-2.2h0a2.4,2.4,0,0,0-2.2,2.5h0a20.7,20.7,0,1,1-20.7-20.7h0a2.5,2.5,0,0,0,0-5h0a25.5,25.5,0,1,0,25.5,25.5h0Z" transform="translate(-29.7 -22.3)"/><path class="cls-7" d="M694.6,125.8h0a1.5,1.5,0,1,0,2.4,1.6l.2-.3h0a16,16,0,0,1,8.5-6.9,8,8,0,1,0,9.5-.2,16.1,16.1,0,0,1,9.4,7.3h0a1.5,1.5,0,1,0,2.8-.8v-.2h0c-3.7-6.1-9-9.8-16.5-9.8A18.4,18.4,0,0,0,694.6,125.8Zm15.9,4.6a4,4,0,1,1,4.1-3.9,4,4,0,0,1-4.1,3.9Z" transform="translate(-29.7 -22.3)"/><line class="cls-3" x1="737.5" y1="32.3" x2="837.7" y2="32.3"/><line class="cls-3" x1="737.5" y1="100.3" x2="837.7" y2="100.3"/><line class="cls-3" x1="1099.9" y1="42.7" x2="1263.3" y2="42.7"/><line class="cls-3" x1="1099.8" y1="74" x2="1263.2" y2="74"/><line class="cls-3" x1="1100.2" y1="12.1" x2="1264.1" y2="12.1"/><path class="cls-7" d="M1037.8,29.5l-44.1-5.1a12.3,12.3,0,0,0-10.1,3.5l-75.2,75.2a12.3,12.3,0,0,0,0,17.4l44.6,44.6a12.3,12.3,0,0,0,17.4,0l75.7-75.7a12.3,12.3,0,0,0,3.6-9l-1-39A12.3,12.3,0,0,0,1037.8,29.5Zm-33.9,61.4a15.2,15.2,0,0,1-.2,8.1,22.2,22.2,0,0,1-4.7,8.4l3.4,3.4a7.5,7.5,0,0,1,1.8,2.4,1.9,1.9,0,0,1-.7,2,2.2,2.2,0,0,1-1.9.8,4.1,4.1,0,0,1-2-1.3l-3.9-3.9a25.1,25.1,0,0,1-6.7,4.1,18.1,18.1,0,0,1-6.4,1.3,15,15,0,0,1-5.5-.9,11.1,11.1,0,0,1-4-2.5,4,4,0,0,1-1.1-3.1,4.9,4.9,0,0,1,1.5-3.4,5.3,5.3,0,0,1,2.5-1.5,3.8,3.8,0,0,1,2.6.3l4.3,1.8a8.4,8.4,0,0,0,3.5.3,10.4,10.4,0,0,0,4.2-1.5L979.3,94.3a48.1,48.1,0,0,1-7.9,3.9,13.8,13.8,0,0,1-7,.7,12.4,12.4,0,0,1-6.7-3.8,12.7,12.7,0,0,1-4-9.8,19.1,19.1,0,0,1,5.2-11.5l-2.6-2.6q-2-2-.4-3.7t3.7.3l2.6,2.6a25,25,0,0,1,5.9-3.8,13.5,13.5,0,0,1,6-1.1,14.6,14.6,0,0,1,4.4.7,7.8,7.8,0,0,1,3.1,1.8,3.9,3.9,0,0,1,1.1,3.1,4.7,4.7,0,0,1-1.4,3.2,4.6,4.6,0,0,1-5.9.8,8.1,8.1,0,0,0-8.2.2l10.1,10.1q4.1-2.4,6.7-3.7a15.5,15.5,0,0,1,5.4-1.5,13,13,0,0,1,5.7.7,13.3,13.3,0,0,1,5,3.2A14.4,14.4,0,0,1,1003.9,90.8Zm35.2-46a5.2,5.2,0,1,1,0-7.4A5.2,5.2,0,0,1,1039.1,44.8Z" transform="translate(-29.7 -22.3)"/><path class="cls-7" d="M989.7,89.7a16.8,16.8,0,0,0-6.1,2.2l10.7,10.7a10.5,10.5,0,0,0,2.1-6.1,6.8,6.8,0,0,0-2-4.9A5.7,5.7,0,0,0,989.7,89.7Z" transform="translate(-29.7 -22.3)"/><path class="cls-7" d="M963.6,88a5.1,5.1,0,0,0,4.1,1.8A15.5,15.5,0,0,0,973,88l-9.3-9.3a13.5,13.5,0,0,0-1.8,5.1A5.2,5.2,0,0,0,963.6,88Z" transform="translate(-29.7 -22.3)"/><circle class="cls-7" cx="1076.7" cy="11.6" r="8.5"/><circle class="cls-7" cx="1076.7" cy="43.2" r="8.5"/><circle class="cls-7" cx="1076.7" cy="73.7" r="8.5"/><path class="cls-7" d="M1514.6,177.8,1465,128.2a1.6,1.6,0,0,0-1.5-1.5,65.1,65.1,0,0,0-6.2-77.5c-23.3-27.8-65.2-31-93.1-7.7s-31,65.2-7.7,93.1,65.2,31,93.1,7.7l1.5,2.8,48.1,48.1,1.5,1.5c4.5,3.2,12.2,3,15.4-1.5S1519.3,180.8,1514.6,177.8Zm-107.7-34.9a51.5,51.5,0,1,1,51.5-51.5A51.5,51.5,0,0,1,1406.9,142.9Z" transform="translate(-29.7 -22.3)"/><circle class="cls-8" cx="27.7" cy="146.9" r="3.7"/><path class="cls-8" d="M67.9,161.8h-3a1.9,1.9,0,0,1-1.5-.7l-.8-1a1.9,1.9,0,0,0-1.5-.7H53.2a1.9,1.9,0,0,0-1.5.7l-.8,1a1.9,1.9,0,0,1-1.5.7H45.9a1.9,1.9,0,0,0-1.9,1.9v10.6a1.9,1.9,0,0,0,1.9,1.9h22a1.9,1.9,0,0,0,1.9-1.9V163.8A1.9,1.9,0,0,0,67.9,161.8Zm-15.4-.8a.8.8,0,1,1-.8.8A.8.8,0,0,1,52.5,161.1Zm4.8,14.1a5.9,5.9,0,1,1,5.9-5.9A5.9,5.9,0,0,1,57.3,175.2Z" transform="translate(-29.7 -22.3)"/><path class="cls-7" d="M721,103.9a1.9,1.9,0,0,0-.4-2.1l-5-5a1.9,1.9,0,1,0-2.7,2.7l3.8,3.8-3.8,3.8a1.9,1.9,0,0,0,2.7,2.7l5-5A1.8,1.8,0,0,0,721,103.9Z" transform="translate(-29.7 -22.3)"/><path class="cls-7" d="M1374.3,87.5c0,2.4-1.5,3.8-4.1,3.8h-1.8v2.8h-2.7V83.9h4.5C1372.8,83.9,1374.3,85.2,1374.3,87.5Zm-2.6.1c0-1-.6-1.6-1.7-1.6h-1.7v3.2h1.7A1.5,1.5,0,0,0,1371.8,87.6Z" transform="translate(-29.7 -22.3)"/><path class="cls-7" d="M1381.7,92.4h-4.4l-.7,1.8h-2.8l4.4-10.3h2.8l4.3,10.3h-2.9Zm-.8-2.1-1.4-3.7-1.4,3.7Z" transform="translate(-29.7 -22.3)"/><path class="cls-7" d="M1388.9,83.9v8h4.4v2.3h-7V83.9Z" transform="translate(-29.7 -22.3)"/><path class="cls-7" d="M1401.4,92.4h-4.4l-.7,1.8h-2.8l4.4-10.3h2.8l4.3,10.3h-2.9Zm-.8-2.1-1.4-3.7-1.4,3.7Z" transform="translate(-29.7 -22.3)"/><path class="cls-7" d="M1414.6,86.5a2.3,2.3,0,0,1-1.8,2.2,2.5,2.5,0,0,1,2.1,2.6c0,1.8-1.5,2.9-4,2.9h-5.1V83.9h4.9C1413.1,83.9,1414.6,84.9,1414.6,86.5Zm-2.8.5c0-.6-.5-1-1.2-1h-2.1v2h2.1C1411.3,88,1411.8,87.6,1411.8,86.9Zm.3,4c0-.6-.6-1.1-1.5-1h-2.1v2.2h2.1C1411.5,92.1,1412.1,91.7,1412.1,91Z" transform="translate(-29.7 -22.3)"/><path class="cls-7" d="M1422.5,94.2l-1.5-2.8h-2v2.8h-2.7V83.9h4.6c2.7,0,4.3,1.3,4.3,3.6a3.5,3.5,0,0,1-1.8,3.3l2.1,3.4Zm-3.5-5h2a1.5,1.5,0,0,0,1.7-1.6c0-1-.6-1.6-1.7-1.6h-2Z" transform="translate(-29.7 -22.3)"/><path class="cls-7" d="M1433.8,92.4h-4.4l-.7,1.8h-2.8l4.4-10.3h2.8l4.3,10.3h-2.9Zm-.8-2.1-1.4-3.7-1.4,3.7Z" transform="translate(-29.7 -22.3)"/><path class="cls-7" d="M1442.1,86c-.6,0-1.1.2-1.1.7s5.4.7,5.4,4.4c0,2.1-1.8,3.2-4.1,3.2a7.7,7.7,0,0,1-4.7-1.6l1-2.1a6.6,6.6,0,0,0,3.7,1.6c.8,0,1.3-.3,1.3-.8s-5.4-.7-5.4-4.3c0-1.9,1.6-3.1,4.1-3.1a7.9,7.9,0,0,1,4.1,1.2l-1,2.1A8,8,0,0,0,1442.1,86Z" transform="translate(-29.7 -22.3)"/><path class="cls-8" d="M1491.6,85.7a2.9,2.9,0,0,0,0,5.8,3.8,3.8,0,0,0,2.6-1.2l1.6,1.7a6.2,6.2,0,0,1-4.3,1.9,5.2,5.2,0,1,1,.1-10.5,5.9,5.9,0,0,1,4.2,1.8l-1.6,1.9A3.5,3.5,0,0,0,1491.6,85.7Z" transform="translate(-29.7 -22.3)"/><path class="cls-8" d="M1499.5,83.5v8h4.4v2.3h-7V83.5Z" transform="translate(-29.7 -22.3)"/><path class="cls-8" d="M1512,91.9h-4.4l-.7,1.8h-2.8l4.4-10.3h2.8l4.3,10.3h-2.9Zm-.8-2.1-1.4-3.7-1.4,3.7Z" transform="translate(-29.7 -22.3)"/><path class="cls-8" d="M1517.5,83.5l2.6,7.4,2.6-7.4h2.8l-4,10.3h-2.8l-4-10.3Z" transform="translate(-29.7 -22.3)"/><path class="cls-8" d="M1534.5,83.5v2.1h-5.4v1.9h4.9v2.1h-4.9v1.9h5.6v2.1h-8.3V83.5Z" transform="translate(-29.7 -22.3)"/><path class="cls-8" d="M108.7,172.9h0v-9.6a23.3,23.3,0,0,0,5.7-2.6,15.9,15.9,0,0,0,2.9-2.1.5.5,0,0,1,.8,0v.3a2.4,2.4,0,0,1,.5,1.5v15.2a2.4,2.4,0,0,1-.5,1.5.9.9,0,0,1-1.2.3,37.3,37.3,0,0,0-4.7-2.9,11.8,11.8,0,0,0-2.9-1.2Z" transform="translate(-29.7 -22.3)"/><path class="cls-8" d="M124.2,175a.8.8,0,0,1,.2-.6,9.9,9.9,0,0,0,0-13.1.8.8,0,0,1,0-1.1.7.7,0,0,1,1,0,11.6,11.6,0,0,1,0,15.4.7.7,0,0,1-1,0A.8.8,0,0,1,124.2,175Z" transform="translate(-29.7 -22.3)"/><path class="cls-8" d="M122,173.5a.8.8,0,0,1,.2-.6,7.6,7.6,0,0,0,0-10,.8.8,0,0,1,0-1.1.7.7,0,0,1,1,0,9.3,9.3,0,0,1,0,12.3.7.7,0,0,1-1,0A.8.8,0,0,1,122,173.5Z" transform="translate(-29.7 -22.3)"/><path class="cls-8" d="M120.1,171.8a.8.8,0,0,1,.2-.6,5,5,0,0,0,0-6.7.8.8,0,0,1,0-1.1.7.7,0,0,1,1,0,6.7,6.7,0,0,1,0,8.9.7.7,0,0,1-1,0A.8.8,0,0,1,120.1,171.8Z" transform="translate(-29.7 -22.3)"/><path class="cls-8" d="M41,134.3H197.3l-16.8-34.2c-3.2-6.5-12.4-9.5-20.2-6.6l-24,9.2c-6.3,2.4-13.7.9-18-3.5L98.6,78.7c-6.8-7-20.2-5.9-25.1,2.2Z" transform="translate(-29.7 -22.3)"/><circle class="cls-8" cx="153.3" cy="44.2" r="7.9"/><circle class="cls-8" cx="256" cy="127.6" r="3.7"/><path class="cls-8" d="M296.2,142.5h-3a1.9,1.9,0,0,1-1.5-.7l-.8-1a1.9,1.9,0,0,0-1.5-.7h-7.8a1.9,1.9,0,0,0-1.5.7l-.8,1a1.9,1.9,0,0,1-1.5.7h-3.4a1.9,1.9,0,0,0-1.9,1.9v10.6a1.9,1.9,0,0,0,1.9,1.9h22a1.9,1.9,0,0,0,1.9-1.9V144.4A1.9,1.9,0,0,0,296.2,142.5Zm-15.4-.8a.8.8,0,1,1-.8.8A.8.8,0,0,1,280.9,141.7Zm4.8,14.1a5.9,5.9,0,1,1,5.9-5.9A5.9,5.9,0,0,1,285.6,155.8Z" transform="translate(-29.7 -22.3)"/><path class="cls-8" d="M337,153.5h0v-9.6a23.3,23.3,0,0,0,5.7-2.6,15.9,15.9,0,0,0,2.9-2.1.5.5,0,0,1,.8,0v.3a2.4,2.4,0,0,1,.5,1.5v15.2a2.4,2.4,0,0,1-.5,1.5.9.9,0,0,1-1.2.3,37.3,37.3,0,0,0-4.7-2.9,11.8,11.8,0,0,0-2.9-1.2Z" transform="translate(-29.7 -22.3)"/><path class="cls-8" d="M352.5,155.7a.8.8,0,0,1,.2-.6,9.9,9.9,0,0,0,0-13.1.8.8,0,0,1,0-1.1.7.7,0,0,1,1,0,11.6,11.6,0,0,1,0,15.4.7.7,0,0,1-1,0A.8.8,0,0,1,352.5,155.7Z" transform="translate(-29.7 -22.3)"/><path class="cls-8" d="M350.4,154.2a.8.8,0,0,1,.2-.6,7.6,7.6,0,0,0,0-10,.8.8,0,0,1,0-1.1.7.7,0,0,1,1,0,9.3,9.3,0,0,1,0,12.3.7.7,0,0,1-1,0A.8.8,0,0,1,350.4,154.2Z" transform="translate(-29.7 -22.3)"/><path class="cls-8" d="M348.4,152.5a.8.8,0,0,1,.2-.6,5,5,0,0,0,0-6.7.8.8,0,0,1,0-1.1.7.7,0,0,1,1,0,6.7,6.7,0,0,1,0,8.9.7.7,0,0,1-1,0A.8.8,0,0,1,348.4,152.5Z" transform="translate(-29.7 -22.3)"/><circle class="cls-7" cx="472.7" cy="143.2" r="3.7"/><path class="cls-7" d="M512.9,158.2h-3a1.9,1.9,0,0,1-1.5-.7l-.8-1a1.9,1.9,0,0,0-1.5-.7h-7.8a1.9,1.9,0,0,0-1.5.7l-.8,1a1.9,1.9,0,0,1-1.5.7h-3.4a1.9,1.9,0,0,0-1.9,1.9v10.6a1.9,1.9,0,0,0,1.9,1.9h22a1.9,1.9,0,0,0,1.9-1.9V160.1A1.9,1.9,0,0,0,512.9,158.2Zm-15.4-.8a.8.8,0,1,1-.8.8A.8.8,0,0,1,497.5,157.4Zm4.8,14.1a5.9,5.9,0,1,1,5.9-5.9A5.9,5.9,0,0,1,502.3,171.5Z" transform="translate(-29.7 -22.3)"/><path class="cls-7" d="M553.7,169.2h0v-9.6a23.3,23.3,0,0,0,5.7-2.6,15.9,15.9,0,0,0,2.9-2.1.5.5,0,0,1,.8,0v.3a2.4,2.4,0,0,1,.5,1.5v15.2a2.4,2.4,0,0,1-.5,1.5.9.9,0,0,1-1.2.3,37.3,37.3,0,0,0-4.7-2.9,11.8,11.8,0,0,0-2.9-1.2Z" transform="translate(-29.7 -22.3)"/><path class="cls-7" d="M569.2,171.4a.8.8,0,0,1,.2-.6,9.9,9.9,0,0,0,0-13.1.8.8,0,0,1,0-1.1.7.7,0,0,1,1,0,11.6,11.6,0,0,1,0,15.4.7.7,0,0,1-1,0A.8.8,0,0,1,569.2,171.4Z" transform="translate(-29.7 -22.3)"/><path class="cls-7" d="M567,169.8a.8.8,0,0,1,.2-.6,7.6,7.6,0,0,0,0-10,.8.8,0,0,1,0-1.1.7.7,0,0,1,1,0,9.3,9.3,0,0,1,0,12.3.7.7,0,0,1-1,0A.8.8,0,0,1,567,169.8Z" transform="translate(-29.7 -22.3)"/><path class="cls-7" d="M565.1,168.1a.8.8,0,0,1,.2-.6,5,5,0,0,0,0-6.7.8.8,0,0,1,0-1.1.7.7,0,0,1,1,0,6.7,6.7,0,0,1,0,8.9.7.7,0,0,1-1,0A.8.8,0,0,1,565.1,168.1Z" transform="translate(-29.7 -22.3)"/><path class="cls-8" d="M268.3,114.3H424.7L407.9,80.2c-3.2-6.5-12.4-9.5-20.2-6.6l-24,9.2c-6.3,2.4-13.7.9-18-3.5L325.9,58.7c-6.8-7-20.2-5.9-25.1,2.2Z" transform="translate(-29.7 -22.3)"/><circle class="cls-8" cx="380.7" cy="24.2" r="7.9"/><path class="cls-7" d="M487,128.7H643.3L626.6,94.5c-3.2-6.5-12.4-9.5-20.2-6.6l-24,9.2c-6.3,2.4-13.7.9-18-3.5L544.6,73c-6.8-7-20.2-5.9-25.1,2.2Z" transform="translate(-29.7 -22.3)"/><circle class="cls-7" cx="599.3" cy="38.5" r="7.9"/><path class="cls-8" d="M175.9,162.2a1.4,1.4,0,0,1,2-1.1l4.6,2.7,4.6,2.7a1.4,1.4,0,0,1,0,2.3l-4.7,2.6-4.7,2.6a1.4,1.4,0,0,1-2-1.2V162.2Z" transform="translate(-29.7 -22.3)"/><path class="cls-8" d="M401.5,143.9a1.4,1.4,0,0,1,2-1.1l4.6,2.7,4.6,2.7a1.4,1.4,0,0,1,0,2.3l-4.7,2.6-4.7,2.6a1.4,1.4,0,0,1-2-1.2V143.9Z" transform="translate(-29.7 -22.3)"/><path class="cls-7" d="M618.9,159.2a1.4,1.4,0,0,1,2-1.1l4.6,2.7,4.6,2.7a1.4,1.4,0,0,1,0,2.3l-4.7,2.6-4.7,2.6a1.4,1.4,0,0,1-2-1.2V159.2Z" transform="translate(-29.7 -22.3)"/><path class="cls-7" d="M37.8,25.1v1.8H35.3v6.6H33.1V26.9H30.6V25.1Z" transform="translate(-29.7 -22.3)"/><path class="cls-7" d="M42.4,31.7A1.6,1.6,0,0,0,44.1,30V25.1h2.2V30c0,2.2-1.5,3.6-3.9,3.6s-3.9-1.4-3.9-3.6V25.1h2.2V30A1.6,1.6,0,0,0,42.4,31.7Z" transform="translate(-29.7 -22.3)"/><path class="cls-7" d="M57.9,25.1v1.8H55.3v6.6H53.1V26.9H50.6V25.1Z" transform="translate(-29.7 -22.3)"/><path class="cls-7" d="M60.9,25.1v8.4H58.7V25.1ZM62,23l-1.6,1.4H58.8l1.3-2.1Z" transform="translate(-29.7 -22.3)"/><path class="cls-7" d="M69.1,25.1v1.8H66.5v6.6H64.3V26.9H61.8V25.1Z" transform="translate(-29.7 -22.3)"/><path class="cls-7" d="M73.7,31.7A1.6,1.6,0,0,0,75.4,30V25.1h2.2V30c0,2.2-1.5,3.6-3.9,3.6s-3.9-1.4-3.9-3.6V25.1H72V30A1.6,1.6,0,0,0,73.7,31.7Z" transform="translate(-29.7 -22.3)"/><path class="cls-7" d="M81.2,25.1v6.5h3.6v1.9H79V25.1Z" transform="translate(-29.7 -22.3)"/><path class="cls-7" d="M94.3,29.3A4.6,4.6,0,1,1,89.8,25,4.3,4.3,0,0,1,94.3,29.3Zm-6.8,0a2.4,2.4,0,0,0,2.3,2.4,2.4,2.4,0,1,0-2.3-2.4Z" transform="translate(-29.7 -22.3)"/><path class="cls-7" d="M263.8,176.1v1.8h-2.5v6.6h-2.2v-6.6h-2.5v-1.8Z" transform="translate(-29.7 -22.3)"/><path class="cls-7" d="M268.4,182.7a1.6,1.6,0,0,0,1.6-1.8v-4.9h2.2V181c0,2.2-1.5,3.6-3.9,3.6s-3.9-1.4-3.9-3.6v-4.9h2.2V181A1.6,1.6,0,0,0,268.4,182.7Z" transform="translate(-29.7 -22.3)"/><path class="cls-7" d="M285.5,180.3c0,2.5-1.8,4.2-4.6,4.2h-3.5v-8.4H281A4.1,4.1,0,0,1,285.5,180.3Zm-2.2,0a2.3,2.3,0,0,0-2.3-2.4h-1.4v4.8h1.5A2.2,2.2,0,0,0,283.2,180.3Z" transform="translate(-29.7 -22.3)"/><path class="cls-7" d="M293.2,176.1v1.8h-4.4v1.6h4v1.7h-4v1.6h4.6v1.8h-6.8v-8.4Z" transform="translate(-29.7 -22.3)"/><path class="cls-7" d="M297.8,177.8c-.5,0-.9.2-.9.6s4.4.6,4.4,3.6-1.5,2.6-3.4,2.6a6.3,6.3,0,0,1-3.9-1.3l.9-1.7a5.4,5.4,0,0,0,3,1.3c.6,0,1.1-.2,1.1-.7s-4.4-.6-4.4-3.5,1.3-2.6,3.4-2.6a6.4,6.4,0,0,1,3.4.9l-.8,1.7A6.5,6.5,0,0,0,297.8,177.8Z" transform="translate(-29.7 -22.3)"/><path class="cls-7" d="M306.4,177.9a2.4,2.4,0,0,0,0,4.7,3.1,3.1,0,0,0,2.1-1l1.3,1.4a5,5,0,0,1-3.5,1.6,4.3,4.3,0,1,1,.1-8.6,4.8,4.8,0,0,1,3.4,1.4l-1.3,1.5A2.9,2.9,0,0,0,306.4,177.9Z" transform="translate(-29.7 -22.3)"/><path class="cls-7" d="M315.8,184.5l-1.2-2.3h-1.6v2.3h-2.2v-8.4h3.8c2.2,0,3.5,1.1,3.5,3a2.8,2.8,0,0,1-1.5,2.7l1.8,2.7Zm-2.9-4.1h1.6a1.2,1.2,0,0,0,1.4-1.3c0-.8-.5-1.3-1.4-1.3h-1.6Z" transform="translate(-29.7 -22.3)"/><path class="cls-7" d="M321.6,176.1v8.4h-2.2v-8.4Z" transform="translate(-29.7 -22.3)"/><path class="cls-7" d="M330.3,179c0,2-1.2,3.1-3.4,3.1h-1.5v2.3h-2.2v-8.4h3.7C329.1,176.1,330.3,177.2,330.3,179Zm-2.1.1c0-.8-.5-1.3-1.4-1.3h-1.4v2.6h1.4A1.2,1.2,0,0,0,328.2,179.1Z" transform="translate(-29.7 -22.3)"/><path class="cls-7" d="M335.4,177.9a2.4,2.4,0,0,0,0,4.7,3.1,3.1,0,0,0,2.1-1l1.3,1.4a5,5,0,0,1-3.5,1.6,4.3,4.3,0,1,1,.1-8.6,4.8,4.8,0,0,1,3.4,1.4l-1.3,1.5A2.9,2.9,0,0,0,335.4,177.9Z" transform="translate(-29.7 -22.3)"/><path class="cls-7" d="M341.9,176.1v8.4h-2.2v-8.4Z" transform="translate(-29.7 -22.3)"/><path class="cls-7" d="M352.1,180.3a4.6,4.6,0,1,1-4.5-4.3A4.3,4.3,0,0,1,352.1,180.3Zm-6.8,0a2.4,2.4,0,0,0,2.3,2.4,2.4,2.4,0,1,0-2.3-2.4Zm4.3-6.3-1.6,1.4h-1.6l1.3-2.1Z" transform="translate(-29.7 -22.3)"/><path class="cls-7" d="M355.1,176.1l3.8,5.1v-5.1h2v8.4H359l-3.8-5v5h-2.1v-8.4Z" transform="translate(-29.7 -22.3)"/><path class="cls-7" d="M263.8,176.1v1.8h-2.5v6.6h-2.2v-6.6h-2.5v-1.8Z" transform="translate(-29.7 -22.3)"/><path class="cls-7" d="M268.4,182.7a1.6,1.6,0,0,0,1.6-1.8v-4.9h2.2V181c0,2.2-1.5,3.6-3.9,3.6s-3.9-1.4-3.9-3.6v-4.9h2.2V181A1.6,1.6,0,0,0,268.4,182.7Z" transform="translate(-29.7 -22.3)"/><path class="cls-7" d="M285.5,180.3c0,2.5-1.8,4.2-4.6,4.2h-3.5v-8.4H281A4.1,4.1,0,0,1,285.5,180.3Zm-2.2,0a2.3,2.3,0,0,0-2.3-2.4h-1.4v4.8h1.5A2.2,2.2,0,0,0,283.2,180.3Z" transform="translate(-29.7 -22.3)"/><path class="cls-7" d="M293.2,176.1v1.8h-4.4v1.6h4v1.7h-4v1.6h4.6v1.8h-6.8v-8.4Z" transform="translate(-29.7 -22.3)"/><path class="cls-7" d="M297.8,177.8c-.5,0-.9.2-.9.6s4.4.6,4.4,3.6-1.5,2.6-3.4,2.6a6.3,6.3,0,0,1-3.9-1.3l.9-1.7a5.4,5.4,0,0,0,3,1.3c.6,0,1.1-.2,1.1-.7s-4.4-.6-4.4-3.5,1.3-2.6,3.4-2.6a6.4,6.4,0,0,1,3.4.9l-.8,1.7A6.5,6.5,0,0,0,297.8,177.8Z" transform="translate(-29.7 -22.3)"/><path class="cls-7" d="M306.4,177.9a2.4,2.4,0,0,0,0,4.7,3.1,3.1,0,0,0,2.1-1l1.3,1.4a5,5,0,0,1-3.5,1.6,4.3,4.3,0,1,1,.1-8.6,4.8,4.8,0,0,1,3.4,1.4l-1.3,1.5A2.9,2.9,0,0,0,306.4,177.9Z" transform="translate(-29.7 -22.3)"/><path class="cls-7" d="M315.8,184.5l-1.2-2.3h-1.6v2.3h-2.2v-8.4h3.8c2.2,0,3.5,1.1,3.5,3a2.8,2.8,0,0,1-1.5,2.7l1.8,2.7Zm-2.9-4.1h1.6a1.2,1.2,0,0,0,1.4-1.3c0-.8-.5-1.3-1.4-1.3h-1.6Z" transform="translate(-29.7 -22.3)"/><path class="cls-7" d="M321.6,176.1v8.4h-2.2v-8.4Z" transform="translate(-29.7 -22.3)"/><path class="cls-7" d="M330.3,179c0,2-1.2,3.1-3.4,3.1h-1.5v2.3h-2.2v-8.4h3.7C329.1,176.1,330.3,177.2,330.3,179Zm-2.1.1c0-.8-.5-1.3-1.4-1.3h-1.4v2.6h1.4A1.2,1.2,0,0,0,328.2,179.1Z" transform="translate(-29.7 -22.3)"/><path class="cls-7" d="M335.4,177.9a2.4,2.4,0,0,0,0,4.7,3.1,3.1,0,0,0,2.1-1l1.3,1.4a5,5,0,0,1-3.5,1.6,4.3,4.3,0,1,1,.1-8.6,4.8,4.8,0,0,1,3.4,1.4l-1.3,1.5A2.9,2.9,0,0,0,335.4,177.9Z" transform="translate(-29.7 -22.3)"/><path class="cls-7" d="M341.9,176.1v8.4h-2.2v-8.4Z" transform="translate(-29.7 -22.3)"/><path class="cls-7" d="M352.1,180.3a4.6,4.6,0,1,1-4.5-4.3A4.3,4.3,0,0,1,352.1,180.3Zm-6.8,0a2.4,2.4,0,0,0,2.3,2.4,2.4,2.4,0,1,0-2.3-2.4Zm4.3-6.3-1.6,1.4h-1.6l1.3-2.1Z" transform="translate(-29.7 -22.3)"/><path class="cls-7" d="M355.1,176.1l3.8,5.1v-5.1h2v8.4H359l-3.8-5v5h-2.1v-8.4Z" transform="translate(-29.7 -22.3)"/></svg>