<svg id="Layer_1" data-name="Layer 1" xmlns="http://www.w3.org/2000/svg" width="311.08604" height="150" viewBox="0 0 311.08604 150"><defs><style>.cls-1{fill:#008fd0;}.cls-2,.cls-3,.cls-4{fill:#fff;}.cls-2,.cls-4,.cls-5,.cls-6{stroke:#fff;}.cls-2,.cls-4,.cls-5{stroke-miterlimit:10;}.cls-2{stroke-width:4px;}.cls-5,.cls-6{fill:none;stroke-linecap:round;}.cls-5{stroke-width:5px;}.cls-6{stroke-linejoin:round;stroke-width:3px;}</style></defs><title>encontrar150</title><circle class="cls-1" cx="74.88503" cy="74.88503" r="74.88503"/><path class="cls-2" d="M108.09315,100.16967l-14.44982,4.70714c.32841-4.92608-4.92608-5.25448-4.92613-5.25448H82.846c-2.30525,0-4.9.318-6.9095-1.06825-2.34362-1.6168-4.289-3.437-6.96087-4.62114a19.97282,19.97282,0,0,0-8.82963-1.9734H47.922V87.10035a.91223.91223,0,0,0-.91223-.91223H30.88142a.91224.91224,0,0,0-.91225.91223h0v31.81883a.91224.91224,0,0,0,.91223.91226H47.00976a.91224.91224,0,0,0,.91223-.91225h0v-3.307l24.48445,8.09317s8.42906,2.62724,13.793,0l36.56245-19.04751C118.16425,96.33827,108.09315,100.16967,108.09315,100.16967ZM46.2435,117.97047a.10947.10947,0,0,1-.10947.10947h-14.085a.10947.10947,0,0,1-.10947-.10947V88.414a.10947.10947,0,0,1,.10947-.10947H46.134a.10947.10947,0,0,1,.10947.10947v3.54556h0V115.0574h0Zm39.18967,4.09288c-4.70714,2.29884-11.60365,0-11.60365,0l-25.6156-8.648V93.60156c4.33208,0,10.4962-.28631,14.81472.17639a20.42935,20.42935,0,0,1,6.49517,2.40831c2.41835,1.2,3.64832,3.09237,5.907,4.47662,2.13731,1.30972,5.736.63356,8.17491.65818,1.74.01759,3.481.05276,5.221.05276a3.49866,3.49866,0,0,1,3.39352,2.51777,3.29211,3.29211,0,0,1-2.62747,3.39352q-10.28143.0961-20.56277.19216c-.50953.00478-2.69513-.34326-2.64432,1.07892.03648,1.02169,4.34447.65628,5.589.64481l7.75147-.07144,10.08574-.093c2.84618-.87578,3.503-2.40831,3.503-2.40831l14.8877-4.70714a9.93078,9.93078,0,0,1,11.82259,2.18936Z"/><path class="cls-3" d="M78.61624,78.18282c-1.06849,0-2.13728.01654-3.20541-.00334a7.28708,7.28708,0,0,1-5.78062-3.07295c-1.29366-1.66092-.67-4.41459-1.37978-6.34367a41.43589,41.43589,0,0,0-2.559-4.97433c-.96406-1.8121-2.08773-3.55664-2.87241-5.44273a14.31637,14.31637,0,0,1-.74006-8.65948c.70115-3.181,1.7641-6.29017,4.0719-8.73055a16.30142,16.30142,0,0,1,10.53376-5.05025,20.29267,20.29267,0,0,1,7.02558.64992,12.94685,12.94685,0,0,1,6.4714,3.69518,18.54915,18.54915,0,0,1,4.47267,7.90769,17.5761,17.5761,0,0,1,.30965,8.05958,18.85564,18.85564,0,0,1-3.42866,7.41119c-1.83791,2.60715-3.48175,5.34769-3.41661,8.744a5.028,5.028,0,0,1-3.6136,5.12014ZM82.714,74.45415a2.28366,2.28366,0,0,0,2.3-2.24427,15.8699,15.8699,0,0,1,.645-3.97971,27.88089,27.88089,0,0,1,2.86227-5.70224A18.5714,18.5714,0,0,0,91.828,55.4011,13.54626,13.54626,0,0,0,79.283,38.96015a13.38309,13.38309,0,0,0-13.67451,9.48793,12.44145,12.44145,0,0,0-.11444,7.48577,41.7597,41.7597,0,0,0,4.14689,8.27906,15.11779,15.11779,0,0,1,2.56489,8.03625c.00716,1.4292.43,1.85192,2.01168,2.1917Z"/><path class="cls-3" d="M82.85722,89.28292c0,2.17536-1.9827,3.28913-4.42849,3.28913s-4.42849-1.11379-4.42849-3.28913c0-1.12345,0-1.12345,4.42849-1.12345S82.85722,88.15947,82.85722,89.28292Z"/><rect class="cls-3" x="69.73631" y="79.64416" width="16.94769" height="3.25121" rx="0.99246" ry="0.99246"/><rect class="cls-3" x="71.393" y="83.90182" width="13.42875" height="3.25121" rx="0.99246" ry="0.99246"/><path class="cls-3" d="M82.312,59.76463c-1.43709,0-2.60208,1.65954-2.60208,3.7067,0,.13935.00644.27643.017.41178H77.25573a5.25289,5.25289,0,0,0,.04851-.70637c0-2.04716-1.165-3.7067-2.60207-3.7067s-2.60205,1.65954-2.60205,3.7067,1.165,3.7067,2.60205,3.7067v7.426a1.00645,1.00645,0,0,0,2.01291,0V65.93863h3.584v8.37079a1.00645,1.00645,0,0,0,2.01291,0V67.178c1.43707,0,2.60205-1.65954,2.60205-3.7067S83.749,59.76463,82.312,59.76463Zm-7.60982,5.02162c-.57623,0-1.0434-.72059-1.0434-1.60949s.46714-1.60949,1.0434-1.60949,1.0434.72059,1.0434,1.60949S75.2784,64.78625,74.70215,64.78625Zm7.45206-.068c-.57625,0-1.0434-.72059-1.0434-1.60947s.46714-1.60949,1.0434-1.60949,1.0434.72059,1.0434,1.60949S82.73046,64.71827,82.15421,64.71827Z"/><path class="cls-3" d="M103.95825,56.85959h12.36357a1.56765,1.56765,0,0,1,1.56765,1.56765h0a1.56765,1.56765,0,0,1-1.56765,1.56765H103.95825a1.56765,1.56765,0,0,1-1.56765-1.56765h0A1.56765,1.56765,0,0,1,103.95825,56.85959Z"/><path class="cls-3" d="M97.21482,35.25469l8.74237-8.74237a1.56765,1.56765,0,0,1,2.217,0h0a1.56765,1.56765,0,0,1,0,2.217l-8.74237,8.74237a1.56765,1.56765,0,0,1-2.217,0h0A1.56765,1.56765,0,0,1,97.21482,35.25469Z"/><rect class="cls-3" x="76.56165" y="14.44983" width="3.1353" height="15.49887" rx="1.56765" ry="1.56765"/><path class="cls-3" d="M55.238,59.38709H42.87446a1.56765,1.56765,0,0,1-1.56765-1.56765h0a1.56765,1.56765,0,0,1,1.56765-1.56765H55.238a1.56765,1.56765,0,0,1,1.56765,1.56765h0A1.56765,1.56765,0,0,1,55.238,59.38709Z"/><path class="cls-3" d="M51.02211,25.90452h0a1.56765,1.56765,0,0,1,2.217,0l8.74237,8.74237a1.56764,1.56764,0,0,1,0,2.217h0a1.56765,1.56765,0,0,1-2.217,0l-8.74237-8.74237A1.56765,1.56765,0,0,1,51.02211,25.90452Z"/><circle class="cls-1" cx="236.08604" cy="75" r="75"/><path class="cls-3" d="M195.71575,83.25064c-.72677,0-1.45376.01125-2.18028-.00227a4.95657,4.95657,0,0,1-3.93191-2.09018c-.87994-1.12974-.45574-3.00275-.93852-4.31488a28.1821,28.1821,0,0,0-1.74061-3.38348c-.65575-1.23257-1.42-2.41918-1.95379-3.70208a9.73786,9.73786,0,0,1-.50338-5.89008,12.11931,12.11931,0,0,1,2.76966-5.93842,11.088,11.088,0,0,1,7.16495-3.43511,13.80287,13.80287,0,0,1,4.77872.44207,8.80632,8.80632,0,0,1,4.40177,2.51342,12.61694,12.61694,0,0,1,3.04227,5.37872,11.95526,11.95526,0,0,1,.21061,5.482,12.82532,12.82532,0,0,1-2.33213,5.041c-1.25013,1.77335-2.36825,3.63741-2.32393,5.94759a3.42,3.42,0,0,1-2.45793,3.48265Zm2.78726-2.5362a1.5533,1.5533,0,0,0,1.5644-1.52652,10.79383,10.79383,0,0,1,.43875-2.707,18.96426,18.96426,0,0,1,1.94689-3.87858,12.63187,12.63187,0,0,0,2.24919-4.84761,9.214,9.214,0,0,0-8.533-11.18294,9.10306,9.10306,0,0,0-9.30126,6.45359,8.46249,8.46249,0,0,0-.07784,5.09173,28.40432,28.40432,0,0,0,2.82067,5.63132,10.283,10.283,0,0,1,1.74462,5.4662c.00486.97213.29249,1.25966,1.36832,1.49077Z"/><path class="cls-4" d="M198.60041,90.8008c0,1.47965-1.34861,2.23723-3.01221,2.23723s-3.01221-.75757-3.01221-2.23723c0-.76415,0-.76415,3.01221-.76415S198.60041,90.03665,198.60041,90.8008Z"/><path class="cls-4" d="M190.35078,84.24463h10.1775a.67507.67507,0,0,1,.67507.67507V85.781a.67506.67506,0,0,1-.67506.67506h-10.1775a.67507.67507,0,0,1-.67507-.67507v-.86131A.67506.67506,0,0,1,190.35078,84.24463Z"/><path class="cls-4" d="M191.47764,87.14064h7.784a.67507.67507,0,0,1,.67507.67507V88.677a.67506.67506,0,0,1-.67506.67506h-7.784a.67507.67507,0,0,1-.67507-.67507V87.8157A.67506.67506,0,0,1,191.47764,87.14064Z"/><path class="cls-3" d="M198.22953,70.7228c-.9775,0-1.7699,1.1288-1.7699,2.52125,0,.09479.00437.188.01153.28007h-1.68083a3.57433,3.57433,0,0,0,.033-.48047c0-1.39245-.79241-2.52125-1.7699-2.52125s-1.76988,1.1288-1.76988,2.52125.79241,2.52125,1.76988,2.52125v5.051a.68459.68459,0,1,0,1.36917,0V74.92227h2.43776V80.616a.68459.68459,0,0,0,1.36917,0V75.76529c.9775,0,1.76988-1.1288,1.76988-2.52125S199.207,70.7228,198.22953,70.7228Zm-5.1761,3.41565c-.39195,0-.7097-.49014-.7097-1.09475s.31775-1.09475.7097-1.09475.70971.49014.70971,1.09475S193.44539,74.13845,193.05342,74.13845Zm5.06882-.04624c-.392,0-.70971-.49014-.70971-1.09475s.31775-1.09475.70971-1.09475.7097.49014.7097,1.09475S198.51419,74.09221,198.12224,74.09221Z"/><path class="cls-5" d="M195.85564,97.99446v16.58836a4.129,4.129,0,0,0,4.117,4.11695H278.671a4.12905,4.12905,0,0,0,4.11694-4.11695V32.17489a4.12906,4.12906,0,0,0-4.11694-4.117h-44.8903a4.12905,4.12905,0,0,0-4.117,4.117v67.93831a4.129,4.129,0,0,0,4.117,4.11695h38.2756a4.12905,4.12905,0,0,0,4.11694-4.11695V91.51755"/><path class="cls-3" d="M239.448,37.56927h33.69357a1.86036,1.86036,0,0,1,1.86036,1.86036v6.408a1.86038,1.86038,0,0,1-1.86038,1.86038H239.448a1.86038,1.86038,0,0,1-1.86038-1.86038v-6.408A1.86038,1.86038,0,0,1,239.448,37.56927Z"/><path class="cls-4" d="M212.95307,68.74683h8.40959a1.0663,1.0663,0,0,1,1.0663,1.0663h0a1.0663,1.0663,0,0,1-1.0663,1.0663h-8.40959a1.0663,1.0663,0,0,1-1.0663-1.0663h0A1.0663,1.0663,0,0,1,212.95307,68.74683Z"/><path class="cls-4" d="M207.88871,50.76589h8.40956a1.0663,1.0663,0,0,1,1.0663,1.0663v0a1.0663,1.0663,0,0,1-1.0663,1.0663h-8.40956a1.06629,1.06629,0,0,1-1.06629-1.06629v0A1.06629,1.06629,0,0,1,207.88871,50.76589Z" transform="translate(25.46986 165.15404) rotate(-45)"/><path class="cls-4" d="M195.38453,39.9002h0a1.0663,1.0663,0,0,1,1.0663,1.06629v8.40957a1.0663,1.0663,0,0,1-1.0663,1.06629h0a1.0663,1.0663,0,0,1-1.0663-1.06629V40.9665A1.0663,1.0663,0,0,1,195.38453,39.9002Z"/><path class="cls-4" d="M179.81417,70.466h-8.40956a1.0663,1.0663,0,0,1-1.0663-1.0663h0a1.0663,1.0663,0,0,1,1.0663-1.0663h8.40956a1.0663,1.0663,0,0,1,1.0663,1.0663h0A1.0663,1.0663,0,0,1,179.81417,70.466Z"/><path class="cls-4" d="M176.94653,47.69155h0a1.0663,1.0663,0,0,1,1.508,0L184.401,53.638a1.0663,1.0663,0,0,1,0,1.508h0a1.0663,1.0663,0,0,1-1.508,0l-5.94646-5.94646A1.0663,1.0663,0,0,1,176.94653,47.69155Z"/><line class="cls-6" x1="237.58759" y1="57.30334" x2="275.00191" y2="57.30334"/><line class="cls-6" x1="237.58759" y1="69.2105" x2="275.00191" y2="69.2105"/><line class="cls-6" x1="237.58759" y1="81.29996" x2="275.00191" y2="81.29996"/></svg>