<?xml version="1.0" encoding="utf-8"?>
<!-- Generator: Adobe Illustrator 21.0.0, SVG Export Plug-In . SVG Version: 6.00 Build 0)  -->
<svg version="1.1" id="Layer_1" xmlns="http://www.w3.org/2000/svg" xmlns:xlink="http://www.w3.org/1999/xlink" x="0px" y="0px"
	 viewBox="0 0 178.2 35.9" style="enable-background:new 0 0 178.2 35.9;" xml:space="preserve">
<style type="text/css">
	.st0{fill:#9E9D9E;}
	.st1{fill:#FFFFFF;}
</style>
<title>iconos16</title>
<circle class="st0" cx="28.3" cy="8.1" r="8"/>
<circle class="st0" cx="48.5" cy="8" r="8"/>
<circle class="st0" cx="68.7" cy="8" r="8"/>
<circle class="st0" cx="88.8" cy="8" r="8"/>
<circle class="st0" cx="109.2" cy="8" r="8"/>
<circle class="st0" cx="8" cy="27.8" r="8"/>
<circle class="st0" cx="28.3" cy="27.8" r="8"/>
<circle class="st0" cx="48.4" cy="27.8" r="8"/>
<circle class="st0" cx="68.7" cy="27.8" r="8"/>
<circle class="st0" cx="88.9" cy="27.8" r="8"/>
<circle class="st0" cx="109.2" cy="27.8" r="8"/>
<circle class="st0" cx="8" cy="8" r="8"/>
<path class="st1" d="M3.9,2.9h2.9c0.6,0,1,0.5,1,1v2.9c0,0.6-0.5,1-1,1H3.9c-0.6,0-1-0.5-1-1V3.9C2.8,3.4,3.3,2.9,3.9,2.9z"/>
<path class="st1" d="M9.4,2.9H12c0.7,0,1.2,0.5,1.2,1.2v2.6c0,0.7-0.5,1.2-1.2,1.2H9.4c-0.7,0-1.2-0.5-1.2-1.2V4.1
	C8.2,3.4,8.7,2.9,9.4,2.9z"/>
<path class="st1" d="M3.9,8.2h2.8c0.6,0,1.1,0.5,1.1,1.1v2.8c0,0.6-0.5,1.1-1.1,1.1H3.9c-0.6,0-1.1-0.5-1.1-1.1V9.3
	C2.8,8.7,3.3,8.2,3.9,8.2z"/>
<path class="st1" d="M9.3,8.2h2.8c0.6,0,1.1,0.5,1.1,1.1v2.8c0,0.6-0.5,1.1-1.1,1.1H9.3c-0.6,0-1.1-0.5-1.1-1.1V9.3
	C8.2,8.7,8.7,8.2,9.3,8.2z"/>
<path class="st1" d="M68.4,12.2c-1.9-0.1-3.5-1.4-4-3.3c-0.1-0.3-0.1-0.6-0.2-0.9c0-0.1,0-0.1-0.1-0.1c-0.3-0.1-0.5-0.5-0.5-0.9
	c0.1-0.5,0.5-0.8,0.9-0.7c0.5,0.1,0.8,0.5,0.7,0.9c0,0.3-0.3,0.6-0.6,0.7l0,0c0.1,2.2,2,3.8,4.1,3.7c2-0.1,3.6-1.7,3.7-3.7
	c-0.3-0.1-0.5-0.2-0.6-0.5c-0.1-0.2-0.1-0.4,0-0.6c0.1-0.4,0.6-0.7,1-0.6c0.3,0.1,0.6,0.4,0.6,0.7c0.1,0.4-0.2,0.8-0.6,0.9
	c0,0.1,0,0.2,0,0.3c0,0.5-0.2,1-0.4,1.5c-0.4,0.9-1.1,1.6-1.9,2c-0.5,0.2-1,0.4-1.5,0.5h-0.2l0,0c0,0.3,0,0.7,0,1h1.9
	c0.2,0,0.3,0.1,0.3,0.3c0,0.2-0.1,0.3-0.3,0.3c0,0,0,0,0,0h-4.5c-0.2,0-0.3-0.1-0.3-0.3c0-0.1,0.1-0.2,0.2-0.3h2.1V12.2z"/>
<path class="st1" d="M66.9,2.2C66.9,2.2,66.9,2.2,66.9,2.2c0,0.3,0,0.6,0,0.9c0,0.2,0.1,0.3,0.3,0.3c0.2,0,0.3-0.1,0.3-0.3
	c0,0,0,0,0,0c0-0.3,0-0.6,0-0.9c0-0.1,0-0.3,0-0.4l0,0c0.2-0.1,0.5-0.2,0.8-0.2v0.1c0,0.7,0,1.5,0,2.2c0,0.2,0.1,0.3,0.2,0.4
	s0.3-0.1,0.4-0.2c0,0,0-0.1,0-0.1c0-0.5,0-1,0-1.4c0-0.3,0-0.5,0-0.8c0-0.4,0,0,0-0.1l0.3,0c0.2,0,0.3,0.1,0.5,0.2c0,0,0,0,0,0.1
	c0,0.4,0,0.9,0,1.3c0,0.2,0.1,0.3,0.2,0.4c0.2,0,0.3-0.1,0.4-0.2c0,0,0-0.1,0-0.1c0-0.3,0-0.6,0-0.8l0,0l0,0l0,0
	c0.2,0.2,0.4,0.5,0.5,0.8c0.1,0.2,0.2,0.4,0.2,0.6c0,0.1,0,0.3,0,0.4c0,0.6,0,1.3,0,1.9v0.1l0,0c0,0.2,0,0.3,0,0.5s0,0.6,0,1
	s0,0.6,0,0.9c-0.1,0.4-0.2,0.9-0.5,1.2c-0.4,0.5-1,0.8-1.6,0.8c-0.7,0.1-1.4-0.2-1.9-0.7c-0.4-0.4-0.7-0.9-0.7-1.5
	c0-0.3,0-0.5,0-0.8c0-0.4,0-0.9,0-1.3s0-0.9,0-1.4s0-0.7,0-1c0-0.3,0.1-0.6,0.2-0.9C66.6,2.7,66.7,2.5,66.9,2.2L66.9,2.2z"/>
<path class="st1" d="M113.6,30.8v-5.3c0-0.6,0-1.2,0-1.8c0-0.9,0,0,0,0c-0.4-0.1-0.7-0.1-1.1-0.1c-0.5,0-1,0-1.5,0.1
	c-0.5,0.1-1.1,0.3-1.6,0.5c0,0,0,0,0,0.1c0,2.4,0,4.7,0,7.1v0c0.7-0.2,1.4-0.3,2.1-0.4C112.3,30.8,113,30.8,113.6,30.8z M104.9,30.8
	c1.4-0.1,2.9,0.1,4.2,0.5l0,0c0-2.4,0-4.7,0-7.1c0,0,0,0,0-0.1c-0.8-0.4-1.7-0.6-2.7-0.6c-0.4,0-0.8,0-1.2,0.1l-0.3,0L104.9,30.8z
	 M104.6,24.5h-0.4c-0.1,0-0.1,0-0.1,0.1c0,2.2,0,4.5,0,6.7c0,0.1,0,0.1,0.1,0.1h3.9l0,0l-0.4-0.1c-0.5-0.1-1-0.2-1.6-0.2
	c-0.4,0-0.8,0-1.2,0h-0.1c-0.1,0-0.2-0.2-0.2-0.3C104.6,28.7,104.6,26.6,104.6,24.5L104.6,24.5z M110.4,31.4h3.9
	c0.1,0,0.1,0,0.1-0.1c0-2.2,0-4.5,0-6.7c0-3.3,0,0,0,0c0,0,0-0.1-0.1-0.1c0,0,0,0,0,0H114v6.4l0,0c0,0.2-0.1,0.3-0.3,0.3
	c0,0,0,0,0,0c-0.3,0-0.6,0-0.9,0c-0.3,0-0.6,0-0.9,0s-0.7,0.1-1.1,0.1L110.4,31.4z"/>
<path class="st1" d="M112.3,10.6c0-1,0-1.9,0-2.9V7.1c0-1.5,0-2.9,0-4.4c0-0.3-0.2-0.6-0.4-0.7L111.7,2h-5.2l-0.2,0.1
	c-0.1,0.1-0.3,0.2-0.3,0.3c0,0.1-0.1,0.2-0.1,0.3c0,2.5,0,5.1,0,7.6c0,0.8,0,1.6,0,2.4c0,0.3,0.2,0.6,0.4,0.7c0.1,0,0.2,0.1,0.3,0.1
	h5l0.1-0.1c0.2-0.1,0.3-0.2,0.4-0.4c0-0.1,0.1-0.2,0.1-0.4C112.3,12.1,112.3,11.4,112.3,10.6z M108.6,3h1.2c0.1,0,0.1,0.1,0.1,0.1
	c0,0.1-0.1,0.1-0.1,0.1h-1.3c-0.1,0-0.1-0.1-0.1-0.1S108.4,3,108.6,3L108.6,3L108.6,3z M109.2,12.8c-0.2,0-0.3-0.1-0.3-0.3
	c0,0,0,0,0,0c0-0.2,0.1-0.4,0.3-0.4c0.2,0,0.4,0.1,0.4,0.3c0,0,0,0.1,0,0.1C109.5,12.7,109.4,12.8,109.2,12.8L109.2,12.8z
	 M111.7,11.6c0,0.1-0.1,0.2-0.2,0.2h-4.7c-0.1,0-0.2-0.1-0.2-0.2c0,0,0-0.1,0-0.1c0-1,0-2.1,0-3.1c0-1.5,0-2.9,0-4.4
	c0,0,0-0.1,0-0.1c0-0.1,0.1-0.1,0.2-0.2h4.8c0.1,0,0.2,0.1,0.2,0.2c0,0,0,0,0,0c0,0,0,0,0,0.1c0,1.3,0,2.5,0,3.8c0,0.8,0,1.7,0,2.5
	C111.7,10.7,111.7,11.1,111.7,11.6C111.7,11.5,111.7,11.6,111.7,11.6L111.7,11.6z"/>
<path class="st1" d="M93.7,8L93.7,8l-3-3c-0.2-0.2-0.2-0.4-0.1-0.6s0.4-0.2,0.6-0.1c0,0,0,0,0.1,0l0,0l3.3,3.3
	c0.2,0.2,0.2,0.4,0,0.6c0,0,0,0,0,0l-3.3,3.3c-0.2,0.2-0.4,0.2-0.6,0c0,0-0.1-0.1-0.1-0.1c-0.1-0.2-0.1-0.4,0.1-0.5L93.7,8L93.7,8z"
	/>
<path class="st1" d="M83.4,8L83.4,8l3.1,3c0.1,0.1,0.2,0.3,0.1,0.4c0,0.2-0.2,0.3-0.3,0.3c-0.1,0-0.3,0-0.4-0.1l-2.6-2.5l-0.8-0.8
	c-0.2-0.2-0.2-0.4,0-0.6c0,0,0,0,0,0l3.3-3.3c0.1-0.1,0.3-0.2,0.4-0.1c0.2,0,0.3,0.2,0.3,0.3c0,0.2,0,0.3-0.1,0.4l-1.3,1.3L83.4,8
	L83.4,8z"/>
<path class="st1" d="M89.7,3.3c0.2,0,0.4,0.2,0.4,0.5c0,0,0,0.1,0,0.1l-0.7,2.6l-1.2,4.3l-0.5,1.8c-0.1,0.2-0.3,0.4-0.6,0.3
	c-0.2,0-0.3-0.2-0.3-0.3c0-0.1,0-0.2,0-0.2l0.4-1.6l1.3-4.6l0.7-2.5C89.3,3.4,89.5,3.3,89.7,3.3z"/>
<path class="st1" d="M71.2,31.5L71.2,31.5c0,0.7,0,1.3,0,1.8c0,0,0,0,0,0.1c0,0.1-0.1,0.1-0.1,0.1h-5.5c-0.3,0-0.7-0.2-0.7-0.6
	c0-0.1,0-0.1,0-0.2c0-2.7,0-5.3,0-7.9c0-0.1,0-0.2,0-0.3s0-0.2,0-0.3l0,0c0.1-0.2,0.3-0.3,0.5-0.4h0.2h0.7c0,0,0,0,0,0
	c0-0.4,0-0.7,0-1.1c0-0.1,0-0.1,0-0.2s0-0.2,0-0.3l0,0c0.1-0.1,0.2-0.3,0.4-0.3c0.1,0,0.2-0.1,0.3-0.1h5.4c0.1,0,0.2,0,0.2,0.1
	c0,0,0,0,0,0c0,0.1-0.1,0.1-0.1,0.1H67c-0.1,0-0.2,0-0.3,0.1c-0.1,0.1-0.1,0.1-0.1,0.2c0,0.1,0,0.2,0.1,0.3c0.1,0.1,0.2,0.1,0.3,0.1
	h5.5c0.1,0,0.2,0.1,0.2,0.1c0,0,0,0,0,0c0,0.7,0,1.3,0,1.9c0,2.1,0,4.2,0,6.3c0,0,0,0.1,0,0.1c0,0.1-0.1,0.1-0.2,0.1h-1.2L71.2,31.5
	z"/>
<path class="st1" d="M69.8,22.7H67c-0.1,0-0.2-0.1-0.2-0.1c0,0,0,0,0,0c0-0.1,0.1-0.2,0.2-0.2h5.5c0.1,0,0.2,0.1,0.2,0.1
	c0,0.1,0,0.2-0.1,0.2c0,0,0,0,0,0H69.8z"/>
<path class="st1" d="M50.6,6.4L50.6,6.4c0.3,0,0.6,0,0.8,0c0.4,0,0.7,0.3,0.7,0.7c0,0.2,0,0.4,0,0.6v0.1l0.3-0.2l1.9-1.1h0.1
	c0.1,0,0.2,0,0.2,0.1c0,0,0,0,0,0c0,0,0,0,0,0.1c0,0.5,0,1,0,1.4c0,0.4,0,0.9,0,1.3c0,0.7,0,1.3,0,2c0,0.1-0.1,0.2-0.1,0.2
	c-0.1,0-0.1,0-0.1,0l-2.1-1.2h-0.1v0.1c0,0.2,0,0.4,0,0.6c0,0.4-0.3,0.7-0.7,0.7l0,0h-7.7c-0.4,0-0.7-0.3-0.7-0.7c0,0,0,0,0,0
	c0-1.3,0-2.7,0-3.9c0-0.4,0.3-0.7,0.7-0.7h0.6c-0.7-0.5-1.1-1.4-0.9-2.2c0.1-0.6,0.5-1.1,1-1.4c1-0.6,2.4-0.3,3,0.7
	c0.1,0.1,0.1,0.2,0.1,0.3c0.4-0.9,1.4-1.4,2.3-1.3c0.8,0.1,1.5,0.7,1.7,1.5C51.8,4.9,51.4,5.9,50.6,6.4z M46.6,6.4h1.6
	c-0.3-0.2-0.6-0.6-0.8-0.9C47.2,5.8,47,6.1,46.6,6.4L46.6,6.4z"/>
<path class="st1" d="M88.2,25.8C88.2,25.8,88.2,25.8,88.2,25.8l-0.4-0.1l-0.6-0.1l-1-0.1c0,0,0,0-0.1,0l-1.1,2.9L85,28.8l0.2,0.2
	l0,0l0.3-0.4c0.1-0.1,0.1-0.2,0.2-0.3c0.1-0.1,0.2-0.1,0.3-0.1c0.2,0,0.4,0.1,0.5,0.2c0.1,0.1,0.1,0.1,0.2,0.2
	c0.2-0.1,0.4,0,0.6,0.1c0.2,0.1,0.3,0.3,0.4,0.5c0.4,0,0.8,0.3,0.8,0.7l0.2,0.1c0.2,0.1,0.3,0.2,0.4,0.3c0.1,0.2,0.1,0.4,0,0.6
	L88.8,31l-0.3,0.5h0.1l0.8,0.6l0.3,0.2c0.1,0,0.1,0.1,0.2,0.1c0.1,0,0.2-0.1,0.3-0.2c0-0.1,0-0.2-0.1-0.3l-0.5-0.4l-0.4-0.3
	c-0.1-0.1-0.1-0.2,0-0.3c0,0,0,0,0,0c0.1-0.1,0.2-0.1,0.3,0c0,0,0,0,0,0l0.2,0.1l0.9,0.8c0.1,0.1,0.2,0.1,0.3,0.1
	c0.2-0.1,0.3-0.2,0.2-0.4c0,0,0,0,0-0.1c0,0-0.1-0.1-0.1-0.1l-0.7-0.6l-0.3-0.3c-0.1-0.1-0.1-0.2,0-0.2c0,0,0,0,0,0L90,30l0.1,0.1
	c0,0.1,0.1,0.1,0.2,0.2l0.8,0.7c0.1,0.1,0.3,0.2,0.4,0.3c0.1,0.1,0.3,0.1,0.5,0c0,0,0,0,0,0c0.1-0.1,0.1-0.3,0-0.4l-1-0.9l-0.3-0.3
	l0.1-0.1c0.1-0.1,0.2-0.1,0.3,0c0,0,0,0,0,0l1.2,1.1c0.1,0.1,0.1,0.1,0.2,0.1c0.1,0,0.3,0,0.3-0.2c0,0,0-0.1,0-0.1
	c0-0.1,0-0.1-0.1-0.2l-0.3-0.4l-0.6-0.6l-1.1-1.1l-0.4-0.4l-0.6-0.6l0,0H89c0,0-0.1,0-0.1,0s0,0.1-0.1,0.1L88.4,28
	c0,0.1-0.1,0.2-0.2,0.2l-0.2,0.2c-0.3,0.2-0.7,0.2-1,0c-0.1-0.1-0.1-0.2-0.1-0.2L87,28l0.7-1.8c0-0.1,0.1-0.2,0.2-0.2L88.2,25.8z
	 M87.2,28.2L87.2,28.2L87.2,28.2c0.2,0.1,0.4,0.1,0.6-0.1L88,28c0.1,0,0.1-0.1,0.2-0.2l0.4-0.9c0-0.1,0.1-0.1,0.2-0.1h0.6
	c0.1,0,0.3,0,0.3,0.1l0,0l1,1l1.1,1.1l0.4,0.5h0.1l0.3-0.1l0,0l-0.2-0.8l-0.4-2.3c0,0,0,0,0-0.1l-0.3-0.2c-0.4-0.2-0.9-0.4-1.3-0.5
	c-0.2-0.1-0.5-0.1-0.7,0l-0.9,0.3l-0.5,0.1L88,26.2c0,0-0.1,0-0.1,0.1L87.2,28.2z M86.5,30.3c0.1,0,0.1,0,0.2-0.1l0.3-0.5l0.3-0.4
	c0-0.1,0-0.1,0-0.2c-0.1-0.1-0.2-0.2-0.4-0.3c-0.1,0-0.2,0-0.3,0.1l-0.4,0.6L86,29.8c0,0,0,0.1,0,0.1C86.1,30.1,86.3,30.3,86.5,30.3
	L86.5,30.3z M88.1,29.8c0,0,0-0.1,0-0.1L88,29.6c-0.1-0.1-0.2-0.1-0.3-0.1c-0.1,0-0.1,0-0.2,0.1c0,0,0,0.1-0.1,0.1l-0.6,0.8
	c0,0,0,0,0,0.1c0,0,0,0.1,0,0.1c0.1,0.2,0.2,0.3,0.4,0.3c0.1,0,0.1,0,0.2-0.1l0.3-0.5l0.3-0.4C88.1,29.9,88.1,29.9,88.1,29.8
	L88.1,29.8z M88.7,30.5C88.7,30.5,88.7,30.5,88.7,30.5c0-0.1-0.1-0.2-0.1-0.3c-0.1-0.1-0.2-0.1-0.3-0.1c0,0,0,0-0.1,0L87.6,31
	c0,0,0,0.1,0,0.1c0.1,0.1,0.2,0.2,0.3,0.3c0.1,0,0.2,0,0.2-0.1L88.7,30.5C88.7,30.5,88.7,30.5,88.7,30.5L88.7,30.5z M85.7,29.7
	C85.7,29.7,85.8,29.7,85.7,29.7l0.3-0.3l0.4-0.5c0,0,0-0.1,0-0.1c-0.1-0.1-0.2-0.2-0.4-0.3c-0.1,0-0.1,0-0.2,0.1l-0.3,0.5l-0.2,0.3
	c0,0,0,0.1,0,0.1C85.4,29.6,85.5,29.7,85.7,29.7L85.7,29.7z"/>
<circle class="st1" cx="93.5" cy="26.1" r="0.3"/>
<path class="st1" d="M95,28.8l-0.3-1.5l-0.3-1.5c-0.1-0.3-0.3-0.6-0.6-0.7c-0.3-0.1-0.7,0-0.9,0.3c-0.2,0.2-0.3,0.5-0.2,0.7
	c0.1,0.4,0.2,0.7,0.2,1.1c0.1,0.6,0.3,1.2,0.4,1.8c0.1,0.5,0.6,0.8,1.1,0.7c0.4-0.1,0.7-0.4,0.7-0.8C95,28.9,95,28.8,95,28.8z
	 M93.5,26.6c-0.3,0-0.5-0.2-0.5-0.5c0-0.3,0.2-0.5,0.5-0.5c0.3,0,0.5,0.2,0.5,0.5c0,0,0,0,0,0C94,26.4,93.8,26.6,93.5,26.6
	C93.5,26.6,93.5,26.6,93.5,26.6L93.5,26.6z"/>
<path class="st1" d="M85.5,24.6c-0.3-0.4-0.9-0.4-1.3,0C84.1,24.7,84,24.8,84,25l-1,2.7c-0.1,0.2-0.1,0.3-0.1,0.5
	c0.1,0.5,0.5,0.8,0.9,0.8c0.4,0,0.7-0.2,0.8-0.6l1-2.7c0-0.1,0.1-0.2,0.1-0.4C85.7,25.1,85.6,24.8,85.5,24.6z M84.8,25.8
	c-0.3,0-0.5-0.3-0.5-0.5c0-0.3,0.3-0.5,0.5-0.5c0.3,0,0.5,0.3,0.5,0.5C85.4,25.6,85.1,25.8,84.8,25.8C84.8,25.8,84.8,25.8,84.8,25.8
	z"/>
<circle class="st1" cx="84.8" cy="25.3" r="0.3"/>
<path class="st1" d="M32.1,10.2C32.1,10.2,32.1,10.2,32.1,10.2c0.2,0.2,0.4,0.3,0.7,0.2c0.1-0.1,0.3-0.2,0.3-0.4
	c0-0.2-0.1-0.4-0.3-0.5c-0.2-0.1-0.4,0-0.5,0.2c0,0-0.1,0-0.1,0h-3.2l0,0c0,0,0-0.1-0.1-0.1c0,0,0-0.1,0-0.1c0.2-0.5,0.4-1,0.6-1.5
	c0.5-1,1.2-2,1.9-2.9l0.5-0.5c-0.8-0.4-1.4-1-2-1.7l0.1,0c0.2-0.1,0.5-0.2,0.6-0.4c0.3-0.3,0.3-0.8,0-1.1c0,0,0,0,0,0
	c-0.1-0.1-0.2-0.2-0.4-0.3c-0.4-0.2-0.8-0.3-1.3-0.4c-0.3,0-0.7,0-1,0c-0.3,0-0.7,0.1-1,0.3c-0.2,0.1-0.5,0.2-0.6,0.4
	c-0.3,0.3-0.3,0.7,0,1c0.1,0.1,0.2,0.2,0.4,0.3l0.4,0.2c-0.6,0.7-1.2,1.3-2,1.8l0,0.1l0,0c0.5,0.6,0.9,1.2,1.4,1.8
	c0.5,0.6,0.9,1.3,1.2,2c0.1,0.3,0.2,0.5,0.3,0.8c0,0,0,0,0,0.1L28,9.9l0,0c-0.4,0-0.9,0-1.3-0.2c-0.5-0.1-0.9-0.4-1.2-0.7
	c-0.3-0.3-0.6-0.7-0.7-1.2c-0.1-0.5-0.2-1-0.2-1.5c0,0,0,0,0-0.1c0.2-0.1,0.3-0.3,0.2-0.6s-0.3-0.3-0.6-0.2S23.9,5.9,24,6.1
	c0,0.1,0.1,0.2,0.2,0.2l0,0c0,0,0,0.3,0,0.5c0,0.4,0.1,0.8,0.2,1.2c0.2,0.8,0.8,1.4,1.5,1.7l0.3,0.1h-1.4l0,0
	c-0.1-0.2-0.2-0.3-0.4-0.3c-0.2,0-0.5,0.2-0.5,0.4c0,0.2,0.2,0.5,0.4,0.5c0.2,0,0.4-0.1,0.4-0.3c0,0,0,0,0.1,0h3c0,0,0,0,0.1,0
	c0.1,0.2,0.4,0.3,0.6,0.2c0.1,0,0.2-0.1,0.2-0.2H29c0.5,0.1,1.1,0.2,1.5,0.5c0.4,0.2,0.8,0.5,1.1,0.9c0.3,0.4,0.5,0.8,0.6,1.3
	c0,0,0,0.1,0,0.1c-0.2,0.1-0.3,0.3-0.2,0.5c0.1,0.2,0.3,0.4,0.6,0.3c0.1,0,0.3-0.2,0.3-0.3c0-0.2-0.1-0.4-0.2-0.5
	c-0.1,0-0.1-0.1-0.1-0.2c-0.1-0.7-0.5-1.4-1.1-1.9c-0.4-0.3-0.9-0.6-1.4-0.8L30,10.2L32.1,10.2L32.1,10.2z M28.5,6L28.5,6l-0.1,3.6
	h-0.1V6h-0.1c-0.2,0-0.4-0.2-0.4-0.4C27.8,5.4,28,5.1,28.2,5h0.1h0.2c0.1,0,0.3,0,0.3,0.2c0.2,0.2,0.2,0.5,0,0.7
	C28.7,6,28.6,6,28.5,6z"/>
<path class="st1" d="M28.3,25c0.1-0.1,0.2-0.3,0.3-0.4c0.4-0.4,0.8-0.6,1.3-0.8c0.5-0.2,1.1-0.2,1.6,0c0.8,0.2,1.4,0.8,1.6,1.6
	c0.1,0.3,0.2,0.7,0.2,1c0,1.1-0.3,2.1-0.9,2.9c-0.5,0.8-1.2,1.4-2,2c-0.6,0.4-1.2,0.7-1.9,1c-0.1,0.1-0.3,0.1-0.4,0
	c-0.8-0.4-1.6-0.8-2.3-1.4c-0.7-0.5-1.3-1.2-1.8-2c-0.3-0.5-0.5-1.1-0.6-1.7c-0.1-0.4-0.1-0.8,0-1.2c0-0.3,0.1-0.6,0.2-0.8
	c0.3-0.7,0.9-1.3,1.7-1.5c0.4-0.1,0.8-0.1,1.2,0c0.4,0.1,0.8,0.2,1.1,0.4C27.8,24.4,28.1,24.7,28.3,25L28.3,25z"/>
<path class="st1" d="M48,28.2L48,28.2c0-1.1,0-2.2,0-3.3c0.8-0.2,1.5-0.5,2.3-0.9c0.4-0.2,0.8-0.4,1.2-0.7c0.1-0.1,0.3-0.1,0.4,0.1
	c0.1,0.1,0.2,0.3,0.2,0.5c0,1.5,0,2.9,0,4.4c0,0.3,0,0.6,0,0.8c0,0.2-0.1,0.4-0.2,0.5c-0.1,0.1-0.3,0.2-0.5,0.1
	c-0.6-0.4-1.3-0.7-1.9-1c-0.4-0.2-0.8-0.3-1.2-0.4L48,28.2z"/>
<path class="st1" d="M47.5,24.8v3.7h-2c-0.9,0-1.7-0.7-1.8-1.6c-0.1-0.5,0.1-1,0.4-1.4c0.3-0.4,0.7-0.6,1.2-0.7h0.2L47.5,24.8
	L47.5,24.8z"/>
<path class="st1" d="M45.8,28.9h1.7l0,0c0,0.7,0,1.5,0,2.2c0,0.3-0.1,0.6-0.3,0.8c-0.1,0.1-0.3,0.2-0.4,0.3c-0.2,0.1-0.5,0-0.6-0.2
	c-0.2-0.2-0.3-0.4-0.3-0.7c0-0.1,0-0.2,0-0.3C45.8,30.4,45.8,29.7,45.8,28.9L45.8,28.9z"/>
<path class="st1" d="M52.5,27.6v-2.3h0.6c0.2,0,0.3,0.1,0.3,0.3c0,0.6,0,1.1,0,1.6c0,0.2-0.1,0.3-0.3,0.3
	C53,27.6,52.5,27.6,52.5,27.6z"/>
<path class="st1" d="M14.2,27.1c0.5,0.2,0.7,0.8,0.5,1.3c-0.1,0.2-0.3,0.4-0.5,0.5l-4.4,2.5l-4.4,2.5C5,34.3,4.3,34.1,4,33.7
	c-0.1-0.2-0.2-0.4-0.2-0.7V22.9c0-0.6,0.4-1,0.9-1.1c0.2,0,0.5,0,0.6,0.2l4.4,2.5L14.2,27.1z"/>
<circle class="st0" cx="129.4" cy="8.2" r="8"/>
<circle class="st0" cx="149.8" cy="8.1" r="8"/>
<circle class="st0" cx="129.5" cy="27.9" r="8"/>
<circle class="st0" cx="149.7" cy="27.6" r="8"/>
<path class="st1" d="M134.3,12.2h-9.8c-0.2-0.4-0.1-0.9,0.2-1.2c0.7-0.8,1-1.7,1-2.8c0-0.5,0-1.1,0-1.6c0-1.2,0.6-2.3,1.6-3
	c0.5-0.3,0.8-0.8,0.8-1.3c0-0.7,0.6-1.2,1.2-1.2c0,0,0,0,0,0c0.6-0.1,1.2,0.4,1.3,1c0,0,0,0,0,0.1c0,0.7,0.4,1.3,1,1.6
	c0.9,0.7,1.5,1.7,1.4,2.9c-0.1,1,0,2,0.3,3c0.2,0.5,0.4,0.9,0.7,1.3C134.4,11.2,134.5,11.8,134.3,12.2z"/>
<path class="st1" d="M127.8,12.8h3.1c0,0.9-0.6,1.4-1.6,1.4S127.8,13.6,127.8,12.8z"/>
<path class="st1" d="M129.6,21.5c1.7-0.2,3.3,0.6,4.2,2c0.7,0.9,0.8,2.2,0.2,3.2c-0.3,0.5-0.3,0.9,0.2,1.2c1.8,1.4,1.3,4.1-0.4,5.4
	c-1.9,1.5-5.7,1.6-7.5,0.1c-1.1-0.7-1.7-1.9-1.8-3.2c0-1.9,0-3.8,0-5.8c0-0.5,0.2-1,0.5-1.3C126.2,22,127.9,21.4,129.6,21.5z
	 M128,29.5c0,0.4,0,0.7,0,1c0,0.5,0.3,1,0.7,1.2c0.7,0.5,1.5,0.6,2.3,0.2c0.8-0.4,1.2-0.9,1.2-1.5c-0.1-0.7-0.7-1.3-1.4-1.3
	c-0.4-0.1-0.8-0.1-1.3-0.1c-0.6-0.1-1.1-0.6-1.1-1.2c0-0.6,0.4-1,1-1.1c0.5-0.1,1-0.2,1.5-0.4c0.5-0.2,0.8-0.8,0.6-1.3
	c0-0.1-0.1-0.2-0.2-0.3c-0.5-0.6-1.3-0.9-2.1-0.7c-0.8,0.1-1.4,0.8-1.3,1.6C128,26.9,128,28.2,128,29.5z"/>
<path class="st1" d="M153.6,23.6c0.5-0.1,0.9-0.3,0.7-0.9s-0.6-0.3-1-0.4h-7.1c-0.2,0-0.4,0-0.6,0c-0.2,0.1-0.5,0.2-0.5,0.4
	c0,0.2,0.1,0.5,0.2,0.7c0.2,0.2,0.5,0.3,0.7,0.4c-0.1,0.2-0.1,0.3-0.2,0.4c-0.4,0.5-0.6,1.2-0.4,1.9c0.3,1.2,0.4,2.4,0.7,3.6
	c0.3,1.4,0.6,2.8,0.9,4.2c0,0.4,0.4,0.7,0.8,0.7c0,0,0,0,0.1,0c1.1,0,2.1,0,3.2,0s1,0,1.2-0.9c0.5-2.4,0.9-4.7,1.4-7
	c0.3-0.9,0.2-1.9-0.4-2.6c0,0,0-0.1,0-0.2S153.5,23.6,153.6,23.6z M151,32.5c-0.3,0.3-0.6,0.7-0.9,1s-0.7,0.4-1.1,0
	c-0.3-0.3-0.6-0.6-0.9-1c-0.2-0.4-0.3-0.8-0.3-1.3c0.2-1.8,0.5-3.6,0.9-5.4l0.2-1.3c0-0.1,0-0.2-0.1-0.3l-0.2-0.3
	c-0.1-0.2-0.1-0.5,0.1-0.7c0.1,0,0.1-0.1,0.2-0.1c0.3,0,0.7,0,1,0c0.3,0,0.4,0.3,0.4,0.5c0,0.1,0,0.1-0.1,0.2l-0.3,0.5
	c-0.1,0.1-0.1,0.2-0.1,0.4l0.8,3.1l0,0c0.2,1.1,0.4,2.3,0.6,3.4C151.5,31.7,151.3,32.1,151,32.5L151,32.5z"/>
<path class="st1" d="M145.2,13c0-0.4,0-0.7,0-1.1c0.1-0.7,0.2-1.4,0.2-2.1c0-0.3,0-0.7-0.2-1c-0.9-2-0.1-4.4,1.9-5.4
	c0.6-0.3,1.4-0.5,2.1-0.4c0.6,0,1.3,0,1.9,0c1.6,0,3.2,0.9,3.9,2.3c0.6,0.9,0.7,1.9,0.4,2.9c-0.3,1.2-1.2,2.3-2.4,2.8
	c-0.8,0.4-1.8,0.5-2.7,0.4c-1.6-0.2-2.8,0.6-3.9,1.4C146,13.1,145.6,13.1,145.2,13z"/>
<circle class="st0" cx="170.2" cy="8.2" r="8"/>
<path class="st0" d="M162,19.7h7.7c4.4,0,7.9,3.6,7.9,7.9l0,0c0,4.4-3.6,7.9-7.9,7.9H162l0,0V19.7L162,19.7z"/>
<path class="st1" d="M171.2,29.1c-1.8,1.5-4.5,1.3-6-0.5c-1.5-1.8-1.3-4.5,0.5-6c1.8-1.5,4.5-1.3,6,0.5c1.2,1.4,1.4,3.4,0.4,5
	c0,0,0.1,0,0.1,0.1l3.2,3.2c0.3,0.2,0.3,0.7,0.1,1c-0.2,0.3-0.7,0.3-1,0.1l0,0l-0.1-0.1l-3.1-3.1L171.2,29.1z M168.4,28.5
	c1.5,0,2.6-1.2,2.6-2.6s-1.2-2.6-2.6-2.6c-1.5,0-2.6,1.2-2.6,2.6v0C165.8,27.3,167,28.5,168.4,28.5
	C168.4,28.5,168.4,28.5,168.4,28.5z"/>
<circle class="st1" cx="170.5" cy="6" r="3.2"/>
<path class="st1" d="M167.9,8.6c0.6,0.7,1.5,1.1,2.4,1.1c0,0,0.7,0.3,2.7-1.1c1.4,0.9,2.4,2.3,2.6,4c0,0-1.2,2.5-5.4,2.8
	c0,0-3.6-0.4-5.1-2.6C165.2,12.9,165.5,9.8,167.9,8.6z"/>
</svg>
