<?xml version="1.0" encoding="utf-8"?>
<!-- Generator: Adobe Illustrator 21.0.0, SVG Export Plug-In . SVG Version: 6.00 Build 0)  -->
<svg version="1.1" id="Layer_1" xmlns="http://www.w3.org/2000/svg" xmlns:xlink="http://www.w3.org/1999/xlink" x="0px" y="0px"
	 viewBox="0 0 360 71.3" style="enable-background:new 0 0 360 71.3;" xml:space="preserve">
<style type="text/css">
	.st0{fill:#9E9D9E;}
	.st1{fill:#FFFFFF;}
</style>
<circle class="st0" cx="56.3" cy="16.1" r="16"/>
<circle class="st0" cx="96.8" cy="15.9" r="16"/>
<circle class="st0" cx="137.3" cy="16" r="16"/>
<circle class="st0" cx="177.5" cy="16" r="16"/>
<circle class="st0" cx="218.2" cy="15.9" r="16"/>
<circle class="st0" cx="15.7" cy="55.6" r="16"/>
<circle class="st0" cx="56.3" cy="55.5" r="16"/>
<circle class="st0" cx="96.7" cy="55.5" r="16"/>
<circle class="st0" cx="137.2" cy="55.5" r="16"/>
<circle class="st0" cx="177.7" cy="55.5" r="16"/>
<circle class="st0" cx="218.2" cy="55.5" r="16"/>
<circle class="st0" cx="15.8" cy="16" r="16"/>
<g>
	<path class="st1" d="M13.6,15.7H7.1c-1,0-1.8-0.8-1.8-1.8V7.5c0-1,0.8-1.8,1.8-1.8h6.5c1,0,1.8,0.8,1.8,1.8V14
		C15.3,14.9,14.5,15.7,13.6,15.7z"/>
	<path class="st1" d="M24.1,15.7H18c-1.1,0-1.9-0.9-1.9-1.9V7.6c0-1.1,0.9-1.9,1.9-1.9h6.1c1.1,0,1.9,0.9,1.9,1.9v6.1
		C26.1,14.8,25.2,15.7,24.1,15.7z"/>
	<path class="st1" d="M13.2,26.3H7.5c-1.2,0-2.1-1-2.1-2.1v-5.7c0-1.2,1-2.1,2.1-2.1h5.7c1.2,0,2.1,1,2.1,2.1v5.7
		C15.3,25.4,14.4,26.3,13.2,26.3z"/>
	<path class="st1" d="M23.7,26.3h-5.3c-1.3,0-2.3-1.1-2.3-2.3v-5.3c0-1.3,1-2.3,2.3-2.3h5.3c1.3,0,2.3,1.1,2.3,2.3V24
		C26.1,25.3,25,26.3,23.7,26.3z"/>
</g>
<g>
	<path class="st1" d="M136.6,24.3c-0.8,0-1.5-0.2-2.3-0.4c-1.3-0.4-2.4-1.1-3.4-2c-1.2-1.2-2-2.6-2.4-4.2c-0.2-0.6-0.2-1.2-0.2-1.8
		c0-0.1,0-0.2-0.2-0.2c-0.7-0.3-1.1-1-1-1.7c0.1-0.8,0.7-1.3,1.4-1.5c1-0.2,1.9,0.6,1.9,1.7c0,0.7-0.5,1.4-1.2,1.6c0,0,0,0-0.1,0
		c0,3.9,3.2,7.6,7.6,7.7c4.6,0.2,8.1-3.5,8.1-7.7c-0.5-0.2-0.9-0.5-1.1-1c-0.2-0.4-0.2-0.7-0.1-1.1c0.2-0.7,0.9-1.2,1.7-1.2
		c0.9,0,1.5,0.7,1.6,1.4c0.1,0.8-0.4,1.6-1.3,1.8c0,0.2,0,0.4,0,0.6c-0.1,1.1-0.4,2.1-0.8,3c-0.8,1.7-2.1,3-3.8,3.9
		c-0.9,0.5-1.9,0.8-3,0.9c-0.1,0-0.3,0-0.4,0c0,0-0.1,0-0.1,0.1c0,0.6,0,1.3,0,1.9l0,0h0.1c1.2,0,2.5,0,3.7,0c0.3,0,0.6,0.2,0.6,0.6
		c0,0.3-0.2,0.6-0.6,0.6c-2.9,0-5.9,0-8.8,0c-0.3,0-0.6-0.2-0.6-0.5s0.2-0.6,0.5-0.6h0.1c1.3,0,2.6,0,3.9,0h0.1
		C136.6,25.6,136.6,25,136.6,24.3z"/>
	<path class="st1" d="M133.6,4.3C133.6,4.4,133.6,4.4,133.6,4.3c0,0.7,0,1.2,0,1.8c0,0.4,0.2,0.6,0.5,0.7c0.4,0,0.7-0.2,0.7-0.6
		c0-0.6,0-1.2,0-1.8c0-0.3,0-0.6,0-0.8V3.5c0.5-0.2,1-0.4,1.5-0.5v0.1c0,1.5,0,2.9,0,4.4c0,0.4,0.3,0.6,0.6,0.6
		c0.4,0,0.6-0.3,0.6-0.6c0-1,0-1.9,0-2.9c0-0.5,0-1,0-1.5V3c0.2,0,0.3,0.1,0.5,0.1c0.3,0.1,0.7,0.2,1,0.4c0.1,0,0.1,0.1,0.1,0.1
		c0,0.9,0,1.7,0,2.6c0,0.4,0.3,0.6,0.6,0.6s0.6-0.3,0.6-0.6c0-0.6,0-1.1,0-1.7V4.4l0,0c0,0,0,0,0,0.1c0.4,0.5,0.8,1,1,1.6
		c0.2,0.4,0.3,0.9,0.3,1.3c0,0.3,0.1,0.5,0.1,0.8c0,1.3,0,2.6,0,3.8v0.1c0,0,0,0-0.1,0c0,0.3,0,0.7,0,1c0,0.6,0,1.3,0,1.9
		c0,0.6,0,1.2-0.1,1.8c-0.1,0.9-0.5,1.7-1.1,2.4c-0.8,1-1.9,1.5-3.2,1.6c-1.5,0.1-2.8-0.3-3.9-1.2c-0.9-0.8-1.4-1.8-1.5-3
		c0-0.5,0-1-0.1-1.6c0-0.9,0-1.7,0-2.6c0-0.9,0-1.8,0-2.8c0-0.7,0-1.4,0.1-2c0-0.7,0.1-1.3,0.4-1.9c0.2-0.4,0.5-0.8,0.8-1.2
		C133.5,4.4,133.5,4.4,133.6,4.3z"/>
</g>
<g>
	<path class="st1" d="M227.2,61.7C227.2,61.6,227.2,61.6,227.2,61.7c0-3.6,0-7.1,0-10.6c0-1.2,0-2.4,0-3.7c0-0.1,0-0.1-0.1-0.1
		c-0.7-0.1-1.5-0.2-2.2-0.2c-1,0-2,0-3,0.2c-1.1,0.2-2.2,0.5-3.2,1c-0.1,0-0.1,0.1-0.1,0.1c0,4.7,0,9.5,0,14.2v0.1
		c1.4-0.4,2.8-0.7,4.2-0.8C224.3,61.6,225.8,61.6,227.2,61.7z M209.7,61.7c2.9-0.2,5.7,0.2,8.5,1v-0.1c0-4.7,0-9.5,0-14.2
		c0-0.1,0-0.1-0.1-0.1c-1.7-0.8-3.5-1.2-5.4-1.2c-0.8,0-1.6,0-2.4,0.1c-0.2,0-0.4,0.1-0.6,0.1C209.7,52,209.7,56.8,209.7,61.7z
		 M209.1,48.9H209c-0.2,0-0.5,0-0.7,0s-0.2,0-0.2,0.2c0,4.5,0,9,0,13.4c0,0.2,0,0.2,0.2,0.2c2.6,0,5.2,0,7.7,0h0.1c0,0,0,0-0.1,0
		c-0.3,0-0.5-0.1-0.8-0.1c-1-0.2-2.1-0.3-3.1-0.4c-0.8,0-1.6,0-2.4,0c-0.1,0-0.1,0-0.2,0c-0.3-0.1-0.4-0.3-0.4-0.6
		C209.1,57.4,209.1,53.2,209.1,48.9L209.1,48.9z M220.8,62.7L220.8,62.7C220.8,62.7,220.9,62.7,220.8,62.7c2.7,0,5.2,0,7.8,0
		c0.2,0,0.2,0,0.2-0.2c0-4.5,0-8.9,0-13.4c0,0,0,0,0-0.1s-0.1-0.2-0.2-0.2c-0.3,0-0.5,0-0.8,0c0,0,0,0-0.1,0v0.1c0,4.2,0,8.4,0,12.6
		v0.1c0,0.3-0.3,0.6-0.6,0.6c-0.6,0-1.2-0.1-1.7,0c-0.6,0-1.1,0-1.7,0.1c-0.7,0.1-1.5,0.2-2.2,0.3C221.3,62.6,221,62.7,220.8,62.7z"
		/>
</g>
<g>
	<path class="st1" d="M224.5,21.2c0-1.9,0-3.8,0-5.7c0-0.4,0-0.9,0-1.3c0-2.9,0-5.8,0-8.7c0-0.6-0.3-1.1-0.9-1.3
		c-0.1,0-0.2-0.1-0.3-0.1h-0.1c-3.4,0-6.8,0-10.2,0h-0.1c-0.1,0.1-0.3,0.1-0.4,0.2c-0.3,0.1-0.5,0.4-0.6,0.6s-0.1,0.5-0.1,0.7
		c0,5.1,0,10.1,0,15.2c0,1.6,0,3.3,0,4.9c0,0.6,0.3,1.1,0.9,1.4c0.2,0.1,0.4,0.1,0.6,0.1c3.3,0,6.6,0,9.9,0h0.1
		c0.1,0,0.2-0.1,0.3-0.1c0.3-0.1,0.6-0.4,0.7-0.7c0.1-0.2,0.1-0.5,0.1-0.7C224.5,24.1,224.5,22.7,224.5,21.2z M217,5.9
		c0.4,0,0.8,0,1.2,0s0.8,0,1.2,0c0.1,0,0.3,0.1,0.3,0.2s-0.1,0.3-0.2,0.3h-0.1c-0.8,0-1.6,0-2.5,0c-0.2,0-0.3-0.1-0.3-0.3
		C216.7,6,216.9,5.9,217,5.9z M218.3,25.6c-0.4,0-0.6-0.3-0.6-0.7c0-0.4,0.3-0.7,0.7-0.7s0.6,0.3,0.6,0.7
		C218.9,25.3,218.6,25.6,218.3,25.6z M223.3,23.1c0,0.2-0.2,0.4-0.5,0.4s-0.6,0-0.9,0c-0.9,0-1.9,0-2.8,0c-0.6,0-1.3,0-1.9,0
		c-1.3,0-2.5,0-3.8,0c-0.2,0-0.4-0.1-0.5-0.3c0-0.1,0-0.1,0-0.2c0-2.1,0-4.2,0-6.2c0-2.9,0-5.9,0-8.8c0-0.1,0-0.1,0-0.2
		c0-0.2,0.1-0.3,0.3-0.3c0.1,0,0.1,0,0.2,0c3.1,0,6.2,0,9.4,0h0.1c0.2,0,0.3,0.1,0.4,0.4V8c0,2.5,0,5,0,7.6c0,1.7,0,3.4,0,5.1
		C223.3,21.5,223.3,22.4,223.3,23.1C223.3,23,223.3,23,223.3,23.1z"/>
</g>
<g>
	<path class="st1" d="M187.3,16c-0.1,0-0.1-0.1-0.1-0.1c-2-2-3.9-3.9-5.9-5.9c-0.3-0.3-0.4-0.9-0.1-1.2c0.3-0.4,0.9-0.4,1.3-0.1
		c0,0,0,0,0.1,0.1c2.2,2.2,4.4,4.4,6.6,6.6c0.4,0.4,0.4,0.9,0,1.3c-2.2,2.2-4.4,4.4-6.5,6.6c-0.4,0.4-1.1,0.4-1.4-0.2
		c-0.2-0.3-0.1-0.8,0.2-1c2-2,3.9-3.9,5.9-5.9C187.2,16,187.2,16,187.3,16z"/>
	<path class="st1" d="M166.6,16l0.1,0.1c2,2,3.9,3.9,5.9,5.9c0.2,0.2,0.3,0.6,0.2,0.9s-0.3,0.5-0.7,0.6c-0.3,0.1-0.6,0-0.8-0.2
		c-1.7-1.7-3.4-3.4-5.1-5.1c-0.5-0.5-1-1-1.6-1.6c-0.4-0.4-0.4-0.9,0-1.2c2.2-2.2,4.4-4.4,6.6-6.6c0.2-0.2,0.5-0.3,0.9-0.2
		c0.3,0.1,0.5,0.3,0.6,0.7c0.1,0.3,0,0.6-0.3,0.8c-0.9,0.9-1.7,1.7-2.6,2.6c-1.1,1.1-2.2,2.2-3.3,3.3C166.7,16,166.6,16,166.6,16z"
		/>
	<path class="st1" d="M179.2,6.5c0.6,0,1,0.6,0.9,1.2c-0.5,1.7-1,3.4-1.5,5.2c-0.8,2.9-1.6,5.8-2.4,8.6c-0.3,1.2-0.7,2.4-1,3.6
		c-0.1,0.4-0.5,0.7-0.9,0.7s-0.7-0.3-0.8-0.7c0-0.2,0-0.3,0-0.5c0.3-1,0.6-2.1,0.9-3.1c0.9-3.1,1.7-6.2,2.6-9.2
		c0.5-1.7,0.9-3.3,1.4-5C178.5,6.8,178.8,6.5,179.2,6.5z"/>
</g>
<g>
	<g>
		<path class="st1" d="M142.3,63C142.3,63.1,142.3,63.1,142.3,63c0,1.3,0,2.5,0,3.7v0.1c0,0.1-0.1,0.2-0.2,0.3H142
			c-3.6,0-7.2,0-10.9,0c-0.7,0-1.3-0.5-1.5-1.2c0-0.1,0-0.2,0-0.3c0-5.3,0-10.6,0-15.9c0-0.2,0-0.3,0-0.5s0-0.4,0-0.6v-0.1
			c0.3-0.3,0.5-0.6,1-0.7c0.1,0,0.3,0,0.4,0c0.4,0,0.8,0,1.2,0h0.1v-0.1c0-0.7,0-1.5,0-2.2c0-0.1,0-0.2,0-0.3c0-0.2,0-0.4,0-0.6
			v-0.1c0.2-0.3,0.4-0.5,0.7-0.7c0.2-0.1,0.4-0.1,0.6-0.1c3.6,0,7.3,0,10.9,0c0.2,0,0.4,0.1,0.4,0.4c0,0.1-0.1,0.3-0.3,0.3h-0.1
			c-3.6,0-7.2,0-10.8,0c-0.2,0-0.4,0-0.6,0.2c-0.2,0.1-0.3,0.3-0.3,0.5s0,0.4,0.2,0.5c0.2,0.2,0.4,0.2,0.6,0.2c3.6,0,7.2,0,10.9,0
			h0.1c0.2,0,0.4,0.1,0.4,0.4c0,1.3,0,2.6,0,3.9c0,4.2,0,8.4,0,12.6c0,0.1,0,0.1,0,0.2c-0.1,0.1-0.2,0.2-0.3,0.2c-0.8,0-1.5,0-2.3,0
			C142.4,63,142.3,63,142.3,63z"/>
	</g>
	<path class="st1" d="M139.3,45.3c-1.8,0-3.6,0-5.4,0c-0.2,0-0.4-0.1-0.4-0.3s0.1-0.3,0.3-0.3l0,0c3.6,0,7.3,0,10.9,0
		c0.2,0,0.3,0.1,0.3,0.3s-0.1,0.3-0.3,0.4h-0.1C143,45.3,141.1,45.3,139.3,45.3z"/>
</g>
<path class="st1" d="M101,12.7L101,12.7c0.6,0,1.1,0,1.6,0c0.7,0,1.3,0.7,1.3,1.4c0,0.4,0,0.8,0,1.2v0.1c0.2-0.1,0.4-0.2,0.5-0.3
	c1.3-0.7,2.6-1.5,3.8-2.2c0.1,0,0.1-0.1,0.2-0.1c0.2,0,0.4,0.1,0.4,0.3v0.1c0,1,0,1.9,0,2.9c0,0.9,0,1.8,0,2.7c0,1.4,0,2.7,0,4.1
	c0,0.4-0.3,0.5-0.6,0.3c-1.4-0.8-2.9-1.6-4.3-2.5c0,0-0.1,0-0.1-0.1v0.1c0,0.4,0,0.8,0,1.2c0,0.8-0.6,1.4-1.5,1.4
	c-5.2,0-10.4,0-15.5,0c-0.8,0-1.4-0.6-1.4-1.4c0-2.6,0-5.3,0-7.9c0-0.8,0.6-1.4,1.4-1.5c0.4,0,0.7,0,1.1,0H88
	c-1.5-1.1-2.2-2.6-1.8-4.5c0.2-1.2,0.9-2.2,2-2.9c2.2-1.4,5.2-0.6,6.3,1.9c1-1.9,2.5-2.8,4.7-2.5c1.8,0.4,3.1,1.4,3.5,3.2
	C103.3,9.9,102.6,11.5,101,12.7z M93,12.7c1.1,0,2.1,0,3.1,0c-0.7-0.5-1.2-1.1-1.6-1.9C94.2,11.6,93.7,12.2,93,12.7z"/>
<path class="st1" d="M176.3,51.7c-0.1,0-0.1-0.1-0.2-0.1c-0.2,0-0.4-0.1-0.6-0.1c-0.4-0.1-0.8-0.1-1.2-0.2c-0.7-0.1-1.4-0.2-2.1-0.2
	c-0.1,0-0.1,0-0.1,0.1c-0.7,2-1.4,3.9-2.1,5.9c-0.1,0.2-0.1,0.3-0.2,0.5c0.2,0.1,0.3,0.2,0.5,0.4c0,0,0,0,0-0.1
	c0.2-0.2,0.3-0.5,0.5-0.7c0.1-0.2,0.3-0.3,0.4-0.5c0.1-0.2,0.3-0.2,0.6-0.2c0.4,0,0.8,0.1,1,0.4c0.1,0.1,0.2,0.2,0.3,0.4
	c0.4-0.1,0.8-0.1,1.2,0.1c0.4,0.2,0.6,0.5,0.7,0.9c0.9,0,1.5,0.5,1.7,1.4c0.1,0,0.2,0.1,0.3,0.1c0.3,0.1,0.6,0.3,0.8,0.6
	c0.2,0.4,0.2,0.8-0.1,1.2c-0.1,0.1-0.1,0.2-0.2,0.2c-0.2,0.3-0.5,0.6-0.7,1l0.1,0.1c0.5,0.4,1.1,0.8,1.6,1.2
	c0.2,0.1,0.3,0.3,0.5,0.4c0.1,0.1,0.2,0.1,0.4,0.2c0.2,0,0.4-0.1,0.5-0.3c0.1-0.2,0-0.5-0.1-0.6c-0.3-0.3-0.6-0.5-0.9-0.8
	c-0.3-0.2-0.5-0.4-0.7-0.7c-0.2-0.2-0.2-0.3,0-0.5c0.1-0.2,0.4-0.2,0.6-0.1c0.1,0.1,0.2,0.2,0.3,0.3c0.6,0.5,1.2,1,1.7,1.5
	c0.2,0.2,0.4,0.2,0.7,0.1c0.4-0.1,0.6-0.6,0.4-0.9c-0.1-0.1-0.1-0.2-0.2-0.2c-0.5-0.4-0.9-0.8-1.4-1.2c-0.2-0.2-0.4-0.3-0.6-0.5
	c-0.2-0.2-0.2-0.4,0-0.5c0.1-0.1,0.2-0.2,0.3-0.3l0.1,0.1c0.1,0.1,0.2,0.2,0.3,0.3c0.5,0.5,1.1,1,1.7,1.4c0.3,0.2,0.5,0.5,0.8,0.7
	s0.7,0.2,0.9-0.1s0.1-0.6-0.1-0.8c-0.7-0.6-1.4-1.2-2.1-1.9c-0.2-0.2-0.5-0.4-0.7-0.6c0.1-0.1,0.1-0.2,0.2-0.3
	c0.2-0.2,0.4-0.2,0.6-0.1c0.8,0.7,1.6,1.4,2.4,2.1c0.1,0.1,0.3,0.2,0.4,0.3c0.3,0.1,0.7-0.1,0.7-0.5c0-0.2-0.1-0.3-0.2-0.4
	c-0.2-0.2-0.4-0.5-0.7-0.7c-0.4-0.4-0.9-0.8-1.3-1.3c-0.7-0.7-1.4-1.4-2.1-2.1c-0.2-0.2-0.5-0.5-0.7-0.7c-0.4-0.4-0.8-0.8-1.1-1.1
	H179c-0.3,0-0.6,0-1,0c-0.1,0-0.2,0-0.3,0s-0.1,0.2-0.1,0.2c-0.3,0.5-0.5,1-0.8,1.4c-0.1,0.2-0.2,0.3-0.4,0.4
	c-0.2,0.1-0.3,0.2-0.5,0.4c-0.6,0.4-1.4,0.5-2-0.1c-0.1-0.1-0.2-0.3-0.1-0.5c0-0.1,0.1-0.1,0.1-0.2c0.5-1.2,0.9-2.4,1.4-3.7
	c0.1-0.2,0.2-0.4,0.5-0.5C175.9,51.8,176.1,51.8,176.3,51.7z M174.2,56.4C174.3,56.4,174.3,56.4,174.2,56.4c0.1,0.1,0.2,0.1,0.2,0.1
	c0.4,0.2,0.7,0.1,1.1-0.1c0.2-0.1,0.3-0.2,0.4-0.3c0.1-0.1,0.2-0.2,0.3-0.3c0.3-0.6,0.6-1.1,0.9-1.7c0.1-0.2,0.2-0.2,0.4-0.2
	c0.4,0,0.8,0,1.2,0c0.3,0,0.5,0.1,0.7,0.3l0,0c0.6,0.6,1.3,1.3,1.9,1.9c0.7,0.7,1.5,1.5,2.2,2.2c0.3,0.3,0.6,0.6,0.9,0.9h0.1
	c0.1,0,0.2-0.1,0.2-0.1c0.2-0.1,0.4-0.2,0.6-0.2v-0.1c-0.1-0.5-0.2-1.1-0.3-1.6c-0.3-1.5-0.6-3-0.9-4.5c0-0.1,0-0.1-0.1-0.1
	c-0.2-0.1-0.5-0.2-0.7-0.3c-0.8-0.4-1.7-0.7-2.6-0.9c-0.5-0.1-0.9-0.1-1.4,0c-0.6,0.2-1.2,0.3-1.9,0.5c-0.3,0.1-0.6,0.2-1,0.3
	c-0.3,0.1-0.5,0.2-0.8,0.3c-0.1,0-0.1,0.1-0.1,0.1C175.2,53.8,174.7,55.1,174.2,56.4z M172.8,60.6c0.1,0,0.2,0,0.3-0.2
	c0.2-0.3,0.4-0.6,0.6-0.9c0.2-0.3,0.4-0.5,0.6-0.8c0.1-0.1,0.1-0.3,0-0.4c-0.2-0.3-0.4-0.5-0.7-0.5c-0.2-0.1-0.4,0-0.5,0.2
	c-0.3,0.4-0.6,0.8-0.9,1.2c-0.1,0.2-0.2,0.3-0.4,0.5c0,0,0,0.1,0,0.2C171.9,60.2,172.4,60.5,172.8,60.6z M176.1,59.6
	c0-0.1,0-0.2-0.1-0.2c-0.1-0.1-0.1-0.2-0.2-0.3c-0.2-0.2-0.4-0.2-0.6-0.3c-0.2,0-0.3,0-0.4,0.2c0,0.1-0.1,0.1-0.1,0.2
	c-0.4,0.5-0.8,1.1-1.1,1.6v0.1c0,0.1,0,0.2,0.1,0.2c0.2,0.3,0.4,0.5,0.8,0.6c0.1,0,0.3,0,0.3-0.2c0.2-0.3,0.4-0.6,0.7-0.9
	c0.2-0.3,0.4-0.5,0.6-0.8C176,59.8,176,59.7,176.1,59.6z M177.3,61C177.3,60.9,177.3,60.9,177.3,61c-0.1-0.2-0.2-0.4-0.3-0.5
	c-0.2-0.1-0.3-0.2-0.6-0.2c0,0-0.1,0-0.1,0.1c-0.4,0.6-0.8,1.1-1.2,1.7c-0.1,0.1-0.1,0.2,0,0.3c0.2,0.3,0.4,0.5,0.7,0.5
	c0.2,0,0.3,0,0.4-0.1c0.4-0.5,0.7-1.1,1.1-1.6C177.3,61.1,177.3,61,177.3,61z M171.2,59.4c0.1,0,0.1,0,0.2-0.1
	c0.1-0.2,0.3-0.4,0.4-0.5c0.2-0.3,0.5-0.7,0.7-1c0.1-0.1,0.1-0.2,0-0.3c-0.1-0.3-0.4-0.5-0.7-0.5c-0.1,0-0.2,0-0.3,0.1
	c-0.2,0.3-0.5,0.6-0.7,1c-0.1,0.2-0.3,0.4-0.4,0.5c0,0-0.1,0.1,0,0.2C170.5,59.1,170.8,59.4,171.2,59.4z"/>
<g>
	<circle class="st1" cx="186.8" cy="52.1" r="0.5"/>
	<path class="st1" d="M189.7,57.5c-0.2-1-0.4-1.9-0.6-2.9c-0.2-1-0.4-1.9-0.6-2.9c-0.2-0.7-0.6-1.2-1.3-1.4s-1.3,0-1.8,0.5
		c-0.4,0.4-0.5,0.9-0.4,1.4c0.1,0.7,0.3,1.5,0.5,2.2c0.3,1.2,0.5,2.4,0.8,3.6c0.2,0.9,1,1.5,1.9,1.5c1-0.1,1.7-0.8,1.7-1.8
		C189.7,57.7,189.7,57.6,189.7,57.5z M186.8,53.2c-0.6,0-1.1-0.5-1.1-1c0-0.6,0.5-1.1,1.1-1.1s1.1,0.5,1.1,1.1
		C187.9,52.7,187.4,53.2,186.8,53.2z"/>
</g>
<g>
	<path class="st1" d="M170.8,49.2c-0.9-0.9-2.5-0.5-2.9,0.7c-0.7,1.8-1.3,3.6-2,5.4c-0.1,0.3-0.2,0.7-0.2,1c0.1,0.9,1,1.6,1.9,1.5
		c0.8-0.1,1.3-0.5,1.6-1.2c0.7-1.8,1.3-3.6,2-5.4c0.1-0.2,0.2-0.5,0.2-0.7C171.3,50,171.1,49.6,170.8,49.2z M169.5,51.6
		c-0.6,0-1-0.5-1-1.1s0.5-1,1.1-1s1.1,0.5,1,1.1C170.6,51.1,170.1,51.6,169.5,51.6z"/>
	<circle class="st1" cx="169.5" cy="50.5" r="0.5"/>
</g>
<path class="st1" d="M63.9,20.4c0.1,0,0.1,0,0.1,0.1c0.1,0.3,0.5,0.6,0.9,0.5c0.4,0,0.8-0.4,0.9-0.8c0-0.4-0.2-0.8-0.6-0.9
	s-0.9,0.1-1.1,0.5c0,0.1-0.1,0.1-0.2,0.1c-2.1,0-4.2,0-6.3,0l0,0c0,0-0.1,0-0.1-0.1c-0.1-0.1-0.1-0.2-0.1-0.2
	c-0.1-0.1-0.1-0.1,0-0.2c0.3-1,0.8-2.1,1.3-3c1.1-2.1,2.4-4,3.9-5.7c0.3-0.3,0.6-0.7,0.9-1c-1.5-0.8-2.9-2-4-3.4
	c0.1,0,0.2-0.1,0.3-0.1c0.5-0.2,0.9-0.5,1.3-0.9c0.6-0.7,0.6-1.5,0-2.2c-0.2-0.2-0.5-0.4-0.8-0.6c-0.8-0.4-1.6-0.6-2.5-0.7
	c-0.6-0.1-1.3-0.1-1.9,0c-0.7,0.1-1.5,0.2-2.2,0.5c-0.5,0.2-0.9,0.5-1.3,0.9c-0.5,0.6-0.6,1.4-0.1,2c0.2,0.3,0.5,0.5,0.8,0.6
	c0.3,0.2,0.6,0.3,0.8,0.4c-1.1,1.4-2.4,2.6-4,3.6c0,0.1,0.1,0.2,0.2,0.3c0,0,0,0,0,0.1c1,1.2,1.9,2.4,2.8,3.7c0.9,1.3,1.8,2.6,2.5,4
	c0.3,0.5,0.5,1,0.7,1.6c0,0.1,0,0.1,0,0.1c-0.1,0.1-0.2,0.2-0.2,0.3c0,0,0,0.1-0.1,0.1c-0.9,0-1.8-0.1-2.6-0.3
	c-0.9-0.3-1.7-0.7-2.4-1.4c-0.7-0.7-1.1-1.5-1.4-2.4C49.1,14.9,49,14,49,13c0-0.1,0-0.1,0.1-0.1c0.4-0.2,0.6-0.7,0.5-1.2
	c-0.2-0.5-0.7-0.7-1.2-0.5s-0.7,0.7-0.5,1.2c0.1,0.3,0.3,0.4,0.6,0.5c0,0,0,0,0,0.1c0,0.3,0,0.6,0,0.9c0,0.9,0.2,1.7,0.5,2.5
	c0.5,1.5,1.4,2.6,2.8,3.3c0.2,0.1,0.4,0.2,0.6,0.3l0,0c-0.9,0-1.8,0-2.7,0c-0.1,0-0.1,0-0.1-0.1c-0.2-0.3-0.4-0.5-0.8-0.5
	c-0.4,0-0.9,0.3-0.9,0.7c-0.1,0.5,0.2,0.9,0.6,1c0.4,0.1,0.9-0.1,1.1-0.5c0-0.1,0.1-0.1,0.1-0.1c2,0,4.1,0,6.1,0
	c0.1,0,0.1,0,0.1,0.1c0.2,0.3,0.4,0.5,0.8,0.5c0.4,0,0.6-0.1,0.8-0.5c0-0.1,0.1-0.1,0.1-0.1c0.1,0,0.3,0,0.4,0.1
	c1.1,0.2,2.1,0.5,3.1,1c0.9,0.4,1.6,1,2.2,1.8c0.6,0.8,1,1.7,1.2,2.6c0,0.1,0,0.2-0.1,0.2c-0.3,0.2-0.5,0.6-0.4,1s0.5,0.6,0.9,0.6
	s0.8-0.3,0.9-0.7c0.1-0.4-0.1-0.8-0.5-1c-0.2-0.1-0.2-0.2-0.3-0.4c-0.3-1.5-1-2.7-2.1-3.7c-0.8-0.7-1.8-1.2-2.8-1.5
	c-0.1,0-0.2-0.1-0.3-0.1h0.1C61.1,20.4,62.5,20.4,63.9,20.4z M56.8,12L56.8,12c-0.1,2.4-0.1,4.8-0.1,7.2c-0.1,0-0.1,0-0.2,0
	c0-2.4,0-4.8,0-7.2c-0.1,0-0.1,0-0.2,0c-0.5-0.1-0.7-0.4-0.8-0.8c-0.1-0.5,0.1-1,0.6-1.2c0.1,0,0.1,0,0.2,0c0.1,0,0.3,0,0.4,0
	c0.3,0,0.5,0.1,0.7,0.3c0.3,0.4,0.4,1.1,0,1.4C57.2,11.9,57,11.9,56.8,12z"/>
<g>
	<path class="st1" d="M56.2,49.9c0.2-0.3,0.4-0.5,0.6-0.7c0.7-0.8,1.6-1.2,2.6-1.5c1.1-0.3,2.2-0.3,3.3,0c1.6,0.5,2.6,1.6,3.1,3.2
		c0.2,0.6,0.3,1.3,0.3,2c0.1,2.2-0.6,4.1-1.8,5.9c-1.1,1.6-2.5,2.8-4,3.9c-1.2,0.8-2.4,1.5-3.7,2.1c-0.3,0.1-0.5,0.1-0.8,0
		c-1.6-0.7-3.2-1.6-4.6-2.7c-1.4-1.1-2.7-2.5-3.6-4c-0.6-1-1-2.1-1.2-3.3c-0.1-0.8-0.1-1.6-0.1-2.4c0.1-0.6,0.1-1.1,0.4-1.7
		c0.6-1.5,1.8-2.5,3.4-2.9c0.8-0.2,1.6-0.2,2.5,0c0.8,0.2,1.5,0.4,2.2,0.8C55.3,48.8,55.8,49.3,56.2,49.9L56.2,49.9z"/>
</g>
<g>
	<path class="st1" d="M95.7,56.4C95.7,56.3,95.7,56.3,95.7,56.4c0-2.3,0-4.5,0-6.7c0-0.1,0-0.1,0.1-0.1c1.5-0.4,3-1,4.4-1.7
		c0.9-0.4,1.7-0.9,2.5-1.4c0.3-0.2,0.6-0.1,0.9,0.1c0.3,0.3,0.4,0.7,0.4,1.1c0,2.9,0,5.9,0,8.8c0,0.6,0,1.1,0,1.7
		c0,0.4-0.1,0.8-0.4,1c-0.2,0.3-0.6,0.3-0.9,0.1c-1.2-0.8-2.5-1.5-3.9-2.1c-0.8-0.3-1.6-0.6-2.4-0.8C96.1,56.4,95.9,56.4,95.7,56.4z
		"/>
	<path class="st1" d="M94.8,49.5c0,2.5,0,4.9,0,7.4h-0.1c-1.3,0-2.6,0-3.9,0c-1,0-1.8-0.4-2.5-1c-0.6-0.6-1-1.3-1.1-2.2
		c-0.1-1,0.1-2,0.8-2.8c0.6-0.8,1.4-1.2,2.4-1.4c0.2,0,0.3,0,0.5,0C92.1,49.5,93.4,49.5,94.8,49.5C94.7,49.5,94.8,49.5,94.8,49.5z"
		/>
	<path class="st1" d="M91.4,57.9c1.1,0,2.2,0,3.4,0V58c0,1.5,0,2.9,0,4.4c0,0.6-0.2,1.2-0.5,1.7c-0.2,0.3-0.5,0.5-0.8,0.6
		c-0.5,0.1-0.9,0-1.2-0.4c-0.4-0.4-0.6-0.9-0.7-1.4c0-0.2,0-0.4,0-0.6c0-1.4,0-2.9,0-4.3C91.4,57.9,91.4,57.9,91.4,57.9z"/>
	<path class="st1" d="M104.8,55.2c0-1.5,0-3,0-4.5l0,0c0.4,0,0.7,0,1.1,0c0.3,0,0.6,0.3,0.6,0.6c0,1.1,0,2.2,0,3.3
		c0,0.3-0.3,0.6-0.6,0.6C105.5,55.3,105.2,55.3,104.8,55.2C104.8,55.3,104.8,55.2,104.8,55.2z"/>
</g>
<path class="st1" d="M28.1,54.1c1.4,0.8,1.4,2.8,0,3.6l-8.8,5.1l-8.8,5.1c-1.4,0.8-3.1-0.2-3.1-1.8V55.9V45.8c0-1.6,1.7-2.6,3.1-1.8
	l8.8,5.1L28.1,54.1z"/>
<circle class="st0" cx="258.9" cy="16.3" r="16"/>
<circle class="st0" cx="299.6" cy="16.2" r="16"/>
<circle class="st0" cx="259" cy="55.8" r="16"/>
<circle class="st0" cx="299.4" cy="55.3" r="16"/>
<path class="st1" d="M268.5,24.3c-6.6,0-13.1,0-19.7,0c-0.3-1-0.3-1.7,0.5-2.4c1.5-1.5,1.8-3.5,2-5.5c0.1-1.1,0.1-2.2,0.1-3.3
	c0-2.6,1.1-4.5,3.1-6c1-0.7,1.5-1.5,1.6-2.7c0.1-1.6,1.2-2.4,2.5-2.4c1.4,0,2.5,0.7,2.6,2.1c0.1,1.5,0.8,2.4,1.9,3.2
	c1.9,1.4,2.9,3.3,2.9,5.7c0,2-0.2,4.1,0.6,6.1c0.4,0.9,0.8,1.9,1.4,2.7C268.7,22.6,269,23.3,268.5,24.3z"/>
<path class="st1" d="M255.6,25.4c2.1,0,4.1,0,6.2,0c0,1.7-1.1,2.7-3.1,2.7C256.8,28.1,255.6,27.2,255.6,25.4z"/>
<path class="st1" d="M259.1,43.1c3.7-0.4,6.4,1.2,8.4,4.1c1.4,2,1.5,4.2,0.4,6.3c-0.5,1.1-0.5,1.7,0.4,2.5c3.5,2.9,2.7,8.2-0.7,10.9
	c-3.8,3-11.4,3.3-15.1,0.3c-2.1-1.7-3.6-3.6-3.5-6.5c0.1-3.8,0-7.7,0-11.5c0-1.1,0.3-1.8,1.1-2.5C252.7,44.2,255.5,42.7,259.1,43.1z
	 M255.8,58.9c0,0.7,0,1.4,0,2.1c0,1.1,0.5,1.9,1.4,2.4c1.4,0.8,2.9,1.2,4.6,0.4c1.6-0.8,2.4-1.8,2.4-3.1c-0.1-1.3-1.1-2.3-2.8-2.7
	c-0.8-0.2-1.7-0.1-2.5-0.2c-1.2-0.2-2.2-1.3-2.1-2.4c0-1.1,0.8-1.9,2.1-2.2c1-0.2,2.1-0.3,3-0.7c1.3-0.6,1.5-2,0.8-3.2
	c-0.8-1.1-2.8-1.8-4.1-1.4c-1.8,0.5-2.6,1.4-2.6,3.3C255.8,53.8,255.8,56.4,255.8,58.9z"/>
<path class="st1" d="M307.1,47.1c0.9-0.3,1.8-0.7,1.5-1.8c-0.3-1-1.2-0.7-2-0.7c-0.1,0-0.1,0-0.2,0c-4.7,0-9.4,0-14,0
	c-0.4,0-0.8-0.1-1.1,0c-0.4,0.1-0.9,0.4-1,0.7c-0.1,0.4,0.1,1,0.4,1.3s0.9,0.5,1.5,0.8c-0.2,0.4-0.3,0.7-0.4,0.9
	c-1,1.1-1.1,2.3-0.7,3.8c0.6,2.4,0.9,4.8,1.4,7.2c0.6,2.8,1.2,5.6,1.8,8.5c0.2,1,0.7,1.4,1.7,1.3c2.1-0.1,4.2,0,6.4,0
	c2,0,2,0,2.4-1.9c1-4.7,1.8-9.4,2.9-14.1c0.4-1.9,0.5-3.6-0.8-5.2c-0.1-0.1,0-0.2,0-0.4C306.9,47.3,307,47.1,307.1,47.1z M302.1,65
	c-0.6,0.7-1.2,1.4-1.8,2c-0.8,0.8-1.3,0.8-2.1,0.1c-0.6-0.6-1.3-1.3-1.7-2c-0.4-0.7-0.7-1.7-0.6-2.5c0.5-3.6,1.1-7.2,1.7-10.8
	l0.4-2.6c0-0.2,0-0.5-0.2-0.7l-0.4-0.6c-0.4-0.6,0-1.4,0.6-1.5c0.7-0.1,1.3-0.1,2,0s1.1,0.8,0.7,1.4l-0.6,0.9
	c-0.1,0.2-0.2,0.5-0.1,0.7l1.5,6.3c0,0,0,0,0,0.1c0.3,2.3,0.8,4.5,1.2,6.8C302.9,63.5,302.7,64.3,302.1,65z"/>
<path class="st1" d="M290.4,26c0-0.7,0-1.4,0-2.1c0.1-1.4,0.3-2.8,0.4-4.2c0-0.7-0.1-1.4-0.3-2c-1.9-4.4,0.2-8.9,3.7-10.8
	c1.4-0.7,2.7-1,4.1-1c1.3,0,2.6,0,3.9,0c3.6-0.1,5.9,1.8,7.8,4.7c1.2,1.9,1.3,4,0.7,5.8c-0.7,2.4-2.3,4.4-4.8,5.5
	c-1.7,0.7-3.5,1.1-5.4,0.9c-3.2-0.5-5.5,1.2-7.9,2.8C291.9,26.1,291.4,26.2,290.4,26z"/>
<circle class="st0" cx="340.5" cy="16.3" r="16"/>
<path class="st0" d="M324,71.1h22.6c4.8,0,8.6-3.9,8.6-8.6V48c0-4.8-3.9-8.6-8.6-8.6H324V71.1z"/>
<path class="st1" d="M342.4,58.3c-3.9,3.2-9.2,2.4-12-1c-2.7-3.2-2.7-7.8,0-11c2.9-3.5,7.8-3.9,11.3-1.6c3.6,2.5,4.9,7.4,2.5,11.5
	c0.1,0,0.2,0.1,0.2,0.1c2.2,2.2,4.3,4.3,6.5,6.5c0.5,0.5,0.6,1.2,0.3,1.8c-0.4,0.7-1.4,0.9-2,0.4c-0.1-0.1-0.2-0.2-0.3-0.2
	c-2.1-2.1-4.2-4.2-6.2-6.2C342.5,58.4,342.5,58.3,342.4,58.3z M336.9,57c2.9,0,5.3-2.4,5.3-5.3c0-2.9-2.4-5.3-5.3-5.3
	s-5.3,2.4-5.3,5.3C331.6,54.7,334,57,336.9,57z"/>
<circle class="st1" cx="341.2" cy="12.5" r="6.3"/>
<path class="st1" d="M336,17.7c1.2,1.4,3,2.3,4.8,2.2c0,0,1.4,0.5,5.3-2.1c2.8,1.7,4.8,4.6,5.2,7.9c0,0-2.5,4.9-10.7,5.5
	c0,0-7.2-0.7-10.2-5.2C330.6,26.2,331.3,20,336,17.7z"/>
</svg>
