<?xml version="1.0" encoding="utf-8"?>
<!-- Generator: Adobe Illustrator 21.0.0, SVG Export Plug-In . SVG Version: 6.00 Build 0)  -->
<svg version="1.1" id="Layer_1" xmlns="http://www.w3.org/2000/svg" xmlns:xlink="http://www.w3.org/1999/xlink" x="0px" y="0px"
	 viewBox="0 0 356.8 71.9" style="enable-background:new 0 0 356.8 71.9;" xml:space="preserve">
<style type="text/css">
	.st0{fill:#2296E0;}
	.st1{fill:#FFFFFF;}
</style>
<title>iconos32</title>
<circle class="st0" cx="56.6" cy="16.2" r="16"/>
<circle class="st0" cx="97.1" cy="16" r="16"/>
<circle class="st0" cx="137.6" cy="16.1" r="16"/>
<circle class="st0" cx="177.8" cy="16.1" r="16"/>
<circle class="st0" cx="218.5" cy="16" r="16"/>
<circle class="st0" cx="16" cy="55.7" r="16"/>
<circle class="st0" cx="56.6" cy="55.6" r="16"/>
<circle class="st0" cx="97" cy="55.6" r="16"/>
<circle class="st0" cx="137.5" cy="55.6" r="16"/>
<circle class="st0" cx="178" cy="55.6" r="16"/>
<circle class="st0" cx="218.5" cy="55.6" r="16"/>
<circle class="st0" cx="16.1" cy="16.1" r="16"/>
<path class="st1" d="M13.9,15.8H7.4c-1,0-1.8-0.8-1.8-1.8c0,0,0,0,0,0V7.6c0-1,0.8-1.8,1.8-1.8c0,0,0,0,0,0h6.5c1,0,1.8,0.8,1.8,1.8
	c0,0,0,0,0,0v6.5C15.6,15,14.8,15.7,13.9,15.8z"/>
<path class="st1" d="M24.4,15.8h-6.1c-1,0-1.9-0.9-1.9-1.9V7.7c0-1,0.9-1.9,1.9-1.9h6.1c1,0,1.9,0.9,1.9,1.9v6.1
	c0.1,1-0.7,1.9-1.7,2C24.5,15.8,24.5,15.8,24.4,15.8z"/>
<path class="st1" d="M13.5,26.4H7.8c-1.2,0-2.1-0.9-2.1-2.1v-5.7c0-1.2,0.9-2.1,2.1-2.1h5.7c1.2,0,2.1,0.9,2.1,2.1v5.7
	c0,1.1-0.9,2.1-2,2.1C13.6,26.4,13.5,26.4,13.5,26.4z"/>
<path class="st1" d="M24,26.4h-5.3c-1.3,0-2.3-1-2.3-2.3v-5.3c0-1.2,1-2.3,2.2-2.3c0,0,0.1,0,0.1,0H24c1.3,0,2.3,1,2.3,2.3v5.3
	c0.1,1.2-0.9,2.2-2.1,2.3C24.1,26.4,24.1,26.4,24,26.4z"/>
<path class="st1" d="M136.9,24.4c-0.8,0-1.6-0.2-2.3-0.4c-1.3-0.4-2.4-1.1-3.4-2c-1.2-1.2-2-2.6-2.4-4.2c-0.2-0.6-0.2-1.2-0.2-1.8
	c0-0.1,0-0.2-0.2-0.2c-0.7-0.3-1.1-1-1-1.7c0.1-0.7,0.7-1.3,1.4-1.5c0.9-0.2,1.7,0.4,1.9,1.3c0,0.1,0,0.2,0,0.4
	c0,0.7-0.5,1.4-1.2,1.6h-0.1c0,4.3,3.5,7.8,7.9,7.8c4.3,0,7.8-3.5,7.8-7.8c-0.5-0.2-0.9-0.5-1.1-1c-0.2-0.3-0.2-0.7-0.1-1.1
	c0.2-0.7,0.9-1.2,1.7-1.2c0.9,0,1.6,0.7,1.7,1.6c0,0.8-0.6,1.5-1.4,1.6v0.6c-0.1,1-0.4,2.1-0.8,3c-0.8,1.7-2.1,3.1-3.8,3.9
	c-0.9,0.5-1.9,0.8-3,0.9h-0.4c-0.1,0-0.1,0-0.1,0.1c0,0,0,0,0,0v1.9h3.8c0.3,0,0.6,0.3,0.6,0.6s-0.3,0.6-0.6,0.6h-8.8
	c-0.3,0-0.6-0.2-0.6-0.5s0.2-0.6,0.5-0.6h4.1C136.9,25.7,136.9,25,136.9,24.4z"/>
<path class="st1" d="M133.9,4.4v1.8c0,0.3,0.2,0.6,0.5,0.7c0.4,0,0.7-0.2,0.7-0.6V3.6c0.5-0.2,1-0.4,1.5-0.5v4.5
	c0,0.3,0.3,0.6,0.6,0.6c0.3,0,0.6-0.3,0.6-0.6V3.1c0.2,0,0.3,0.1,0.5,0.1c0.3,0.1,0.7,0.2,1,0.4c0.1,0,0.1,0,0.1,0.1c0,0,0,0,0,0
	v2.6c0,0.3,0.2,0.6,0.6,0.6c0,0,0,0,0,0c0.3,0,0.6-0.3,0.6-0.6V4.5l0,0v0.1c0.4,0.5,0.8,1,1,1.6c0.2,0.4,0.3,0.8,0.3,1.3
	c0,0.3,0.1,0.5,0.1,0.8v3.9h-0.1v2.9c0,0.6,0,1.2-0.1,1.8c-0.1,0.9-0.5,1.7-1.1,2.4c-0.8,1-2,1.6-3.2,1.6c-1.4,0.1-2.8-0.3-3.9-1.2
	c-0.9-0.8-1.4-1.8-1.5-3c0-0.5,0-1.1-0.1-1.6V9.7c0-0.7,0-1.3,0.1-2c0-0.7,0.1-1.3,0.4-1.9c0.2-0.4,0.5-0.8,0.8-1.2
	C133.8,4.5,133.8,4.5,133.9,4.4z"/>
<path class="st1" d="M227.5,61.8V47.5c0-0.1,0-0.1-0.1-0.1c-0.7-0.1-1.5-0.2-2.2-0.2c-1,0-2,0-3,0.2c-1.1,0.2-2.2,0.5-3.2,1
	c-0.1,0-0.1,0-0.1,0.1v0v14.3c1.4-0.4,2.8-0.7,4.2-0.8C224.6,61.7,226,61.7,227.5,61.8z M210,61.8c2.9-0.2,5.7,0.2,8.5,1V48.5
	c0-0.1,0-0.1-0.1-0.1c-1.7-0.8-3.5-1.2-5.4-1.2c-0.8,0-1.6,0-2.4,0.1c-0.2,0-0.4,0.1-0.6,0.1V61.8z M209.4,49h-0.8
	c-0.2,0-0.2,0-0.2,0.2v13.4c0,0.2,0,0.2,0.2,0.2h7.7c-0.3,0-0.5-0.1-0.8-0.1c-1-0.2-2.1-0.3-3.1-0.4h-2.6c-0.3-0.1-0.4-0.3-0.4-0.6
	V49z M221.1,62.8h7.8c0.2,0,0.2,0,0.2-0.2V49.1c0-0.1-0.1-0.2-0.2-0.2H228v12.8c0,0.3-0.3,0.6-0.6,0.6c-1.1,0-2.3,0-3.4,0.1
	l-2.2,0.3C221.6,62.7,221.3,62.8,221.1,62.8L221.1,62.8z"/>
<path class="st1" d="M224.8,21.3V5.6c0-0.6-0.3-1.1-0.9-1.3c-0.1,0-0.2-0.1-0.3-0.1h-10.4c-0.1,0.1-0.3,0.1-0.4,0.2
	c-0.3,0.1-0.5,0.3-0.6,0.6c-0.1,0.2-0.1,0.5-0.1,0.7v20.1c0,0.6,0.3,1.2,0.9,1.4c0.2,0.1,0.4,0.1,0.6,0.1h10c0.1,0,0.2-0.1,0.3-0.1
	c0.3-0.1,0.6-0.4,0.7-0.7c0.1-0.2,0.1-0.5,0.1-0.7C224.8,24.2,224.8,22.8,224.8,21.3z M217.3,6h2.4c0.1,0,0.3,0.1,0.3,0.2
	s-0.1,0.3-0.2,0.3h-2.6c-0.1,0-0.3-0.1-0.3-0.2c0,0,0,0,0-0.1C217,6.1,217.1,6,217.3,6z M218.6,25.7c-0.4,0-0.6-0.3-0.6-0.7
	c0-0.4,0.3-0.7,0.7-0.7c0,0,0,0,0,0c0.4,0,0.6,0.3,0.6,0.7C219.2,25.4,219,25.6,218.6,25.7z M223.6,23.2c0,0.2-0.3,0.4-0.5,0.4h-9.4
	c-0.2,0-0.4-0.1-0.5-0.3V7.9c0-0.1,0.1-0.3,0.2-0.3c0,0,0,0,0.1,0h9.7c0.2,0,0.3,0.1,0.4,0.4V23.2z"/>
<path class="st1" d="M187.6,16.1c-0.1,0-0.1,0-0.1-0.1c0,0,0,0,0,0l-5.9-5.9c-0.3-0.3-0.4-0.8-0.1-1.2c0.3-0.4,0.9-0.4,1.3-0.1
	l0.1,0.1l6.6,6.6c0.4,0.3,0.4,0.8,0.1,1.2c0,0-0.1,0.1-0.1,0.1c-2.2,2.2-4.4,4.4-6.5,6.6c-0.3,0.3-0.9,0.4-1.2,0.1
	c-0.1-0.1-0.2-0.2-0.2-0.3c-0.2-0.3-0.1-0.8,0.2-1l5.9-5.9C187.5,16.1,187.5,16.1,187.6,16.1z"/>
<path class="st1" d="M166.9,16.1l0.1,0.1l5.9,5.9c0.2,0.2,0.3,0.6,0.2,0.9c-0.1,0.3-0.4,0.5-0.7,0.6c-0.3,0.1-0.6,0-0.8-0.2
	l-5.1-5.1l-1.6-1.6c-0.3-0.2-0.4-0.7-0.1-1.1c0-0.1,0.1-0.1,0.1-0.1l6.6-6.6c0.2-0.2,0.6-0.3,0.9-0.2c0.3,0.1,0.5,0.4,0.6,0.7
	c0.1,0.3,0,0.6-0.3,0.8l-2.6,2.6l-3.3,3.3H166.9z"/>
<path class="st1" d="M179.5,6.6c0.6,0,1,0.5,0.9,1.1c0,0,0,0.1,0,0.1c-0.5,1.7-1,3.4-1.5,5.2c-0.8,2.9-1.6,5.8-2.4,8.6
	c-0.3,1.2-0.7,2.4-1,3.6c-0.1,0.4-0.5,0.7-0.9,0.7c-0.4,0-0.7-0.3-0.8-0.7v-0.5c0.3-1,0.6-2.1,0.9-3.1c0.9-3.1,1.7-6.2,2.6-9.2
	c0.5-1.7,0.9-3.3,1.4-5C178.8,6.9,179.1,6.6,179.5,6.6z"/>
<path class="st1" d="M142.6,63.1v3.8c0,0.1-0.1,0.2-0.2,0.3h-11c-0.7,0-1.3-0.5-1.5-1.2V48.6c0.2-0.3,0.6-0.6,1-0.7h1.7v-3.3
	c0.2-0.3,0.4-0.5,0.7-0.7c0.2-0.1,0.4-0.1,0.6-0.1h10.9c0.2,0,0.4,0.1,0.4,0.3c0,0,0,0,0,0.1c0,0.2-0.1,0.3-0.3,0.3H134
	c-0.2,0-0.4,0-0.6,0.2c-0.2,0.1-0.3,0.3-0.3,0.5c0,0.2,0,0.4,0.2,0.5c0.2,0.2,0.4,0.2,0.6,0.2h11c0.2,0,0.4,0.1,0.4,0.3
	c0,0,0,0,0,0.1V63c-0.1,0.1-0.2,0.2-0.3,0.2h-2.3C142.7,63.1,142.7,63.1,142.6,63.1z"/>
<path class="st1" d="M139.6,45.4h-5.4c-0.2,0-0.4-0.1-0.4-0.3c0-0.1,0.1-0.3,0.2-0.3c0,0,0,0,0.1,0H145c0.1,0,0.3,0.1,0.3,0.2
	c0,0,0,0,0,0.1c0,0.2-0.1,0.3-0.3,0.4h-0.1C143.3,45.4,141.4,45.4,139.6,45.4z"/>
<path class="st1" d="M101.3,12.8h1.6c0.7,0.1,1.3,0.7,1.3,1.4v1.3c0.2-0.1,0.3-0.2,0.5-0.3c1.3-0.7,2.6-1.5,3.8-2.2
	c0.1,0,0.1-0.1,0.2-0.1s0.4,0.1,0.4,0.3V23c0,0.4-0.3,0.5-0.6,0.3c-1.4-0.8-2.9-1.6-4.3-2.5c-0.1,0-0.1,0-0.1-0.1V22
	c0,0.8-0.6,1.4-1.4,1.4c0,0-0.1,0-0.1,0H87.1c-0.8,0-1.4-0.6-1.4-1.3c0,0,0,0,0-0.1v-7.9c0-0.8,0.6-1.4,1.4-1.5h1.2
	c-1.5-1-2.2-2.8-1.8-4.5c0.2-1.2,0.9-2.3,2-2.9c2-1.3,4.7-0.7,6,1.3c0.1,0.2,0.2,0.4,0.3,0.6c0.8-1.8,2.7-2.9,4.7-2.5
	c1.7,0.2,3.1,1.5,3.5,3.2C103.6,9.7,102.9,11.7,101.3,12.8z M93.3,12.8h3.1c-0.7-0.5-1.2-1.1-1.6-1.9C94.5,11.7,94,12.3,93.3,12.8z"
	/>
<path class="st1" d="M176.6,51.8c-0.1,0-0.1-0.1-0.2-0.1s-0.4-0.1-0.6-0.1c-0.4-0.1-0.8-0.1-1.2-0.2c-0.7-0.1-1.4-0.2-2.1-0.2
	c-0.1,0-0.1,0-0.1,0.1c-0.7,2-1.4,3.9-2.1,5.9c-0.1,0.2-0.1,0.3-0.2,0.5c0.2,0.1,0.4,0.2,0.5,0.4V58c0.2-0.2,0.3-0.5,0.5-0.7
	s0.3-0.3,0.4-0.5s0.3-0.2,0.6-0.2c0.4,0,0.8,0.1,1,0.4c0.1,0.1,0.2,0.2,0.3,0.4c0.4-0.1,0.8-0.1,1.2,0.1c0.4,0.2,0.6,0.5,0.7,0.9
	c0.8,0,1.6,0.6,1.7,1.4c0.1,0,0.2,0.1,0.3,0.1c0.3,0.1,0.6,0.3,0.8,0.6c0.2,0.4,0.2,0.9-0.1,1.2c-0.1,0.1-0.1,0.2-0.2,0.2
	c-0.3,0.3-0.5,0.7-0.7,1l0.1,0.1c0.5,0.4,1.1,0.8,1.6,1.2c0.2,0.1,0.3,0.3,0.5,0.4s0.2,0.1,0.4,0.2c0.2,0,0.4-0.1,0.5-0.3
	c0.1-0.2,0-0.4-0.1-0.6c-0.3-0.3-0.6-0.5-0.9-0.8c-0.3-0.2-0.5-0.4-0.7-0.7c-0.2-0.2-0.2-0.3,0-0.5s0.4-0.2,0.6-0.1l0.3,0.3
	c0.6,0.5,1.2,1,1.7,1.5c0.2,0.2,0.5,0.2,0.7,0.1c0.3-0.1,0.5-0.4,0.5-0.8c0,0,0-0.1-0.1-0.1c-0.1-0.1-0.1-0.2-0.2-0.2
	c-0.5-0.4-0.9-0.8-1.4-1.2c-0.2-0.2-0.4-0.3-0.6-0.5s-0.2-0.4,0-0.5l0.3-0.3l0.1,0.1l0.3,0.3c0.5,0.5,1.1,1,1.7,1.4
	c0.3,0.2,0.5,0.5,0.8,0.7c0.3,0.2,0.7,0.2,0.9-0.1c0,0,0,0,0,0c0.2-0.3,0.1-0.6-0.1-0.8c-0.7-0.6-1.4-1.2-2.1-1.9
	c-0.2-0.2-0.5-0.4-0.7-0.6c0.1-0.1,0.1-0.2,0.2-0.3c0.1-0.2,0.4-0.2,0.6-0.1l2.4,2.1c0.1,0.1,0.3,0.2,0.4,0.3
	c0.3,0.1,0.6-0.1,0.7-0.3c0-0.1,0-0.1,0-0.2c0-0.2-0.1-0.3-0.2-0.4c-0.2-0.3-0.4-0.5-0.7-0.7c-0.5-0.4-0.9-0.8-1.3-1.3l-2.1-2.1
	l-0.7-0.7l-1.1-1.1H178c-0.1,0-0.1,0.2-0.1,0.2c-0.3,0.5-0.5,1-0.8,1.4c-0.1,0.2-0.2,0.3-0.4,0.4c-0.2,0.1-0.4,0.2-0.5,0.4
	c-0.6,0.5-1.5,0.4-2-0.1c-0.1-0.1-0.2-0.3-0.1-0.5c0-0.1,0.1-0.1,0.1-0.2c0.5-1.2,0.9-2.4,1.4-3.7c0.1-0.2,0.3-0.4,0.5-0.5
	C176.3,51.9,176.4,51.9,176.6,51.8z M174.5,56.5L174.5,56.5c0.1,0.1,0.1,0.1,0.2,0.1c0.4,0.2,0.8,0.1,1.1-0.1
	c0.2-0.1,0.3-0.2,0.4-0.3l0.3-0.3c0.3-0.6,0.6-1.1,0.9-1.7c0.1-0.2,0.2-0.2,0.4-0.2h1.2c0.3,0,0.5,0.1,0.7,0.3l0,0l1.9,1.9l2.2,2.2
	l0.9,0.9h0.1c0.1,0,0.1,0,0.2-0.1c0.2-0.1,0.4-0.2,0.6-0.2v-0.1c-0.1-0.5-0.2-1.1-0.3-1.6l-0.9-4.5c0-0.1,0-0.1-0.1-0.1
	s-0.5-0.2-0.7-0.3c-0.8-0.4-1.7-0.7-2.6-0.9c-0.5-0.1-0.9-0.1-1.4,0c-0.6,0.2-1.2,0.3-1.9,0.5c-0.3,0.1-0.6,0.2-1,0.3
	s-0.5,0.2-0.8,0.3c-0.1,0-0.1,0-0.1,0.1v0C175.4,54,175,55.3,174.5,56.5z M173.1,60.7c0.1,0,0.2,0,0.3-0.2l0.6-0.9
	c0.2-0.3,0.4-0.5,0.6-0.8c0.1-0.1,0.1-0.3,0-0.4c-0.2-0.3-0.4-0.5-0.7-0.5c-0.2-0.1-0.4,0-0.5,0.2c0,0,0,0,0,0l-0.9,1.2
	c-0.1,0.2-0.2,0.4-0.4,0.5V60C172.3,60.4,172.7,60.6,173.1,60.7z M176.4,59.7c0-0.1,0-0.2-0.1-0.2s-0.1-0.2-0.2-0.3
	s-0.4-0.2-0.6-0.3s-0.3,0-0.4,0.2s-0.1,0.1-0.1,0.2c-0.4,0.5-0.8,1-1.1,1.6V61c0,0.1,0,0.2,0.1,0.2c0.2,0.3,0.5,0.5,0.8,0.6
	c0.1,0,0.3,0,0.3-0.2c0.2-0.3,0.4-0.6,0.7-0.9c0.2-0.3,0.4-0.5,0.6-0.8C176.3,59.9,176.3,59.8,176.4,59.7z M177.6,61.1L177.6,61.1
	c-0.1-0.2-0.2-0.4-0.3-0.5c-0.2-0.1-0.4-0.2-0.6-0.2c-0.1,0-0.1,0-0.1,0.1v0c-0.4,0.6-0.8,1.1-1.2,1.7c-0.1,0.1-0.1,0.2,0,0.3
	c0,0,0,0,0,0c0.2,0.3,0.4,0.5,0.7,0.5s0.3,0,0.4-0.1c0.4-0.5,0.7-1.1,1.1-1.6L177.6,61.1z M171.5,59.5c0.1,0,0.1,0,0.2-0.1
	c0.1-0.2,0.2-0.4,0.4-0.5c0.2-0.3,0.5-0.7,0.7-1c0.1-0.1,0.1-0.2,0-0.3c0,0,0,0,0,0c-0.1-0.3-0.4-0.5-0.7-0.5c-0.1,0-0.2,0-0.3,0.1
	c-0.3,0.3-0.5,0.7-0.7,1c-0.1,0.2-0.2,0.4-0.4,0.5c-0.1,0.1-0.1,0.1,0,0.2c0,0,0,0,0,0C170.8,59.2,171.1,59.5,171.5,59.5z"/>
<circle class="st1" cx="187.1" cy="52.2" r="0.5"/>
<path class="st1" d="M190,57.6c-0.2-1-0.4-1.9-0.6-2.9s-0.4-1.9-0.6-2.9c-0.1-0.7-0.6-1.2-1.3-1.4c-0.6-0.2-1.3,0-1.8,0.5
	c-0.4,0.4-0.5,0.9-0.4,1.4c0.1,0.7,0.3,1.5,0.5,2.2c0.3,1.2,0.5,2.4,0.8,3.6c0.2,0.9,1,1.5,1.9,1.5c1,0,1.7-0.8,1.7-1.8
	C190,57.8,190,57.7,190,57.6z M187.1,53.3c-0.6,0-1-0.4-1.1-1c0-0.6,0.5-1.1,1.1-1.1c0.6,0,1.1,0.5,1.1,1.1
	C188.1,52.9,187.7,53.3,187.1,53.3z"/>
<path class="st1" d="M171.1,49.3c-0.7-0.7-1.8-0.6-2.5,0.1c-0.2,0.2-0.3,0.4-0.4,0.6c-0.7,1.8-1.3,3.6-2,5.4c-0.1,0.3-0.2,0.7-0.2,1
	c0.1,0.9,1,1.6,1.9,1.5c0.7-0.1,1.3-0.5,1.6-1.2c0.7-1.8,1.3-3.6,2-5.4c0.1-0.2,0.2-0.5,0.2-0.7C171.6,50.1,171.4,49.7,171.1,49.3z
	 M169.8,51.7c-0.6,0-1-0.5-1-1.1s0.5-1,1.1-1c0.6,0,1,0.4,1,1c0,0,0,0.1,0,0.1C170.8,51.3,170.4,51.7,169.8,51.7z"/>
<circle class="st1" cx="169.8" cy="50.6" r="0.5"/>
<path class="st1" d="M64.2,20.5c0.1,0,0.1,0,0.1,0.1c0.1,0.4,0.5,0.6,0.9,0.5c0.4-0.1,0.8-0.4,0.9-0.8c0-0.4-0.2-0.8-0.6-0.9
	c-0.4-0.1-0.9,0.1-1.1,0.5c0,0.1-0.1,0.1-0.2,0.1h-6.3c-0.1,0-0.1,0-0.1-0.1c-0.1-0.1-0.1-0.1-0.1-0.2c-0.1-0.1-0.1-0.1,0-0.2
	c0.3-1,0.8-2,1.3-3c1.1-2.1,2.4-4,3.9-5.7c0.3-0.3,0.6-0.7,0.9-1c-1.6-0.8-2.9-2-4-3.4c0.1,0,0.2-0.1,0.3-0.1
	c0.5-0.2,0.9-0.5,1.3-0.9c0.6-0.6,0.6-1.6,0-2.2c-0.2-0.2-0.5-0.4-0.8-0.6C59.8,2.2,59,2,58.1,1.9c-0.6-0.1-1.3-0.1-1.9,0
	C55.4,2,54.7,2.1,54,2.4c-0.5,0.2-0.9,0.5-1.3,0.9c-0.5,0.5-0.6,1.4-0.1,2c0.2,0.3,0.5,0.5,0.8,0.6c0.3,0.2,0.5,0.3,0.8,0.4
	c-1.1,1.4-2.5,2.6-4,3.6c0,0.1,0.1,0.2,0.2,0.3v0.1c1,1.2,1.9,2.4,2.8,3.7c0.9,1.3,1.8,2.6,2.5,4c0.3,0.5,0.5,1,0.7,1.6v0.1
	c-0.1,0.1-0.2,0.2-0.2,0.3c0,0.1,0,0.1-0.1,0.1c-0.9,0-1.7-0.1-2.6-0.3c-0.9-0.3-1.7-0.7-2.4-1.4c-0.7-0.7-1.1-1.5-1.4-2.4
	c-0.3-0.9-0.4-1.9-0.4-2.9c0-0.1,0-0.1,0.1-0.1c0.4-0.2,0.6-0.7,0.5-1.2c-0.2-0.5-0.8-0.7-1.2-0.5c-0.4,0.2-0.6,0.7-0.5,1.2
	c0.1,0.3,0.3,0.4,0.6,0.5v1c0,0.9,0.2,1.7,0.5,2.5c0.4,1.4,1.4,2.6,2.8,3.3l0.6,0.3H50c-0.1,0-0.1,0-0.1-0.1
	c-0.1-0.3-0.5-0.5-0.8-0.5c-0.4,0-0.9,0.3-0.9,0.7c-0.1,0.4,0.2,0.9,0.6,1c0.4,0.1,0.9-0.1,1.1-0.5c0-0.1,0-0.1,0.1-0.1h6.1
	c0.1,0,0.1,0,0.1,0.1c0.1,0.3,0.5,0.5,0.8,0.5c0.4,0,0.7-0.2,0.8-0.5c0-0.1,0-0.1,0.1-0.1c0.1,0,0.3,0,0.4,0.1
	c1.1,0.2,2.1,0.5,3.1,1c0.9,0.4,1.6,1,2.2,1.8c0.6,0.8,1,1.7,1.2,2.6c0,0.1,0,0.2-0.1,0.2c-0.3,0.2-0.5,0.6-0.4,1
	c0.1,0.4,0.5,0.6,0.9,0.6c0.4,0,0.8-0.3,0.9-0.7c0.1-0.4-0.1-0.8-0.5-1c-0.2-0.1-0.2-0.2-0.3-0.4c-0.3-1.4-1-2.7-2.1-3.7
	c-0.8-0.7-1.8-1.2-2.8-1.5c-0.1,0-0.2-0.1-0.3-0.1H64.2z M57.1,12.1L57.1,12.1L57,19.3h-0.2v-7.2h-0.2c-0.4-0.1-0.7-0.4-0.8-0.8
	c-0.1-0.5,0.1-1,0.6-1.2H57c0.3,0,0.5,0.1,0.7,0.3c0.3,0.4,0.4,1.1,0,1.4C57.5,12,57.3,12,57.1,12.1z"/>
<path class="st1" d="M56.5,50c0.2-0.3,0.4-0.5,0.6-0.7c0.7-0.7,1.6-1.3,2.6-1.5c1.1-0.3,2.2-0.3,3.3,0c1.5,0.5,2.7,1.7,3.1,3.2
	c0.2,0.6,0.3,1.3,0.3,2c0.1,2.1-0.6,4.2-1.8,5.9c-1.1,1.5-2.5,2.8-4,3.9c-1.2,0.8-2.4,1.5-3.7,2.1c-0.3,0.1-0.5,0.1-0.8,0
	c-1.6-0.7-3.2-1.6-4.6-2.7c-1.4-1.1-2.6-2.5-3.6-4c-0.6-1-1-2.1-1.2-3.3c-0.1-0.8-0.1-1.6-0.1-2.4c0-0.6,0.2-1.2,0.4-1.7
	c0.6-1.5,1.9-2.6,3.4-2.9c0.8-0.2,1.7-0.2,2.5,0c0.8,0.2,1.5,0.4,2.2,0.8C55.7,49,56.2,49.4,56.5,50z"/>
<path class="st1" d="M96,56.5L96,56.5v-6.7c0-0.1,0-0.1,0.1-0.1c1.5-0.4,3-1,4.4-1.7c0.9-0.4,1.7-0.9,2.5-1.4
	c0.3-0.2,0.7-0.1,0.9,0.1c0.3,0.3,0.4,0.7,0.4,1.1v10.5c0,0.4-0.1,0.8-0.4,1c-0.2,0.3-0.6,0.3-0.9,0.1c0,0,0,0,0,0
	c-1.2-0.8-2.5-1.5-3.9-2.1c-0.8-0.3-1.6-0.6-2.4-0.8H96z"/>
<path class="st1" d="M95.1,49.6V57h-4c-0.9,0-1.8-0.4-2.5-1c-1.4-1.3-1.5-3.5-0.3-5c0.6-0.8,1.4-1.3,2.4-1.4H95.1z"/>
<path class="st1" d="M91.7,58h3.4v4.5c0,0.6-0.2,1.2-0.5,1.7c-0.2,0.3-0.5,0.5-0.8,0.6c-0.4,0.1-0.9,0-1.2-0.4
	C92.2,64,92,63.5,91.9,63v-4.9L91.7,58z"/>
<path class="st1" d="M105.1,55.3v-4.5h1.1c0.3,0,0.6,0.3,0.6,0.6v3.3c0,0.3-0.3,0.6-0.6,0.6C105.8,55.4,105.5,55.4,105.1,55.3z"/>
<path class="st1" d="M28.4,54.2c1,0.6,1.3,1.8,0.8,2.8c-0.2,0.3-0.5,0.6-0.8,0.8l-8.8,5.1L10.8,68c-1,0.6-2.2,0.2-2.8-0.7
	c-0.2-0.3-0.3-0.7-0.3-1.1V45.9c0-1.1,0.9-2.1,2-2.1c0.4,0,0.7,0.1,1.1,0.3l8.8,5.1L28.4,54.2z"/>
<circle class="st0" cx="259.2" cy="16.4" r="16"/>
<circle class="st0" cx="299.9" cy="16.3" r="16"/>
<circle class="st0" cx="259.3" cy="55.9" r="16"/>
<circle class="st0" cx="299.7" cy="55.4" r="16"/>
<path class="st1" d="M268.8,24.4h-19.7c-0.4-0.8-0.2-1.8,0.5-2.4c1.5-1.5,1.8-3.5,2-5.5c0.1-1.1,0.1-2.2,0.1-3.3
	c0-2.4,1.1-4.7,3.1-6c0.9-0.6,1.5-1.6,1.6-2.7c0-1.3,1-2.4,2.4-2.4c0,0,0.1,0,0.1,0c1.3-0.2,2.4,0.7,2.6,2c0,0,0,0.1,0,0.1
	c0.1,1.3,0.8,2.5,1.9,3.2c1.9,1.3,3,3.4,2.9,5.7c0,2-0.2,4.1,0.6,6.1c0.4,0.9,0.8,1.9,1.4,2.7C269,22.5,269.3,23.6,268.8,24.4z"/>
<path class="st1" d="M255.9,25.5h6.2c0,1.7-1.1,2.7-3.1,2.7S255.9,27.3,255.9,25.5z"/>
<path class="st1" d="M259.4,43.2c3.7-0.4,6.4,1.2,8.4,4.1c1.4,1.8,1.5,4.3,0.4,6.3c-0.5,1.1-0.5,1.7,0.4,2.5
	c3.5,2.9,2.7,8.2-0.7,10.9c-3.8,3-11.4,3.3-15.1,0.3c-2.1-1.7-3.6-3.6-3.5-6.5c0.1-3.8,0-7.7,0-11.5c-0.1-1,0.4-1.9,1.1-2.5
	C253,44.3,255.8,42.8,259.4,43.2z M256.1,59v2.1c0,1,0.5,1.9,1.4,2.4c1.4,0.9,3.1,1.1,4.6,0.4c1.6-0.8,2.4-1.8,2.4-3.1
	s-1.1-2.3-2.8-2.7c-0.8-0.1-1.7-0.2-2.5-0.2c-1.2-0.2-2.1-1.2-2.1-2.4c0.1-1.2,1-2.1,2.1-2.2c1-0.1,2-0.4,3-0.7
	c1.1-0.5,1.5-1.8,1-2.8c-0.1-0.1-0.1-0.3-0.2-0.4c-1-1.2-2.6-1.7-4.1-1.4c-1.8,0.5-2.6,1.4-2.6,3.3C256.1,53.9,256.1,56.5,256.1,59z
	"/>
<path class="st1" d="M307.4,47.2c0.9-0.3,1.8-0.7,1.5-1.8s-1.2-0.7-2-0.7h-14.2c-0.4-0.1-0.7-0.1-1.1,0c-0.4,0.1-0.8,0.3-1,0.7
	c-0.1,0.5,0.1,0.9,0.4,1.3c0.5,0.3,1,0.6,1.5,0.8c-0.2,0.4-0.3,0.7-0.4,0.9c-0.9,1-1.2,2.5-0.7,3.8c0.6,2.4,0.9,4.8,1.4,7.2
	c0.6,2.8,1.2,5.6,1.8,8.5c0,0.8,0.7,1.4,1.4,1.3c0.1,0,0.2,0,0.3,0c2.1-0.1,4.2,0,6.4,0c2,0,2,0,2.4-1.9c1-4.7,1.8-9.4,2.9-14.1
	c0.4-1.9,0.5-3.6-0.8-5.2c-0.1-0.1,0-0.2,0-0.4S307.3,47.2,307.4,47.2z M302.4,65.1c-0.6,0.7-1.2,1.4-1.8,2
	c-0.8,0.8-1.3,0.8-2.1,0.1c-0.6-0.6-1.2-1.3-1.7-2c-0.4-0.8-0.7-1.6-0.6-2.5c0.5-3.6,1.1-7.2,1.7-10.8l0.4-2.6c0-0.3,0-0.5-0.2-0.7
	l-0.4-0.6c-0.3-0.5-0.2-1.1,0.3-1.4c0.1-0.1,0.2-0.1,0.3-0.1c0.7-0.1,1.3-0.1,2,0c0.5,0,0.9,0.4,0.9,0.9c0,0.2-0.1,0.3-0.2,0.5
	l-0.6,0.9c-0.1,0.2-0.2,0.5-0.1,0.7l1.5,6.3v0.1c0.3,2.3,0.8,4.5,1.2,6.8C303.2,63.5,303,64.4,302.4,65.1z"/>
<path class="st1" d="M290.7,26.1V24c0.1-1.4,0.3-2.8,0.4-4.2c0-0.7-0.1-1.4-0.3-2c-1.8-4-0.2-8.7,3.7-10.8c1.3-0.7,2.7-1,4.1-1h3.9
	c3.6-0.1,5.9,1.8,7.8,4.7c1.1,1.7,1.4,3.9,0.7,5.8c-0.7,2.5-2.4,4.5-4.8,5.5c-1.7,0.8-3.6,1.1-5.4,0.9c-3.2-0.5-5.5,1.2-7.9,2.8
	C292.3,26.2,291.5,26.3,290.7,26.1z"/>
<circle class="st0" cx="340.8" cy="16.4" r="16"/>
<path class="st0" d="M324.3,71.2h22.6c4.7,0,8.6-3.9,8.6-8.6v0V48.1c0-4.7-3.9-8.6-8.6-8.6l0,0h-22.6V71.2z"/>
<path class="st1" d="M342.7,58.4c-3.6,3-9,2.5-12-1.1c-3-3.6-2.5-9,1.1-12c2.9-2.4,7.1-2.6,10.2-0.5c3.7,2.6,4.8,7.6,2.5,11.5
	c0.1,0,0.1,0,0.2,0.1l6.5,6.5c0.5,0.5,0.6,1.2,0.3,1.8c-0.4,0.7-1.2,0.9-1.9,0.5c0,0-0.1-0.1-0.1-0.1c-0.1-0.1-0.2-0.2-0.3-0.2
	l-6.2-6.2C342.8,58.5,342.8,58.4,342.7,58.4z M337.2,57.1c2.9,0,5.3-2.4,5.3-5.3s-2.4-5.3-5.3-5.3c-2.9,0-5.3,2.4-5.3,5.3
	c0,0,0,0,0,0C331.9,54.7,334.2,57.1,337.2,57.1C337.2,57.1,337.2,57.1,337.2,57.1z"/>
<circle class="st1" cx="341.1" cy="12.5" r="6.2"/>
<path class="st1" d="M336,17.6c1.2,1.4,2.9,2.2,4.8,2.2c0,0,1.3,0.5,5.3-2.1c2.8,1.7,4.7,4.6,5.1,7.8c0,0-2.4,4.8-10.5,5.5
	c0,0-7.1-0.7-10-5.1C330.6,25.9,331.3,19.8,336,17.6z"/>
</svg>
