<svg id="Layer_2" data-name="Layer 2" xmlns="http://www.w3.org/2000/svg" width="1261.05005" height="275.12" viewBox="0 0 1261.05005 275.12"><defs><style>.cls-1{fill:#777;}.cls-2{fill:#fff;}</style></defs><title>iconosgris</title><circle class="cls-1" cx="209.28999" cy="66.77" r="65.95"/><circle class="cls-1" cx="349.81" cy="66.95" r="65.95"/><circle class="cls-1" cx="490.32999" cy="66.95" r="65.94999"/><circle class="cls-1" cx="630.03003" cy="65.95" r="65.95"/><circle class="cls-1" cx="771.20001" cy="66.95" r="65.95"/><circle class="cls-1" cx="65.95" cy="209.17" r="65.95"/><circle class="cls-1" cx="209.28999" cy="209.17" r="65.95"/><circle class="cls-1" cx="349.98999" cy="208.17" r="65.95"/><circle class="cls-1" cx="490.32999" cy="209.17" r="65.94999"/><circle class="cls-1" cx="629.84998" cy="208.17" r="65.95"/><circle class="cls-1" cx="771.20001" cy="208.17" r="65.95"/><circle class="cls-1" cx="65.95" cy="66.95" r="65.95"/><path class="cls-2" d="M32.15,24.91H56.06a8.26,8.26,0,0,1,8.24,8.24V57.06a8.26,8.26,0,0,1-8.24,8.26H32.15a8.26,8.26,0,0,1-8.24-8.24V33.15C23.08,29.03,27.2,24.91,32.15,24.91Z"/><path class="cls-2" d="M77.49,24.91H98.92a9.52,9.52,0,0,1,9.89,9.135q.015.37733,0,.755V56.24a9.52,9.52,0,0,1-9.135,9.89q-.37735.015-.755,0H77.49a9.52,9.52,0,0,1-9.89-9.135q-.015-.37735,0-.755V34.8a9.52,9.52,0,0,1,9.135-9.89Q77.11237,24.895,77.49,24.91Z"/><path class="cls-2" d="M32.15,68.6H55.23a9.15,9.15,0,0,1,9.07,9.07v23.08a9.15,9.15,0,0,1-9.07,9.07H32.15a9.15,9.15,0,0,1-9.07-9.07V77.67A9.15,9.15,0,0,1,32.15,68.6Z"/><path class="cls-2" d="M76.66,68.6H99.74a9.15,9.15,0,0,1,9.07,9.07v23.08a9.15,9.15,0,0,1-9.07,9.07H76.66a9.15,9.15,0,0,1-9.07-9.07V77.67A9.15,9.15,0,0,1,76.66,68.6Z"/><path class="cls-2" d="M487.86,101.57a35.94,35.94,0,0,1-33-27.2c-.82-2.47-.82-4.95-1.65-7.42,0-.82,0-.82-.82-.82-2.47-.82-4.12-4.12-4.12-7.42.82-4.12,4.12-6.59,7.42-5.77,4.12.82,6.59,4.12,5.77,7.42,0,2.47-2.47,4.95-4.95,5.77h0c.82,18.14,16.49,31.33,33.8,30.5a32.15,32.15,0,0,0,30.5-30.5c-2.47-.82-4.12-1.65-4.95-4.12a5.26,5.26,0,0,1,0-4.95,7.31,7.31,0,0,1,8.24-4.95c2.47.82,4.95,3.3,4.95,5.77.82,3.3-1.65,6.59-4.95,7.42v2.47c0,4.12-1.65,8.24-3.3,12.37a33.93013,33.93013,0,0,1-15.66,16.49,72.54068,72.54068,0,0,1-12.37,4.12h-1.65v8.24h15.66a2.475,2.475,0,0,1,0,4.95h-37.1a2.19,2.19,0,0,1-2.47-2.47c0-.82.82-1.65,1.65-2.47h17.31v-7.42Z"/><path class="cls-2" d="M475.49,19.14h0v7.42a2.475,2.475,0,0,0,4.95,0h0V15.84h0A15.53,15.53,0,0,1,487,14.19v19a4.28,4.28,0,0,0,1.65,3.3c.82.82,2.47-.82,3.3-1.65V15.02h2.47c1.65,0,2.47.82,4.12,1.65V28.21a4.28,4.28,0,0,0,1.65,3.3,4.28,4.28,0,0,0,3.3-1.65V22.44h0a18,18,0,0,1,4.12,6.59,11.72027,11.72027,0,0,1,1.65,4.95V53.76h0V73.55c-.82,3.3-1.65,7.42-4.12,9.89A17.21,17.21,0,0,1,492,90.03c-5.77.82-11.54-1.65-15.66-5.77-3.3-3.3-5.77-7.42-5.77-12.37V34.8a24.07064,24.07064,0,0,1,1.65-7.42,19.13016,19.13016,0,0,1,3.3-8.24Z"/><path class="cls-2" d="M807.47,232.9V174.38h0a33.81,33.81,0,0,0-9.07-.82,62.39035,62.39035,0,0,0-12.37.82,81.00112,81.00112,0,0,0-13.19,4.12v59.35h0a128.00173,128.00173,0,0,1,17.31-3.3A67.75012,67.75012,0,0,1,807.47,232.9Zm-71.72,0a97.49009,97.49009,0,0,1,34.62,4.12h0V177.67a49.08,49.08,0,0,0-22.26-4.95,40.13021,40.13021,0,0,0-9.89.82h-2.47Zm-2.47-51.93H730c-.82,0-.82,0-.82.82v55.23c0,.82,0,.82.82.82h32.15l-3.3-.82a64.07139,64.07139,0,0,0-13.19-1.65H734.92c-.82,0-1.65-1.65-1.65-2.47V180.97Zm47.81,56.88h32.15c.82,0,.82,0,.82-.82V181.79h0a.81.81,0,0,0-.79987-.82q-.01007-.00011-.02014,0h-2.47v52.76h0a2.19,2.19,0,0,1-2.47,2.47H793.45c-2.47,0-5.77.82-9.07.82Z"/><path class="cls-2" d="M796.75,88.39V23.26a6.94006,6.94006,0,0,0-3.3-5.77H748.94l-1.65.82c-.82.82-2.47,1.65-2.47,2.47s-.82,1.65-.82,2.47v82.44a6.94,6.94,0,0,0,3.3,5.77c.82,0,1.65.82,2.47.82H791l.82-.82a6.4402,6.4402,0,0,0,3.3-3.3c0-.82.82-1.65.82-3.3C796.75,100.75,796.75,94.98,796.75,88.39Zm-30.5-62.65h9.89a.825.825,0,1,1,0,1.65H765.42a.81.81,0,0,1-.82-.79987q-.00009-.01007,0-.02013s0-.82,1.65-.82Zm4.95,80.79a2.19,2.19,0,0,1-2.47-2.47h0c0-1.65.82-3.3,2.47-3.3s3.3.82,3.3,2.47v.82c-.82,1.65-1.65,2.47-3.3,2.47Zm20.61-9.89a1.77,1.77,0,0,1-1.65,1.65H751.41a1.77,1.77,0,0,1-1.65-1.65V33.15c0-.82.82-.82,1.65-1.65H791a1.77,1.77,0,0,1,1.65,1.65h0V85.91c-.82,3.3-.82,6.59-.82,10.72Z"/><path class="cls-2" d="M670.42,65.95h0L645.69,41.22a3.88,3.88,0,0,1-.82-4.95c.82-1.65,3.3-1.65,4.95-.82h.82l27.2,27.2q2.46991,2.47,0,4.95h0l-27.2,27.2q-2.47,2.47-4.95,0l-.82-.82c-.82-1.65-.82-3.3.82-4.12Z"/><path class="cls-2" d="M585.51,65.95h0l25.55,24.73c.82.82,1.65,2.47.82,3.3a2.63,2.63,0,0,1-2.47,2.47c-.82,0-2.47,0-3.3-.82L584.69,75.02l-6.59-6.59q-2.47-2.47,0-4.95h0l27.2-27.16c.82-.82,2.47-1.65,3.3-.82a2.63,2.63,0,0,1,2.47,2.47c0,1.65,0,2.47-.82,3.3L599.53,51.94l-14,14Z"/><path class="cls-2" d="M637.45,27.21c1.65,0,3.3,1.65,3.3,4.12v.82L635,53.59l-9.89,35.45L621,103.87c-.82,1.65-2.47,3.3-4.95,2.47a2.63,2.63,0,0,1-2.47-2.47v-1.65l3.3-13.19L627.6,51.11l5.77-20.61C634.15,28.03,635.8,27.21,637.45,27.21Z"/><path class="cls-2" d="M510.94,239.68h0v15.64a.81.81,0,0,1-.79987.82q-.01007.00014-.02014,0H464.78c-2.47,0-5.77-1.65-5.77-4.95V179.5h0c.82-1.65,2.47-2.47,4.12-3.3h7.42V163.01h0c.82-.82,1.65-2.47,3.3-2.47.82,0,1.65-.82,2.47-.82h44.52c.82,0,1.65,0,1.65.82h0a.81.81,0,0,1-.79987.82q-.01007.00011-.02014,0H476.32a3,3,0,0,0-2.47.82c-.82.82-.82.82-.82,1.65a2.91,2.91,0,0,0,3.3,3.3h45.34a2.88,2.88,0,0,1,1.65.82h0v68.42c0,.82-.82.82-1.65.82h-9.89Z"/><path class="cls-2" d="M499.4,167.13H476.32a2.8801,2.8801,0,0,1-1.65-.82h0a1.77,1.77,0,0,1,1.65-1.65h45.34a2.88,2.88,0,0,1,1.65.82c0,.82,0,1.65-.82,1.65Z"/><path class="cls-2" d="M367.12,53.76h6.59a5.63,5.63,0,0,1,5.77,5.48644q.00357.14176,0,.28355v5.79L382,63.65l15.66-9.07h.82c.82,0,1.65,0,1.65.82h0V94.97a2.87986,2.87986,0,0,1-.82,1.65h-.82l-17.31-9.89h-.82V92.5a5.63,5.63,0,0,1-5.48642,5.77q-.14177.00357-.28357,0H311.07a5.63,5.63,0,0,1-5.77-5.48644q-.00357-.14176,0-.28355h0V60.32a5.63,5.63,0,0,1,5.48642-5.77q.14177-.00357.28357,0H316c-5.77-4.12-9.07-11.54-7.42-18.14a16.99994,16.99994,0,0,1,8.24-11.54c8.24-4.95,19.78-2.47,24.73,5.77a3,3,0,0,1,.82,2.47,18.9,18.9,0,0,1,19-10.72,16.75,16.75,0,0,1,14,12.37C377,41.4,373.72,49.64,367.12,53.76Zm-33,0h13.19c-2.47-1.65-4.95-4.95-6.59-7.42a26.70975,26.70975,0,0,1-6.59,7.42Z"/><path class="cls-2" d="M624.08,191.69h0l-3.3-.82-4.95-.82-8.24-.82h-.82l-9.07,23.89v3.3l1.65,1.65h0l2.47-3.3c.82-.82.82-1.65,1.65-2.47a3,3,0,0,1,2.47-.82,6.3,6.3,0,0,1,4.12,1.65l1.65,1.65c1.65-.82,3.3,0,4.95.82s2.47,2.47,3.3,4.12c3.3,0,6.59,2.47,6.59,5.77l1.65.82a11.38052,11.38052,0,0,1,3.3,2.47,5.26,5.26,0,0,1,0,4.95l-2.47.82-2.47,4.12h.82L634,243.62l2.47,1.65c.82,0,.82.82,1.65.82s1.65-.82,2.47-1.65a2.99992,2.99992,0,0,0-.82-2.47l-4.12-3.3-3.3-2.47a1.54992,1.54992,0,0,1,0-2.47h0a1.55,1.55,0,0,1,2.47,0h0l1.65.82,7.42,6.59a2.99992,2.99992,0,0,0,2.47.82c1.65-.82,2.47-1.65,1.65-3.3v-.82l-.82-.82-5.77-4.95-2.47-2.47c-.82-.82-.82-1.65,0-1.65h0v-1.63l.82.82c0,.82.82.82,1.65,1.65l6.59,5.77c.82.82,2.47,1.65,3.3,2.47s2.47.82,4.12,0h0a2.51005,2.51005,0,0,0,0-3.3l-8.27-7.41-2.47-2.47.82-.82a1.55,1.55,0,0,1,2.47,0h0l9.89,9.07c.82.82.82.82,1.65.82s2.47,0,2.47-1.65v-.82c0-.82,0-.82-.82-1.65l-2.47-3.3-4.95-4.95-9.07-9.07-3.3-3.3-4.95-4.95h-6.59a.81.81,0,0,1-.79987.82q-.01007.00011-.02014,0l-3.3,5.77a1.77,1.77,0,0,1-1.65,1.65l-1.65,1.65a7.49,7.49,0,0,1-8.24,0,2.5499,2.5499,0,0,1-.82-1.65l.82-1.65L620,194.98a1.77,1.77,0,0,1,1.65-1.65Zm-8.24,19.78h0a3.88,3.88,0,0,0,4.95-.82l1.65-.82c.82,0,.82-.82,1.65-1.65l3.3-7.42c0-.82.82-.82,1.65-.82H634c.82,0,2.47,0,2.47.82h0l8.24,8.24,9.07,9.07,3.3,4.12h.82l2.47-.82h0l-1.65-6.59-3.3-19v-.82L652.93,193.32a57.23992,57.23992,0,0,0-10.72-4.12,7,7,0,0,0-5.77,0L629,191.69l-4.12.82-2.47,2.47a.81.81,0,0,0-.82.79987q-.00009.01007,0,.02014Zm-5.77,17.31c.82,0,.82,0,1.65-.82l2.47-4.12,2.47-3.3v-1.65a11.38052,11.38052,0,0,0-3.3-2.47,3,3,0,0,0-2.47.82l-3.3,4.95-1.65,2.47v.82c.82,1.65,2.47,3.3,4.12,3.3Zm13.19-4.12v-.82l-.82-.82a3,3,0,0,0-2.47-.82c-.82,0-.82,0-1.65.82a.81.81,0,0,1-.79987.82q-.01007.00011-.02014,0l-4.95,6.59v1.65c.82,1.65,1.65,2.47,3.3,2.47.82,0,.82,0,1.65-.82l2.47-4.12,2.47-3.3c.82-.82.82-.82.82-1.65Zm4.95,5.77h0c0-.82-.82-1.65-.82-2.47a3,3,0,0,0-2.47-.82h-.82l-4.95,7.42v.82l2.47,2.47c.82,0,1.65,0,1.65-.82l4.95-6.59Zm-24.73-6.59h0l2.47-2.47,3.3-4.12v-.82a11.38052,11.38052,0,0,0-3.3-2.47c-.82,0-.82,0-1.65.82l-2.47,4.12-1.66,2.42v.82a4.28,4.28,0,0,0,3.3,1.65Z"/><circle class="cls-2" cx="667.77002" cy="194.16" r="2.46999"/><path class="cls-2" d="M680.14,216.42l-2.47-12.37-2.47-12.37c-.82-2.47-2.47-4.95-4.95-5.77a6.65,6.65,0,0,0-7.42,2.47c-1.65,1.65-2.47,4.12-1.65,5.77.82,3.3,1.65,5.77,1.65,9.07.82,4.95,2.47,9.89,3.3,14.84a7.59,7.59,0,0,0,9.048,5.77489l.022-.00488c3.3-.82,5.77-3.3,5.77-6.59a.81.81,0,0,1-.82989-.78961Q680.13983,216.43522,680.14,216.42Zm-12.37-18.1a4.12,4.12,0,1,1,4.12-4.12v0h0a3.89,3.89,0,0,1-4.12,4.12Z"/><path class="cls-2" d="M601.82,181.79c-2.47-3.3-7.42-3.3-10.72,0a4.27991,4.27991,0,0,0-1.65,3.3l-8.24,22.23a7.43019,7.43019,0,0,0-.82,4.12,7.81,7.81,0,0,0,7.42,6.59c3.3,0,5.77-1.65,6.59-4.95l8.24-22.26c0-.82.82-1.65.82-3.3A15.28062,15.28062,0,0,0,601.82,181.79Zm-5.77,9.89a4.12,4.12,0,1,1,4.12-4.12v0C600.99,190.03,598.52,191.68,596.05,191.68Z"/><circle class="cls-2" cx="596.04999" cy="187.56" r="2.46999"/><path class="cls-2" d="M240.62,84.09h0c1.65,1.65,3.3,2.47,5.77,1.65.82-.82,2.47-1.65,2.47-3.3a4.53,4.53,0,0,0-2.47-4.12,3.01048,3.01048,0,0,0-4.12,1.65h-27.2a.81.81,0,0,0-.79988-.82q-.01-.00013-.02013,0v-.83l4.95-12.37c4.12-8.24,9.89-16.49,15.66-23.91L239,37.92c-6.59-3.3-11.54-8.24-16.49-14h.82c1.65-.82,4.12-1.65,4.95-3.3a6.47,6.47,0,0,0,0-9.07h0a11.38,11.38,0,0,0-3.3-2.47,40.81,40.81,0,0,0-10.72-3.3H206a15.91,15.91,0,0,0-8.24,2.47c-1.65.82-4.12,1.65-4.95,3.3a5.51,5.51,0,0,0,0,8.24,11.38,11.38,0,0,0,3.3,2.47l3.3,1.65c-4.95,5.77-9.89,10.72-16.49,14.84v.82h0c4.12,4.95,7.42,9.89,11.54,14.84a67.39,67.39,0,0,1,9.89,16.49c.82,2.47,1.65,4.12,2.47,6.59v4.12h0c-3.3,0-7.42,0-10.72-1.65a19.78,19.78,0,0,1-9.89-5.77,19.78,19.78,0,0,1-5.77-9.87,63.62985,63.62985,0,0,1-1.65-12.37v-.82c1.65-.82,2.47-2.47,1.65-4.95s-2.47-2.47-4.95-1.65-2.49,4.11-1.64,5.79a1.77,1.77,0,0,0,1.65,1.65h0v4.12a41.37941,41.37941,0,0,0,1.65,9.89,21.1,21.1,0,0,0,12.37,14l2.47.82H180.44c-.82-1.65-1.65-2.47-3.3-2.47s-4.12,1.65-4.12,3.3,1.65,4.12,3.3,4.12,3.3-.82,3.3-2.47H206a4,4,0,0,0,4.95,1.65,1.77,1.77,0,0,0,1.65-1.65h2.47c4.12.82,9.07,1.65,12.37,4.12a26.2,26.2,0,0,1,14,18.14v.78a3.01048,3.01048,0,0,0-1.65,4.12c.82,1.65,2.47,3.3,4.95,2.47a3.72,3.72,0,0,0,2.47-2.47,6.3,6.3,0,0,0-1.65-4.12c-.82,0-.82-.82-.82-1.65a25.66,25.66,0,0,0-9.07-15.66,52.56,52.56,0,0,0-11.54-6.59l-.82,1.65ZM210.94,49.46h0l-.82,29.68h-.82V49.46h-.82a3.55,3.55,0,0,1-3.3-3.3,6.78,6.78,0,0,1,3.3-4.95h2.47c.82,0,2.47,0,2.47,1.65a4,4,0,0,1,.1143,5.6557q-.056.0583-.1143.1143A3,3,0,0,1,210.94,49.46Z"/><path class="cls-2" d="M209.29,186.09c.82-.82,1.65-2.47,2.47-3.3,3.3-3.3,6.59-4.95,10.72-6.59a18.2,18.2,0,0,1,13.19,0,17.89,17.89,0,0,1,13.19,13.19,29.28983,29.28983,0,0,1,1.65,8.24c0,9.07-2.47,17.31-7.42,23.91-4.12,6.59-9.89,11.54-16.49,16.49a94.00068,94.00068,0,0,1-15.66,8.29,2.51,2.51,0,0,1-3.3,0c-6.59-3.3-13.19-6.59-19-11.54a57.45,57.45,0,0,1-14.84-16.49,40.59018,40.59018,0,0,1-4.95-14,20.09,20.09,0,0,1,0-9.89,15.52989,15.52989,0,0,1,1.65-6.59,21.1,21.1,0,0,1,14-12.37,20.09,20.09,0,0,1,9.89,0c3.3.82,6.59,1.65,9.07,3.3,1.65,2.47,4.12,4.95,5.77,7.42Z"/><path class="cls-2" d="M346.69,211.47h0v-27.2a90.24028,90.24028,0,0,0,19-7.42,61.48994,61.48994,0,0,0,9.89-5.77,2,2,0,0,1,3.3.82,6.3,6.3,0,0,1,1.65,4.12v42.87a6.3,6.3,0,0,1-1.65,4.12,3.62,3.62,0,0,1-4.12.82c-4.95-3.3-10.72-5.77-15.66-8.24a46.4696,46.4696,0,0,0-9.89-3.3Z"/><path class="cls-2" d="M342.57,183.44v30.5H326.08a15.1,15.1,0,0,1-14.84-13.19c-.82-4.12.82-8.24,3.3-11.54s5.77-4.95,9.89-5.77Z"/><path class="cls-2" d="M328.55,217.24h14v18.14a9.36,9.36,0,0,1-2.47,6.59c-.82.82-2.47,1.65-3.3,2.47a4,4,0,0,1-4.95-1.65,7.48005,7.48005,0,0,1-2.47-5.77v-2.47c-.82-4.95-.82-10.72-.82-17.31Z"/><path class="cls-2" d="M383.79,206.53v-19h4.95a2.19,2.19,0,0,1,2.47,2.47v13.19a2.19,2.19,0,0,1-2.47,2.47C387.91,206.53,383.79,206.53,383.79,206.53Z"/><path class="cls-2" d="M117.06,203.4c4.12,1.65,5.77,6.59,4.12,10.72a9.93005,9.93005,0,0,1-4.12,4.12L80.79,238.85,44.52,259.46c-3.3,3.3-9.07,1.65-11.54-1.65a11.90993,11.90993,0,0,1-1.65-5.77V168.78a9,9,0,0,1,7.42-9.07c1.65,0,4.12,0,4.95,1.65L80,181.97Z"/><circle class="cls-1" cx="911.71002" cy="66.6" r="65.95"/><circle class="cls-1" cx="1052.87999" cy="66.77" r="65.94999"/><circle class="cls-1" cx="912.53998" cy="208.99001" r="65.95"/><circle class="cls-1" cx="1052.06004" cy="208.52" r="65.94999"/><path class="cls-2" d="M952.11,99.57H871.32a8.77,8.77,0,0,1,1.65-9.89c5.77-6.59,8.24-14,8.24-23.08V53.41A30.15,30.15,0,0,1,894.4,28.68,12.86,12.86,0,0,0,901,17.96a10,10,0,0,1,9.89-9.89h0c4.95-.82,9.89,3.3,10.72,8.24v.82a14.67993,14.67993,0,0,0,8.24,13.19c7.42,5.77,12.37,14,11.54,23.91a63.36052,63.36052,0,0,0,2.47,24.73,44.41071,44.41071,0,0,0,5.77,10.72C952.93,91.32,953.76,96.32,952.11,99.57Z"/><path class="cls-2" d="M898.53,104.52h25.56c0,7.42-4.95,11.54-13.19,11.54S898.53,111.12,898.53,104.52Z"/><path class="cls-2" d="M913.36,156.24A36,36,0,0,1,948,172.73a23.6801,23.6801,0,0,1,1.65,26.38c-2.47,4.12-2.47,7.42,1.65,9.89,14.84,11.54,10.72,33.8-3.3,44.52-15.66,12.37-47,13.19-61.83.82-9.07-5.77-14-15.66-14.84-26.38V180.15a15.67,15.67,0,0,1,4.12-10.72A52.23,52.23,0,0,1,913.36,156.24Zm-13.19,65.95v8.24a11.43993,11.43993,0,0,0,5.77,9.89c5.77,4.12,12.37,4.95,19,1.65s9.89-7.42,9.89-12.37c-.82-5.77-5.77-10.72-11.54-10.72-3.3-.82-6.59-.82-10.72-.82-4.95-.82-9.07-4.95-9.07-9.89s3.3-8.24,8.24-9.07a68.67947,68.67947,0,0,0,12.37-3.3c4.12-1.65,6.59-6.59,4.95-10.72,0-.82-.82-1.65-1.65-2.47a17.09,17.09,0,0,0-17.31-5.77,12,12,0,0,0-10.72382,13.153l.00385.037C900.17,200.75,900.17,211.47,900.17,222.19Z"/><path class="cls-2" d="M1084.21,175.55c4.12-.82,7.42-2.47,5.77-7.42s-4.95-2.47-8.24-3.3h-63.48c-1.65.82-4.12,1.65-4.12,3.3a15.28009,15.28009,0,0,0,1.65,5.77c1.65,1.65,4.12,2.47,5.77,3.3-.81995,1.65-.81995,2.47-1.65,3.3a17.45022,17.45022,0,0,0-3.3,15.66c2.47,9.89,3.3,19.78,5.77,29.68l7.42,34.62c0,3.3,3.3,5.77,6.59,5.77h27.2c9.06995,0,8.24,0,9.89-7.42,4.12-19.78,7.42-38.74,11.54-57.7,2.47-7.42,1.65-15.66-3.3-21.43v-1.66A3.72,3.72,0,0,1,1084.21,175.55Zm-21.43005,73.37c-2.47,2.47-4.95,5.77-7.42,8.24s-5.77,3.3-9.06995,0a74.30209,74.30209,0,0,1-7.42-8.24,22.81958,22.81958,0,0,1-2.47-10.72,417.75245,417.75245,0,0,1,7.42-44.52l1.65-10.72a3.00031,3.00031,0,0,0-.81995-2.47l-1.65-2.47a5.08,5.08,0,0,1,.81995-5.77c.81995,0,.81995-.82,1.65-.82h8.24c2.47,0,3.3,2.47,3.3,4.12,0,.82,0,.82-.81995,1.65l-2.47,4.12c-.81995.82-.81995,1.65-.81995,3.3l6.59,25.55h0c1.65,9.07,3.3,19,4.95,28,2.47,4.12.81995,7.42-1.65,10.72Z"/><path class="cls-2" d="M1015,107.17V98.1a123.01088,123.01088,0,0,0,1.65-17.31c0-2.47,0-5.77-1.65-8.24a34.1,34.1,0,0,1,15.66-44.52c4.95-2.47,11.54-4.12,17.31006-3.3h15.66c13.18994,0,26.38,7.42,32.15,19,4.95,7.42,5.77,15.66,3.3,23.91a34.57014,34.57014,0,0,1-19.78,23.08c-6.59,3.3-14.84,4.12-22.26,3.3-13.18994-1.65-23.08,4.95-32.15,11.54C1021.56006,107.99,1018.26,107.99,1015,107.17Z"/><circle class="cls-1" cx="1193.05005" cy="66.6" r="65.94997"/><path class="cls-1" d="M1132.45,142.4h63.48a65.26,65.26,0,0,1,65.12,65.12h0a65.26,65.26,0,0,1-65.12,65.12h-63.48Z"/><path class="cls-2" d="M1208.3,219.89c-14.84,12.37-37.1,10.72-49.46-4.12s-10.72-37.1,4.12-49.46,37.1-10.72,49.46,4.12a34.71,34.71,0,0,1,3.3,41.22.81.81,0,0,1,.81995.79993q.00018.01,0,.02008l26.38,26.38c2.47,1.65,2.47,5.77.81995,8.24s-5.77,2.47-8.24.82h0l-.81995-.82L1209.12,221.54Zm-23.08-4.95a21.28,21.28,0,0,0,21.43005-21.12888q.0011-.15058,0-.30113a21.82,21.82,0,0,0-21.43005-21.43A21.28,21.28,0,0,0,1163.79,193.20889q-.0011.15056,0,.30112h0a21.82,21.82,0,0,0,21.43005,21.43Z"/><circle class="cls-2" cx="1195.52002" cy="48.46" r="26.38"/><path class="cls-2" d="M1174.09,69.9a26.33,26.33,0,0,0,19.78,9.07s5.77,2.47,22.26-9.07c11.54,7.42,19.78,19,21.43005,33,0,0-9.89,20.61-44.52,23.08,0,0-29.68005-3.3-42-21.43C1151.83,105.32,1154.31006,79.79,1174.09,69.9Z"/></svg>