<svg id="Layer_1" data-name="Layer 1" xmlns="http://www.w3.org/2000/svg" xmlns:xlink="http://www.w3.org/1999/xlink" width="183.53822" height="188.71652" viewBox="0 0 183.53822 188.71652">
  <defs>
    <style>
      .cls-1, .cls-13 {
        fill: #4bb4dd;
      }

      .cls-1, .cls-10 {
        opacity: 0.5;
      }

      .cls-11, .cls-2, .cls-6, .cls-9 {
        fill: #fff;
      }

      .cls-2 {
        opacity: 0.15;
      }

      .cls-3 {
        fill: url(#linear-gradient);
      }

      .cls-4 {
        fill: url(#linear-gradient-2);
      }

      .cls-5 {
        fill: url(#linear-gradient-3);
      }

      .cls-6, .cls-7 {
        stroke: #0c8fcf;
      }

      .cls-10, .cls-12, .cls-6, .cls-7, .cls-8 {
        stroke-miterlimit: 10;
      }

      .cls-12, .cls-7, .cls-8 {
        fill: #0c8fcf;
      }

      .cls-8 {
        stroke: #fff;
      }

      .cls-10 {
        fill: #37c6f4;
      }

      .cls-10, .cls-11 {
        stroke: #4bb4dd;
      }

      .cls-11 {
        stroke-linecap: round;
        stroke-linejoin: round;
      }

      .cls-12 {
        stroke: #3d86c6;
      }
    </style>
    <linearGradient id="linear-gradient" x1="61.0163" y1="66.94967" x2="77.37176" y2="66.94967" gradientUnits="userSpaceOnUse">
      <stop offset="0" stop-color="#2f497c"/>
      <stop offset="0.4119" stop-color="#294374"/>
      <stop offset="1" stop-color="#1a3460"/>
    </linearGradient>
    <linearGradient id="linear-gradient-2" x1="53.48032" y1="74.24025" x2="70.32658" y2="74.24025" gradientTransform="translate(70.62689 -22.02786) rotate(45)" xlink:href="#linear-gradient"/>
    <linearGradient id="linear-gradient-3" x1="45.94434" y1="81.77623" x2="62.7906" y2="81.77623" gradientTransform="translate(73.7484 -14.49188) rotate(45)" xlink:href="#linear-gradient"/>
  </defs>
  <title>LYFS</title>
  <g>
    <path class="cls-1" d="M129.83745,99.97235h0a13.462,13.462,0,0,1,0-18.98222l38.46141-38.46156a13.46207,13.46207,0,0,1,18.98236,0h0a13.46207,13.46207,0,0,1,0,18.98236L148.81982,99.97235A13.46207,13.46207,0,0,1,129.83745,99.97235Z" transform="translate(-7.6581 -7.768)"/>
    <path class="cls-1" d="M90.25588,51.69777h0a6.62056,6.62056,0,0,1,0-9.33553l18.91537-18.91552a6.62078,6.62078,0,0,1,9.3356,0h0a6.62078,6.62078,0,0,1,0,9.3356L99.59141,51.69777A6.62069,6.62069,0,0,1,90.25588,51.69777Z" transform="translate(-7.6581 -7.768)"/>
    <path class="cls-1" d="M22.25068,163.52459h0a11.19045,11.19045,0,0,1,0-15.77927l90.86758-90.86766a11.19053,11.19053,0,0,1,15.77935,0h0a11.19054,11.19054,0,0,1,0,15.77935L38.03,163.52459A11.19053,11.19053,0,0,1,22.25068,163.52459Z" transform="translate(-7.6581 -7.768)"/>
    <path class="cls-1" d="M54.18467,175.88021h0a8.65462,8.65462,0,0,1,0-12.20367l24.72684-24.727a8.65471,8.65471,0,0,1,12.20374,0h0a8.65479,8.65479,0,0,1,0,12.20382L66.38841,175.88021A8.65471,8.65471,0,0,1,54.18467,175.88021Z" transform="translate(-7.6581 -7.768)"/>
    <path class="cls-1" d="M119.432,55.92248h0a9.007,9.007,0,0,1,0-12.70042l25.73323-25.73324a9.00689,9.00689,0,0,1,12.70042,0h0a9.00689,9.00689,0,0,1,0,12.70042L132.13248,55.92248A9.00711,9.00711,0,0,1,119.432,55.92248Z" transform="translate(-7.6581 -7.768)"/>
    <circle class="cls-2" cx="99.71979" cy="84.412" r="30.59086"/>
    <g>
      <path class="cls-1" d="M10.58816,125.55554h0a10.07493,10.07493,0,0,1,0-14.20635L61.08763,60.84963a10.075,10.075,0,0,1,14.20644,0h0a10.075,10.075,0,0,1,0,14.20643L24.79459,125.55554A10.075,10.075,0,0,1,10.58816,125.55554Z" transform="translate(-7.6581 -7.768)"/>
      <g>
        <path class="cls-3" d="M75.29407,75.05607a9.93662,9.93662,0,0,0,2.07769-3.0593L64.14692,58.77194a9.93809,9.93809,0,0,0-3.0593,2.0777l-.07133.07142L75.22265,75.1274Z" transform="translate(-7.6581 -7.768)"/>
        <rect class="cls-4" x="60.03676" y="64.19483" width="3.73334" height="20.09087" transform="translate(-42.0228 57.74881) rotate(-45)"/>
        <rect class="cls-5" x="52.50078" y="71.73081" width="3.73334" height="20.09087" transform="translate(-49.55878 54.6273) rotate(-45)"/>
      </g>
    </g>
    <path class="cls-1" d="M171.71105,106.81276h0a7.51031,7.51031,0,0,1,0-10.59l3.69787-3.6978a7.51022,7.51022,0,0,1,10.5899,0h0a7.51008,7.51008,0,0,1,0,10.5899l-3.6978,3.69787A7.51031,7.51031,0,0,1,171.71105,106.81276Z" transform="translate(-7.6581 -7.768)"/>
    <path class="cls-1" d="M121.89532,177.43329h0a5.6823,5.6823,0,0,1,0-8.01234l2.79779-2.79778a5.68229,5.68229,0,0,1,8.01234,0h0a5.68216,5.68216,0,0,1,0,8.01234l-2.79771,2.79778A5.68225,5.68225,0,0,1,121.89532,177.43329Z" transform="translate(-7.6581 -7.768)"/>
    <circle class="cls-1" cx="39.6068" cy="179.20818" r="5.36899"/>
    <circle class="cls-1" cx="67.91605" cy="20.57884" r="4.31903"/>
  </g>
  <g>
    <rect class="cls-6" x="37.36773" y="23.41599" width="107.04059" height="138.39021" rx="4.08879" ry="4.08879"/>
    <path class="cls-7" d="M41.45651,23.416h98.97984a3.972,3.972,0,0,1,3.972,3.972V37.899a0,0,0,0,1,0,0H37.36773a0,0,0,0,1,0,0V27.50478A4.08879,4.08879,0,0,1,41.45651,23.416Z"/>
    <circle class="cls-8" cx="44.75183" cy="29.99235" r="2.58281"/>
    <circle class="cls-8" cx="54.47351" cy="29.99235" r="2.58281"/>
    <circle class="cls-8" cx="64.34535" cy="29.99235" r="2.58281"/>
    <path class="cls-9" d="M96.8547,32.05644h35.12008a3.972,3.972,0,0,1,3.972,3.972V37.899a0,0,0,0,1,0,0H92.76591a0,0,0,0,1,0,0V36.14522A4.08879,4.08879,0,0,1,96.8547,32.05644Z"/>
    <rect class="cls-10" x="47.62367" y="47.56932" width="86.42892" height="48.35185" rx="3" ry="3"/>
    <rect class="cls-10" x="47.4222" y="105.59154" width="38.27854" height="46.33718" rx="3" ry="3"/>
    <line class="cls-11" x1="95.48358" y1="105.59154" x2="134.25405" y2="105.59154"/>
    <line class="cls-11" x1="95.32661" y1="113.12604" x2="126.56275" y2="113.12604"/>
    <line class="cls-11" x1="95.32661" y1="121.03726" x2="134.09709" y2="121.03726"/>
    <line class="cls-11" x1="95.16965" y1="128.57177" x2="133.94012" y2="128.57177"/>
    <line class="cls-11" x1="95.32661" y1="136.48299" x2="126.56275" y2="136.48299"/>
    <line class="cls-11" x1="95.32661" y1="144.39422" x2="134.09709" y2="144.39422"/>
    <line class="cls-11" x1="95.16965" y1="151.92872" x2="115.10426" y2="151.92872"/>
    <g>
      <path class="cls-9" d="M85.74272,71.61765" transform="translate(-7.6581 -7.768)"/>
      <g>
        <path class="cls-9" d="M98.63413,59.67983a18.97706,18.97706,0,1,0,18.93982,19.026A19.00334,19.00334,0,0,0,98.63413,59.67983Zm-.08278,36.46953a17.48711,17.48711,0,0,1-12.2971-29.87987,17.7376,17.7376,0,0,1,2.0781-1.77322,17.48829,17.48829,0,1,1,10.219,31.6531Z" transform="translate(-7.6581 -7.768)"/>
        <line class="cls-9" x1="86.39771" y1="63.4843" x2="86.39749" y2="63.484"/>
        <path class="cls-9" d="M89.37421,71.24107a2.32383,2.32383,0,0,1,.6892-1.65322,2.368,2.368,0,0,1,.278-.23749,2.33482,2.33482,0,0,1,3.70832,1.84021l-.00117.00585.00329.01623c.00018.01331.00377.026.00373.03934h.0042a.75345.75345,0,0,0,1.50517-.05558.712.712,0,0,0-.01985-.09843,3.83519,3.83519,0,0,0-7.66751.14l.01536,0c-.00015.00625-.00358.01141-.00358.0177a.7426.7426,0,0,0,1.48521,0l-.00289-.01433" transform="translate(-7.6581 -7.768)"/>
      </g>
      <path class="cls-9" d="M102.64736,71.25979a2.32383,2.32383,0,0,1,.6892-1.65322,2.368,2.368,0,0,1,.278-.23749,2.33482,2.33482,0,0,1,3.70832,1.84021l-.00117.00585.00329.01623c.00018.01331.00377.026.00373.03934h.0042a.75345.75345,0,0,0,1.50517-.05558.712.712,0,0,0-.01985-.09843,3.83519,3.83519,0,0,0-7.66751.14l.01536,0c-.00015.00625-.00358.01141-.00358.0177a.7426.7426,0,0,0,1.48521,0l-.00289-.01433" transform="translate(-7.6581 -7.768)"/>
      <path class="cls-9" d="M112.08267,78.67358c-10.33-4.25775-24.20044-.84419-26.73776-.15863a.5517.5517,0,0,0-.4072.53668v.42029c-.00168.13247-.002.2644,0,.39552v.09039l.0026-.00066c.16494,7.49862,6.35876,12.73,13.61276,12.74659a13.64071,13.64071,0,0,0,8.09377-2.60945,13.933,13.933,0,0,0,1.63267-1.39325,13.63671,13.63671,0,0,0,3.983-8.4475l.00775.0038.06736-1.175A.41663.41663,0,0,0,112.08267,78.67358Zm-1.47159.94032a12.39989,12.39989,0,0,1-3.3867,8.02661,12.16789,12.16789,0,0,1-8.668,3.56747c-6.46224-.01536-11.49766-5.31221-11.92729-11.6649l-.01528-.00545c12.41319-2.94453,20.6827-1.04336,24.00636.073Z" transform="translate(-7.6581 -7.768)"/>
    </g>
  </g>
  <path class="cls-12" d="M22.78733,90.46653H19.84974v-2.9332a.4955.4955,0,0,0-.991,0v2.9332H15.92115a.4955.4955,0,1,0,0,.991h2.93759v2.942a.4955.4955,0,0,0,.991,0v-2.942h2.93759a.4955.4955,0,1,0,0-.991Z" transform="translate(-7.6581 -7.768)"/>
  <path class="cls-12" d="M185.89041,119.75719h-2.93759V116.824a.4955.4955,0,0,0-.991,0v2.9332h-2.93759a.4955.4955,0,0,0,0,.991h2.93759v2.942a.4955.4955,0,1,0,.991,0v-2.942h2.93759a.4955.4955,0,1,0,0-.991Z" transform="translate(-7.6581 -7.768)"/>
  <path class="cls-12" d="M140.70887,186.41819h-2.93759V183.485a.4955.4955,0,0,0-.991,0v2.9332h-2.93759a.4955.4955,0,0,0,0,.991h2.93759v2.942a.4955.4955,0,0,0,.991,0v-2.942h2.93759a.4955.4955,0,0,0,0-.991Z" transform="translate(-7.6581 -7.768)"/>
  <path class="cls-12" d="M75.99729,17.59992H73.05969v-2.9332a.4955.4955,0,1,0-.991,0v2.9332H69.13111a.4955.4955,0,0,0,0,.991H72.0687v2.942a.4955.4955,0,1,0,.991,0v-2.942h2.93759a.4955.4955,0,0,0,0-.991Z" transform="translate(-7.6581 -7.768)"/>
  <path class="cls-12" d="M26.71592,42.24581H23.77833V39.3126a.4955.4955,0,0,0-.991,0v2.9332H19.84974a.4955.4955,0,0,0,0,.991h2.93759v2.942a.4955.4955,0,0,0,.991,0v-2.942h2.93759a.4955.4955,0,1,0,0-.991Z" transform="translate(-7.6581 -7.768)"/>
  <path class="cls-12" d="M176.88857,152.98641H173.951v-2.9332a.4955.4955,0,0,0-.991,0v2.9332h-2.93759a.4955.4955,0,0,0,0,.991H172.96v2.942a.4955.4955,0,0,0,.991,0v-2.942h2.93759a.4955.4955,0,0,0,0-.991Z" transform="translate(-7.6581 -7.768)"/>
  <path class="cls-12" d="M108.01563,174.26755H105.078v-2.9332a.4955.4955,0,0,0-.991,0v2.9332h-2.93759a.4955.4955,0,1,0,0,.991H104.087v2.942a.4955.4955,0,0,0,.991,0v-2.942h2.93759a.4955.4955,0,0,0,0-.991Z" transform="translate(-7.6581 -7.768)"/>
  <path class="cls-12" d="M138.53208,14.625h-2.93759v-2.9332a.4955.4955,0,1,0-.991,0V14.625H131.6659a.4955.4955,0,0,0,0,.991h2.93759v2.942a.4955.4955,0,1,0,.991,0V15.616h2.93759a.4955.4955,0,0,0,0-.991Z" transform="translate(-7.6581 -7.768)"/>
  <path class="cls-12" d="M32.89385,64.3485a2.97494,2.97494,0,1,0,2.97494,2.97495A2.97495,2.97495,0,0,0,32.89385,64.3485Zm0,5.47944a2.50449,2.50449,0,1,1,2.5045-2.50449A2.50449,2.50449,0,0,1,32.89385,69.82794Z" transform="translate(-7.6581 -7.768)"/>
  <path class="cls-12" d="M79.60819,181.70474a2.97494,2.97494,0,1,0,2.97494,2.97495A2.97495,2.97495,0,0,0,79.60819,181.70474Zm0,5.47944a2.50449,2.50449,0,1,1,2.5045-2.50449A2.50449,2.50449,0,0,1,79.60819,187.18418Z" transform="translate(-7.6581 -7.768)"/>
  <path class="cls-12" d="M164.1592,133.36482a2.97494,2.97494,0,1,0,2.97494,2.97495A2.97495,2.97495,0,0,0,164.1592,133.36482Zm0,5.47944a2.50449,2.50449,0,1,1,2.5045-2.50449A2.50449,2.50449,0,0,1,164.1592,138.84426Z" transform="translate(-7.6581 -7.768)"/>
  <path class="cls-12" d="M162.02783,171.79249a2.97494,2.97494,0,1,0,2.97494,2.97495A2.97495,2.97495,0,0,0,162.02783,171.79249Zm0,5.47944a2.50449,2.50449,0,1,1,2.5045-2.50449A2.50449,2.50449,0,0,1,162.02783,177.27193Z" transform="translate(-7.6581 -7.768)"/>
  <path class="cls-12" d="M45.02582,15.12486a2.97494,2.97494,0,1,0,2.97494,2.97495A2.97495,2.97495,0,0,0,45.02582,15.12486Zm0,5.47944a2.50449,2.50449,0,1,1,2.5045-2.50449A2.50449,2.50449,0,0,1,45.02582,20.6043Z" transform="translate(-7.6581 -7.768)"/>
  <path class="cls-12" d="M104.38134,8.268a2.97494,2.97494,0,1,0,2.97494,2.97495A2.97495,2.97495,0,0,0,104.38134,8.268Zm0,5.47944a2.50449,2.50449,0,1,1,2.5045-2.50449A2.50449,2.50449,0,0,1,104.38134,13.74743Z" transform="translate(-7.6581 -7.768)"/>
  <ellipse class="cls-1" cx="90.97924" cy="183.07867" rx="31.21442" ry="5.63785"/>
  <path class="cls-13" d="M138.71068,55.33733a3.00881,3.00881,0,0,1,3,3v42.35184a3.00881,3.00881,0,0,1-3,3H58.28176a3.00882,3.00882,0,0,1-3-3V58.33733a3.00882,3.00882,0,0,1,3-3h80.42892m0-1H58.28176a4.00452,4.00452,0,0,0-4,4v42.35184a4.00452,4.00452,0,0,0,4,4h80.42892a4.00452,4.00452,0,0,0,4-4V58.33733a4.00452,4.00452,0,0,0-4-4Z" transform="translate(-7.6581 -7.768)"/>
  <path class="cls-13" d="M90.35883,113.17118a3.0088,3.0088,0,0,1,3,3v40.33718a3.00881,3.00881,0,0,1-3,3H58.0803a3.00883,3.00883,0,0,1-3-3V116.17118a3.00881,3.00881,0,0,1,3-3H90.35883m0-1H58.0803a4.00453,4.00453,0,0,0-4,4v40.33718a4.00453,4.00453,0,0,0,4,4H90.35883a4.00452,4.00452,0,0,0,4-4V116.17118a4.00452,4.00452,0,0,0-4-4Z" transform="translate(-7.6581 -7.768)"/>
</svg>
