<svg id="Layer_2" data-name="Layer 2" xmlns="http://www.w3.org/2000/svg" width="741.5" height="291.42999" viewBox="0 0 741.5 291.42999"><defs><style>.cls-1{fill:#2296e0;}</style></defs><title>servicios</title><path class="cls-1" d="M299.73,220.14c0-.45.06-.9.07-1.36a70,70,0,0,1,9.12-32.71c.43-.76.76-.85,1.49-.39l.57.36c.59.37.68.72.32,1.34a67.13,67.13,0,1,0,14.38-17.71.84.84,0,0,1-1.18.11l-.11-.11-.71-.54a.79.79,0,0,1,0-1.37A70.44,70.44,0,0,1,437.2,198.84a68.71,68.71,0,0,1,2.83,12.83,70.41,70.41,0,0,1-139.26,20.68,68.53081,68.53081,0,0,1-1-10.92,1.74911,1.74911,0,0,0-.06-.32Q299.73,220.66,299.73,220.14Z"/><path class="cls-1" d="M369.22,253.97a36,36,0,0,1-33.38-27.28,33,33,0,0,1-1-7.58.92.92,0,0,0-.66-1,6.84,6.84,0,1,1,4.64.32l-.27.09a32.41,32.41,0,1,0,64.82-.06h0a6.84,6.84,0,0,1-4.47-3.93,6.65994,6.65994,0,0,1-.28-4.62,6.87,6.87,0,1,1,8.22,8.62c-.06.89-.1,1.77-.17,2.66a34.86034,34.86034,0,0,1-3.43,12.48,35.76006,35.76006,0,0,1-15.73,16.24,34.88055,34.88055,0,0,1-12.4,3.84c-.52.06-1,.11-1.56.15-.2,0-.29.07-.28.28v7.86a.77211.77211,0,0,0,0,.12h15.76a2.38005,2.38005,0,0,1,.31,4.75H352.56a2.38,2.38,0,0,1-.53-4.71,2.79185,2.79185,0,0,1,.56,0h16.63Zm2.49-1.5h.42c1.77-.21,3.56-.31,5.31-.64a34.47,34.47,0,0,0,27.06-26.66,32.83119,32.83119,0,0,0,.72-6.09c0-.3,0-.3-.29-.26a33.49006,33.49006,0,0,1-10,23.22,34,34,0,0,1-45.7,2c-7.85-6.58-11.85-15.1-12.31-25.3h-.6a33.66,33.66,0,0,0,7.45,20.6c6.92,8.59,16,12.85,27,13.14v11.2H352.53a.79.79,0,0,0-.8299.748l-.00009.002v.06a.82.82,0,0,0,.79953.84H389.11a2.00007,2.00007,0,0,0,.63-.4.71.71,0,0,0,0-.84.84.84,0,0,0-.82-.4H371.71Zm-29.5-40.65a5.31883,5.31883,0,1,0,0,.01Zm68.29,0a5.315,5.315,0,1,0,0,.01Z"/><path class="cls-1" d="M356.72,171.53v7.57a2.55,2.55,0,0,0,2.25,2.7,2.49,2.49,0,0,0,2.78-2.16V168.48a.49.49,0,0,1,.19-.38,21,21,0,0,1,6.26-1.88v18.54a2.53,2.53,0,0,0,5.06,0h0V166.14c.71.14,1.39.26,2.06.42a20.84989,20.84989,0,0,1,4,1.46.5.5,0,0,1,.32.54v10.58a2.53,2.53,0,0,0,5.06,0h0v-7.41l.11-.1a1.33021,1.33021,0,0,0,.15.28,22.99982,22.99982,0,0,1,4.31,6.47,20.29,20.29,0,0,1,1.38,5.5,30.55185,30.55185,0,0,1,.22,3.37v16.3l-.23.06v4.22c0,2.63.14,5.26.1,7.89a64.81167,64.81167,0,0,1-.41,7.24,17.5,17.5,0,0,1-4.42,9.82,19.49,19.49,0,0,1-13,6.8,20,20,0,0,1-16-5.13,17.62,17.62,0,0,1-6-12.55c-.12-2.14-.18-4.29-.23-6.43-.07-3.6-.14-7.2-.15-10.79,0-3.81,0-7.62.1-11.43,0-2.79.18-5.58.23-8.37a18,18,0,0,1,1.71-7.74,20.99977,20.99977,0,0,1,3.49-4.93Zm10-3.54c-1,.35-2,.7-3,1a.46.46,0,0,0-.36.53q0,4.71,0,9.42a6.80992,6.80992,0,0,1-.06,1,4.06,4.06,0,0,1-8-.16c-.09-1.12,0-2.26-.06-3.38v-.45l-.14.16a14.51993,14.51993,0,0,0-2.45,7.09c-.16,2.66-.22,5.33-.29,8s-.13,5.56-.15,8.34v10.09c.06,3.82.2,7.64.29,11.46a16.31,16.31,0,0,0,5.22,11.93,18.5,18.5,0,0,0,15,5.07,18,18,0,0,0,11.79-5.78,16,16,0,0,0,4.41-9.24,71.06611,71.06611,0,0,0,.43-7.2c0-2.88-.08-5.76-.12-8.63v-5c.22,0,.25-.17.25-.41V188.27a30.579,30.579,0,0,0-.3-4.71,18.00033,18.00033,0,0,0-2.53-7l-.25-.36v3a5.05982,5.05982,0,0,1-.2,1.32,4.07,4.07,0,0,1-8-1.23v-9.35c0-.73,0-.75-.67-1-.86-.31-1.72-.59-2.66-.91v16.71a4.67034,4.67034,0,0,1-.09,1,4.07,4.07,0,0,1-8.06-.9q0-8.14,0-16.28Z"/><path class="cls-1" d="M440.81,72.63c0,.24-.06.48-.07.73a70.29,70.29,0,0,1-140.53-1.74,2.15171,2.15171,0,0,0-.06-.35v-1c0-.45.06-.9.07-1.36a69.93006,69.93006,0,0,1,9.06-32.7c.43-.76.76-.85,1.49-.4l.54.33c.62.39.71.73.35,1.36a67.32,67.32,0,0,0,42.7,98.64,65.88,65.88,0,0,0,13.11,1.83,67.29,67.29,0,0,0,69.05-55.2,65.55033,65.55033,0,0,0,1-14.39,67.29,67.29,0,0,0-111.49-48.5.84.84,0,0,1-1.17825.15134L324.85,20.03l-.11-.1-.71-.54a.79.79,0,0,1-.06-1.37A70.28,70.28,0,0,1,440.79,68.65a1.15927,1.15927,0,0,0,.06.24Z"/><path class="cls-1" d="M330.39,40.56V35.98a2.5,2.5,0,0,1,2.27-2.5c1.56-.21,3.11-.49,4.66-.68a60.23026,60.23026,0,0,1,8.2-.36,63.78041,63.78041,0,0,1,11.4,1.18,55.70985,55.70985,0,0,1,13.47,4.44.52.52,0,0,0,.4,0,56.29,56.29,0,0,1,14.67-4.67,65.50007,65.50007,0,0,1,13.73-.94,54.81982,54.81982,0,0,1,9.11,1,4.63035,4.63035,0,0,1,.94.22A2.42,2.42,0,0,1,410.78,36v4.61h3.71a3.11,3.11,0,0,1,3.2486,2.96493l.0014.03507q0,.14,0,.28v9.07q0,24.45,0,48.91a3.26,3.26,0,0,1-1.25,2.76,3,3,0,0,1-1.91.6H326.67a3.05993,3.05993,0,0,1-3.25-3.24V43.81a3.15,3.15,0,0,1,3-3.26h.24C327.92,40.6,329.12,40.56,330.39,40.56Zm77.88,57.43V36.32c0-.28-.06-.4-.36-.46a55.20979,55.20979,0,0,0-9.41-1,62.64993,62.64993,0,0,0-12.69.94,54.57992,54.57992,0,0,0-13.62,4.27.58.58,0,0,0-.4.61v61.51a126.17965,126.17965,0,0,1,18-3.6A92.82985,92.82985,0,0,1,408.27,97.99Zm-75.39,0c12.42-.78,24.5,1,36.45,4.21V40.69a.55.55,0,0,0-.41-.62,57.16,57.16,0,0,0-23-5.23,60.1102,60.1102,0,0,0-10.3.58c-.93.13-1.85.31-2.76.46Zm-2.49-54.92h-3.56c-.77,0-.94.17-.94.93v57.79c0,.74.19.92.92.92h33.61a.68993.68993,0,0,0-.3-.13c-1.12-.21-2.24-.43-3.36-.63a109.54982,109.54982,0,0,0-13.5-1.55,71.82956,71.82956,0,0,0-10.23.08,2.12,2.12,0,0,1-.7-.07,2.49,2.49,0,0,1-1.89-2.6V43.07Zm50.32,59.57v.08h33.58c.79,0,1-.16,1-1v-58a.62.62,0,0,0-.55-.68h-3.93v55a2.48,2.48,0,0,1-2.53854,2.42l-.00146,0h0a58.91043,58.91043,0,0,0-7.46-.2c-2.46.1-4.93.18-7.38.44-3.2.34-6.38.84-9.57,1.3-1.08.18-2.09.41-3.11.6Z"/><path class="cls-1" d="M.03,71.29c0-.45.06-.9.07-1.35a69.9,69.9,0,0,1,9-32.69c.43-.76.76-.85,1.49-.39l.57.36c.59.37.67.72.32,1.34a67.32,67.32,0,0,0,42.65,98.63,65.84941,65.84941,0,0,0,13.11,1.83A67.33,67.33,0,0,0,73.7938,4.51957Q70.99394,4.38314,68.19,4.48h-.27a67.08,67.08,0,0,0-42,16.49.84.84,0,0,1-1.18.11l-.11-.11-.71-.5a.79.79,0,0,1,0-1.38A70.31,70.31,0,0,1,100.81,8.45a69.22,69.22,0,0,1,18.11,12.64,69.9,69.9,0,0,1,18.27,29,68.58032,68.58032,0,0,1,2.84,12.79A70.28,70.28,0,0,1,7.67,103.58l-.31-.61A69.15,69.15,0,0,1,1.03,83.48a68.41006,68.41006,0,0,1-1-10.9,1.75,1.75,0,0,0-.06-.32A7.35453,7.35453,0,0,0,.03,71.29Z"/><path class="cls-1" d="M94.63,48.07c-1.23,1.38-2.47,2.71-3.64,4.1a120.99994,120.99994,0,0,0-15.4,22.9,84.52991,84.52991,0,0,0-5.12,12,.65.65,0,0,0,.12.73,10.56908,10.56908,0,0,1,.58.94.85.85,0,0,0,.32.22H96.92a.55.55,0,0,0,.6-.38,3.52,3.52,0,0,1,4.24-1.93,3.57,3.57,0,1,1-4.28,4.83.42.42,0,0,0-.46-.31H80.4a.55.55,0,0,0-.32.09l1.39.47a33.33,33.33,0,0,1,11,6.15,25.21,25.21,0,0,1,8.45,14.69,1.57,1.57,0,0,0,1.06,1.43,3.4,3.4,0,0,1,1.91,3.88,3.56,3.56,0,0,1-6.87.37,3.5,3.5,0,0,1,1.48-4.08.66.66,0,0,0,.36-.84,23.78,23.78,0,0,0-4.57-10.4,25.94,25.94,0,0,0-8.8-7.11,41.71,41.71,0,0,0-12.36-3.93l-1.72-.27a.36.36,0,0,0-.44.21,3.55,3.55,0,0,1-6.35-.31.43.43,0,0,0-.46-.3H40.03a.47.47,0,0,0-.52.33,3.55,3.55,0,1,1-3.07-5,3.45,3.45,0,0,1,3.09,2.16c.07.16.11.3.35.3H50.67c-.78-.37-1.55-.7-2.29-1.08A22.91,22.91,0,0,1,37.14,74.75a33.92011,33.92011,0,0,1-1.9-9.88c-.06-1.21,0-2.43,0-3.64V61a3.57,3.57,0,1,1,2.52-.16c-.2.09-.35.15-.36.43a36.35,36.35,0,0,0,1.43,11.66,22.24,22.24,0,0,0,5.49,9.35,21.77,21.77,0,0,0,9.6,5.44A35.24,35.24,0,0,0,64.28,89c.21,0,.28-.1.38-.26a10.36992,10.36992,0,0,1,.89-1.26.46.46,0,0,0,.12-.51,43.34009,43.34009,0,0,0-2.64-6.35,124.36059,124.36059,0,0,0-9.73-16q-5.21-7.47-11-14.51a2.11021,2.11021,0,0,1-.17-.24l-.6-1A60.73,60.73,0,0,0,57.34,34.73c-1.14-.57-2.26-1.09-3.33-1.7a10.16,10.16,0,0,1-2.98-2.55,6,6,0,0,1,.24-8.06,13.76,13.76,0,0,1,5-3.41,28,28,0,0,1,8.58-2.08,36.50021,36.50021,0,0,1,7.64.08,25.49,25.49,0,0,1,9.8,3,11.61994,11.61994,0,0,1,3,2.36,6,6,0,0,1,.00471,8.48528L85.29,30.86l-.09.08a14.26,14.26,0,0,1-5.17,3.41l-1.13.45A53,53,0,0,0,94.63,48.07ZM65.48,80.48a1.931,1.931,0,0,0,0-.22V59.85c0-.24-.11-.32-.3-.43a9.39031,9.39031,0,0,1-1.73-1.12,6.56,6.56,0,0,1,.17541-9.27558L63.63,49.02q.23-.22.47-.41a4.72,4.72,0,0,1,3.3-1.13,9,9,0,0,0,1.49,0,4.11,4.11,0,0,1,2.52.71,6.33,6.33,0,0,1,2.94,6.86,5.56,5.56,0,0,1-3.43,4.43.51.51,0,0,0-.38.56V80.48A123.08,123.08,0,0,1,91.17,48.65l-.36-.23A55.00008,55.00008,0,0,1,77.12,36.07a1,1,0,0,0-1.2-.41,34.92,34.92,0,0,1-8.73.85,33.68991,33.68991,0,0,1-7.43-.92.42.42,0,0,0-.52.19A64.29987,64.29987,0,0,1,44.86,49.35l-.2.16.1.14c2.29,3,4.63,5.91,6.87,8.91A159.57875,159.57875,0,0,1,61.92,73.9C63.13,76.07,64.28,78.28,65.48,80.48ZM69.3,34.19a23.34992,23.34992,0,0,0,5.09-.45,21.92993,21.92993,0,0,0,7.1-2.61,7.9,7.9,0,0,0,2.77-2.59,3.37,3.37,0,0,0,0-3.82,8.49991,8.49991,0,0,0-1.62-1.81,15.07993,15.07993,0,0,0-5.37-2.69,29.39,29.39,0,0,0-9.75-1.24,42.59985,42.59985,0,0,0-5.17.51,20.16,20.16,0,0,0-6.66,2.22,9.1,9.1,0,0,0-3.22,2.69,3.59,3.59,0,0,0,0,4.39,6.10993,6.10993,0,0,0,.76.91,13.86,13.86,0,0,0,6.56,3.37,42.78,42.78,0,0,0,9.5,1.12Zm-.93,23.58.57-.09a3.52,3.52,0,0,0,2.34-1.07,4.51,4.51,0,0,0,0-5.74,3.15,3.15,0,0,0-2.71-1.19H67.05a2.14,2.14,0,0,0-.78.18,4.15,4.15,0,0,0-2.35,4.8,3.4,3.4,0,0,0,3,3,4,4,0,0,1,.71.13V86.48h.68Z"/><path class="cls-1" d="M600.13,220.27c0-.45.06-.91.07-1.36a70.26,70.26,0,0,1,9.1-32.85c.43-.76.76-.85,1.5-.4l.57.36c.59.38.68.72.32,1.34a67.58,67.58,0,1,0,14.42-17.69.84.84,0,0,1-1.18.11l-.11-.11-.72-.54a.8.8,0,0,1,0-1.37,70.67,70.67,0,0,1,113.93,31.17,68.93325,68.93325,0,0,1,2.87,12.87,70.63,70.63,0,0,1-139.7,20.75,68.7515,68.7515,0,0,1-1-11,1.76,1.76,0,0,0-.06-.32Z"/><path class="cls-1" d="M671.03,201.58c.82-1,1.56-2,2.43-2.9a21.66,21.66,0,0,1,10.27-5.86,22.43006,22.43006,0,0,1,12.63.08c6.24,1.94,10.22,6.17,12.15,12.36a29.59871,29.59871,0,0,1,1.21,7.57c.38,8.47-2.28,16-7.1,22.87A61.0001,61.0001,0,0,1,687.03,250.82a93.85959,93.85959,0,0,1-14.38,8,3.65993,3.65993,0,0,1-3.15,0,87.27918,87.27918,0,0,1-17.91-10.6,56.69,56.69,0,0,1-14.07-15.74,36.3404,36.3404,0,0,1-4.72-13,35.11209,35.11209,0,0,1-.19-9.34,23.2587,23.2587,0,0,1,1.41-6.43,18.69,18.69,0,0,1,13.13-11.39,20.62,20.62,0,0,1,9.58-.06,24.05967,24.05967,0,0,1,8.43,3.28,18.84992,18.84992,0,0,1,5.73,5.75Zm.28,5.35-.25-.39c-.67-1.13-1.35-2.27-2-3.41a15.63951,15.63951,0,0,0-2.83-3.5,18.58,18.58,0,0,0-8.17-4.37,19.64992,19.64992,0,0,0-9.81-.48,16.22,16.22,0,0,0-12,10.53,21.66977,21.66977,0,0,0-1.06,5.29,32.31892,32.31892,0,0,0,.36,9.63,35.0998,35.0998,0,0,0,5.44,13,56.51992,56.51992,0,0,0,13.25,13.84,87.57973,87.57973,0,0,0,16.32,9.49,1.39,1.39,0,0,0,1.22,0,93.82989,93.82989,0,0,0,13.61-7.57,58.71015,58.71015,0,0,0,15.4-15,33.65035,33.65035,0,0,0,6.43-20.51,30.07159,30.07159,0,0,0-.84-6.5,16.48966,16.48966,0,0,0-4.18-7.76,16.14,16.14,0,0,0-11-4.74,21.3198,21.3198,0,0,0-10.58,2,16.62,16.62,0,0,0-8.68,8.79,15.00747,15.00747,0,0,1-.66,1.63Z"/><path class="cls-1" d="M140.56,221.65c0,.24-.06.48-.07.72A69.79,69.79,0,0,1,8.74,251.89l-.11-.21a69.78,69.78,0,0,1,1.4-66.28c.38-.67.75-.77,1.41-.36l.59.44a.79.79,0,0,1,.3,1.22,67.99979,67.99979,0,0,0-3.8,7.82,67,67,0,1,0,18.08-25.24c-.49.43-.77.43-1.31,0l-.68-.51a.78.78,0,0,1-.06-1.35c2-1.6,4-3.28,6.06-4.76A68.22,68.22,0,0,1,53.88,152.1a69.9,69.9,0,0,1,78.62,35.27,68.82018,68.82018,0,0,1,6.71,19,68.06146,68.06146,0,0,1,1.26,11.39,1.15946,1.15946,0,0,0,.06.24Z"/><path class="cls-1" d="M98.71,220.07v42.7a7.62,7.62,0,0,1-.6,3.2,5.75,5.75,0,0,1-3.14,3c-.4.17-.79.35-1.19.5a1.57043,1.57043,0,0,1-.54.08H51.03a6.5,6.5,0,0,1-2.66-.55,5.84,5.84,0,0,1-3.8-5.78v-21q0-32.48,0-65a7.16,7.16,0,0,1,.58-2.95,5.5,5.5,0,0,1,2.77-2.79c.53-.26,1.07-.49,1.62-.71a1.15,1.15,0,0,1,.43-.07H93.36a1.52027,1.52027,0,0,1,.53.12c.39.15.77.32,1.15.49a5.72,5.72,0,0,1,3.66,5.63v37.37Q98.71,217.19,98.71,220.07Zm-2.46,0V176.56a3.5,3.5,0,0,0-3.64-3.35h0c-13.75-.07-27.5,0-41.25,0a5.09986,5.09986,0,0,0-2.43.59,3.1,3.1,0,0,0-1.7,2.15,6.42,6.42,0,0,0-.16,1.39v86a3.61,3.61,0,0,0,3.50724,3.7099L50.58,267.05H92.03a4.9998,4.9998,0,0,0,2.27-.5,3.15,3.15,0,0,0,1.81-2.15,7.69021,7.69021,0,0,0,.19-1.72v-18.2Q96.25,232.29,96.25,220.07Z"/><path class="cls-1" d="M93.8,219.48v32.28a3.94041,3.94041,0,0,1,0,.7,1.83,1.83,0,0,1-1.95,1.56H51.61a1.86,1.86,0,0,1-2-1.33,3.31,3.31,0,0,1-.1-.84V187.34a6.55009,6.55009,0,0,1,.06-1,1.5,1.5,0,0,1,1.35-1.27,5.12965,5.12965,0,0,1,.73-.06h40a5.0006,5.0006,0,0,1,.59,0,1.57,1.57,0,0,1,1.52,1.56v.48Q93.8,203.28,93.8,219.48Zm-41.83,32H91.33v-64H51.97Z"/><path class="cls-1" d="M72.13,178.87h5.31a1.23,1.23,0,0,1,.4,2.39,1.48994,1.48994,0,0,1-.47.06H66.86a1.23,1.23,0,1,1,0-2.46Z"/><path class="cls-1" d="M74.92,260.31a2.78977,2.78977,0,1,1,.00029-.04028Z"/><path class="cls-1" d="M290.92,221.83c0,.24-.06.48-.07.73A70.34,70.34,0,1,1,159.33,185.3c.38-.68.75-.77,1.42-.36l.66.41a.79.79,0,0,1,.3,1.23,68.51365,68.51365,0,0,0-3.83,7.88,67.64,67.64,0,1,0,18.22-25.39c-.5.43-.78.44-1.32,0l-.68-.51a.78.78,0,0,1-.06-1.36c2-1.61,4-3.3,6.11-4.8a68.73,68.73,0,0,1,23.42-10.71,70.35,70.35,0,0,1,85.24,51.3q.42,1.69.76,3.4a68.5791,68.5791,0,0,1,1.27,11.48,1.16973,1.16973,0,0,0,.06.25Z"/><path class="cls-1" d="M260.12,219.37a5.57144,5.57144,0,0,1-.47-.36l-23.73-23.76a3.51,3.51,0,0,1,4.56166-5.33588q.06036.05159.11833.10588l.12.11.21.21,26.37,26.37a3.52,3.52,0,0,1,0,5.28q-13.21,13.18-26.38,26.38a3.56,3.56,0,0,1-5.74-.7,3.5,3.5,0,0,1,.68-4.17l23.79-23.79A3.76881,3.76881,0,0,1,260.12,219.37Zm3.43-.12v.23a2.41948,2.41948,0,0,0-.37.25l-25.42,25.39-.26.26a1,1,0,0,0,.46,1.63,1.13,1.13,0,0,0,1.22-.42l26.31-26.31c.67-.67.66-1.16,0-1.83l-26.36-26.38-.21-.21a1,1,0,0,0-1.67.77,1.19,1.19,0,0,0,.46.89l25.45,25.44a2.401,2.401,0,0,0,.4.3Z"/><path class="cls-1" d="M176.92,219.61a4.38015,4.38015,0,0,1,.43.32l23.82,23.81a3.37,3.37,0,0,1,.9,3.55,3.28,3.28,0,0,1-2.72,2.4,3.34,3.34,0,0,1-3.1-1l-20.37-20.37-6.28-6.25a3.49,3.49,0,0,1-.0647-4.93518l.0047-.00482.06-.06,26.61-26.59a3.35,3.35,0,0,1,3.52-.91,3.29,3.29,0,0,1,2.42,2.7,3.54,3.54,0,0,1-1.12,3.3l-10.32,10.31-13.39,13.4A3.48927,3.48927,0,0,1,176.92,219.61Zm-3.51,0a5.04821,5.04821,0,0,0,.47-.39l25.37-25.37a2.46972,2.46972,0,0,0,.34-.39,1,1,0,0,0,0-1.12.89.89,0,0,0-1-.42,1.87,1.87,0,0,0-.73.46l-26.27,26.26c-.7.7-.7,1.19,0,1.89l26.26,26.26a2.38962,2.38962,0,0,0,.39.34.94.94,0,0,0,1.09,0,.91.91,0,0,0,.43-1,1.77993,1.77993,0,0,0-.46-.74q-12.7-12.72-25.42-25.43a4.78067,4.78067,0,0,0-.49-.36Z"/><path class="cls-1" d="M227.79,181.34a3.61,3.61,0,0,1,3.46,4.68l-5.85,20.81-9.78,34.71-4,14.37a3.62,3.62,0,0,1-7-.11,3.6999,3.6999,0,0,1,.07-1.91q1.79-6.33,3.56-12.66l10.39-37.16q2.83-10,5.66-20.09A3.58,3.58,0,0,1,227.79,181.34Zm1.13,3.73a1.19,1.19,0,0,0-.79-1.24c-.67-.22-1.28.17-1.51,1l-8.13,28.89-10.62,37.76c-.3,1-.6,2.1-.88,3.15a1.16,1.16,0,0,0,1,1.52c.59.06,1.05-.34,1.26-1.08l8.44-30,11-39C228.77,185.7,228.86,185.35,228.92,185.07Z"/><path class="cls-1" d="M590.5,221.85c0,.24-.06.49-.07.73a70.45,70.45,0,1,1-131.71-37.34c.39-.68.75-.77,1.42-.36l.66.42a.8.8,0,0,1,.3,1.23,68.62,68.62,0,0,0-3.83,7.89,67.74,67.74,0,1,0,18.24-25.47c-.5.43-.78.44-1.32,0l-.68-.52a.78.78,0,0,1-.06-1.37c2-1.62,4-3.31,6.12-4.81A68.84,68.84,0,0,1,503.03,151.48a70.45,70.45,0,0,1,85.35,51.39q.42,1.69.76,3.4a68.69158,68.69158,0,0,1,1.28,11.49,1.16973,1.16973,0,0,0,.06.25Z"/><path class="cls-1" d="M539.7,249.07v14.41a4.50582,4.50582,0,0,1,0,.52,1.17,1.17,0,0,1-1,1.06,2.42806,2.42806,0,0,1-.52,0H495.92a5.76,5.76,0,0,1-5.73-4.51,5.91055,5.91055,0,0,1-.13-1.33v-61.9c0-.68-.14-1.36-.13-2s.1-1.5.17-2.25a.64009.64009,0,0,1,.13-.31,6.53,6.53,0,0,1,3.84-2.87,8.63011,8.63011,0,0,1,1.58-.19h5.15v-9.15c0-.44-.14-.89-.13-1.33,0-.73.1-1.45.17-2.18a.67.67,0,0,1,.14-.34,7.5698,7.5698,0,0,1,2.9-2.55,6.68,6.68,0,0,1,2.5-.49h42.52a1.25,1.25,0,0,1,1.42,1.38,1.2,1.2,0,0,1-1.13,1.09h-42.6a3.7,3.7,0,0,0-2.35.67,2.15,2.15,0,0,0-1,1.89,2.54,2.54,0,0,0,.64,2,3.43,3.43,0,0,0,2.37.92h42.67a1.28994,1.28994,0,0,1,1.48,1.45v64.42a2.26873,2.26873,0,0,1-.12.84,1.21,1.21,0,0,1-1.26.73h-9.35Zm-2.5-48.85H505.52v25a1.24,1.24,0,0,1-2.35.56l-1.62-2.88-.21.25-2.07,2.82a1.23,1.23,0,0,1-1.32.46,1.21,1.21,0,0,1-.9-1.07,4.61858,4.61858,0,0,1,0-.52V200.23a7.58005,7.58005,0,0,1-4.36-.79v59.78a3.3,3.3,0,0,0,3.13,3.46h41.59Zm-40.38-4h-1.24a1.16,1.16,0,0,1-1.09-.77,1.23,1.23,0,0,1,1.26-1.69H538.5a1.23,1.23,0,0,1,0,2.46h-33v1.52h32.84a1.28,1.28,0,0,1,1.3399,1.21716l.00012.00284v47.66h8.24V184.16H506.24a4.69019,4.69019,0,0,1-1.11-.1c-.64-.16-1.27-.38-1.9-.57v6.24h34.69a3.27131,3.27131,0,0,1,.56,0,1.21,1.21,0,0,1,1,1.33c0,.7-.58,1.12-1.41,1.12H495.7a3.55,3.55,0,0,0-2.31.7,2,2,0,0,0-.92,1.83,3.17083,3.17083,0,0,1,0,.71,1.41,1.41,0,0,0,.33,1,3.91,3.91,0,0,0,4,1.22Z"/><path class="cls-1" d="M528.22,180.18H507.03a1.24982,1.24982,0,0,1-1.41-1.24,1.21,1.21,0,0,1,1.1897-1.23H549.56a1.21,1.21,0,0,1,1.37,1h0a1.23,1.23,0,0,1-1,1.39H528.22Z"/><path class="cls-1" d="M290.69,72.69c0,.24-.06.48-.07.73a70.22,70.22,0,0,1-140.4-1.7,2.15007,2.15007,0,0,0-.06-.35v-1c0-.45.06-.9.07-1.35a69.87,69.87,0,0,1,9-32.67c.43-.76.76-.85,1.49-.39l.54.33c.62.39.71.73.35,1.36a67.27,67.27,0,0,0,42.63,98.55,65.82967,65.82967,0,0,0,13.1,1.83,67.24,67.24,0,0,0,69-55.15,65.48975,65.48975,0,0,0,1-14.38A67.23,67.23,0,0,0,176.03,19.98a.84.84,0,0,1-1.17825.15134L174.85,20.13l-.11-.1-.71-.55a.79.79,0,0,1-.06-1.37A70.22,70.22,0,0,1,290.64,68.73a1.15927,1.15927,0,0,0,.06.24Z"/><path class="cls-1" d="M236.48,63.33h.44c1.73,0,3.47,0,5.2.07a4.85,4.85,0,0,1,4.46,4.86v4.62l1.78-1,13-7.58a2.1398,2.1398,0,0,1,.71-.29,1.18,1.18,0,0,1,1.35583.97287L263.43,65.01h0a2.87861,2.87861,0,0,1,0,.37V84.22q0,6.95.06,13.89a1.24,1.24,0,0,1-2,1.16L246.9,90.92l-.43-.24v4.48a4.92,4.92,0,0,1-4.91,4.93H188.73a4.91,4.91,0,0,1-4.91-4.91h0V68.28a4.89,4.89,0,0,1,4.66-4.94c1.22-.06,2.45,0,3.68,0h.5c-5.09-3.86-7.34-8.86-6.25-15.16a14.1,14.1,0,0,1,6.62-9.77,14.84,14.84,0,0,1,21.46,6.49c3.4-6.34,8.59-9.4,15.88-8.6,6.23,1.19,10.51,4.77,12.05,10.92C244.17,53.82,241.85,59.17,236.48,63.33Zm24.54,4-.41.22-14.49,8.44a1.33,1.33,0,0,1-1.4.11,1.3,1.3,0,0,1-.63-1.29V68.42a2.54,2.54,0,0,0-.82-2,2.76,2.76,0,0,0-2-.66H189.03a2.52,2.52,0,0,0-2.75,2.72V94.94a2.49,2.49,0,0,0,2.27313,2.68944L188.56,97.63h52.79a2.63,2.63,0,0,0,2.71991-2.53692L244.07,95.09v-6.5a1.26,1.26,0,0,1,.43-1,1.28,1.28,0,0,1,1.58,0l14.56,8.33.37.2ZM228.15,38.59a12.36884,12.36884,0,1,0,.02,0Zm-27.15,0a12.37,12.37,0,1,0,.05,0Zm8.2,24.72h10.72a15.14993,15.14993,0,0,1-5.36-6.39A15.12,15.12,0,0,1,209.2,63.31Z"/><path class="cls-1" d="M450.47,70.57c0-.45.06-.9.07-1.35a69.66,69.66,0,0,1,9-32.58c.43-.75.76-.84,1.48-.39l.56.35c.59.37.67.71.32,1.33a67.07,67.07,0,0,0,42.5,98.25,65.61969,65.61969,0,0,0,13.06,1.83,67.08,67.08,0,1,0-41.15-117.6.83.83,0,0,1-1.16852.11124L475.14,20.52l-.11-.11-.71-.54a.79.79,0,0,1,0-1.36,70.06,70.06,0,0,1,112.87,30.9,68.33722,68.33722,0,0,1,2.84,12.76,70.0096,70.0096,0,0,1-138.5,20.57,68.16822,68.16822,0,0,1-1-10.86,1.7393,1.7393,0,0,0-.06-.31Q450.47,71.07,450.47,70.57Z"/><path class="cls-1" d="M493.76,41.96a15.14991,15.14991,0,0,0,4.42.82l8.08,1,5.58.71,2,.28a2.78,2.78,0,0,1,1.62.9c.29.31.59.6.86.92a.43.43,0,0,0,.51.13c3.56-1,7.14-1.83,10.67-2.87a15.86,15.86,0,0,1,7-.28,46.3801,46.3801,0,0,1,12.53,4.15c1.55.73,3.06,1.54,4.6,2.3a.73.73,0,0,1,.44.57q1.14,5.81,2.31,11.61l3.77,18.87a.99953.99953,0,0,0,.08.46l-5.08,1.95c.44.5.88,1,1.29,1.45a4.85,4.85,0,0,1,1.33,3.32,4.74,4.74,0,0,1-4.08,4.6,17.51855,17.51855,0,0,1-2,0c.68,2.44-.32,4.35-2.29,5.76s-4.21,1.07-6.27-.15c.17,4-3.68,7.22-8.2,5.19-.07.52-.1,1.06-.2,1.58a4.82,4.82,0,0,1-6.48,3.28,14.66931,14.66931,0,0,1-2.72-1.78l-8.78-6.68a.41.41,0,0,0-.57,0,3.86,3.86,0,0,1-3.31.34,6.87,6.87,0,0,1-5-4.71l-1,.35c0-.58-.5-.58-.9-.72a7.09,7.09,0,0,1-5-4.91c-.06-.22-.18-.21-.35-.23a10.93031,10.93031,0,0,1-1.87-.19,6.92,6.92,0,0,1-5-4.72.46.46,0,0,0-.52-.37,6.22,6.22,0,0,1-6.08-4.53,3.15009,3.15009,0,0,1,.28-2.47l-1-.77c-.83-.63-1.65-1.26-2.49-1.87a.41.41,0,0,1-.18-.55h0q4.9-13.41,9.77-26.82l2-5.39Zm20.27,5.75c-.32-.22-.54-.47-.8-.52-.92-.17-1.85-.28-2.78-.4l-5.56-.72-9.22-1.1c-.31,0-.42,0-.52.33q-4.79,13.2-9.61,26.4l-.89,2.37,2.18,1.64.2-.23c.77-1.09,1.51-2.2,2.31-3.27a24.87745,24.87745,0,0,1,1.88-2.28,3.28,3.28,0,0,1,2.47-1,6.4,6.4,0,0,1,4.65,1.93,19.704,19.704,0,0,1,1.34,1.62,6,6,0,0,1,5.26.66,7.00005,7.00005,0,0,1,3.29,4.23c4.21.13,6.85,2.43,7.47,6.47.45.17.91.33,1.34.52a6.7,6.7,0,0,1,3.44,2.79,4.61006,4.61006,0,0,1-.37,5.39c-.29.34-.55.7-.81,1.06l-3.17,4.36.47.36,7.35,5.57c.79.6,1.54,1.24,2.37,1.78a4.17,4.17,0,0,0,1.61.68,2.3,2.3,0,0,0,2.31-1.4,2.5399,2.5399,0,0,0-.64-2.74L525.34,98.48c-1.13-1-2.26-2-3.36-3a1.6,1.6,0,0,1-.273-2.24622l.003-.00378.06-.07a1.67,1.67,0,0,1,2.56-.34,16.22488,16.22488,0,0,1,1.43,1.28c2.6,2.26,5.22,4.49,7.8,6.78a3,3,0,0,0,2.92.67,2.84,2.84,0,0,0,1.72-4.15,4.38,4.38,0,0,0-.86-1c-2.08-1.82-4.18-3.62-6.26-5.44-.88-.76-1.76-1.51-2.6-2.31a1.56,1.56,0,0,1-.17035-2.19958L528.31,86.45l.1-.11c.46-.51,1-1,1.46-1.5l.5.57a17.99856,17.99856,0,0,0,1.38,1.49c2.46,2.16,4.94,4.28,7.42,6.42,1.15,1,2.24,2.05,3.46,3a2.85014,2.85014,0,0,0,4.21-.6,2.47,2.47,0,0,0-.33-3.46c-3.16-2.78-6.28-5.6-9.41-8.41-1-.92-2-1.87-3.07-2.83.28-.44.51-.89.81-1.29a1.69,1.69,0,0,1,2.71-.28c3.63,3.18,7.25,6.38,10.89,9.54a7.561,7.561,0,0,0,1.77,1.19,2.3,2.3,0,0,0,3.11-2.14,2.41,2.41,0,0,0-.78-1.67c-1-1-2-2.08-3-3.1-1.91-1.91-3.83-3.81-5.74-5.73l-9.48-9.5-3.29-3.23-5.11-5.06a.56.56,0,0,0-.35-.14H521.2a2.73,2.73,0,0,0-1.26.08c-.32.19-.44.72-.65,1.1l-3.47,6.48a5.6603,5.6603,0,0,1-1.66,1.91c-.71.52-1.38,1.09-2.1,1.58-2.59,1.8-6.29,2.32-9.11-.37a1.84,1.84,0,0,1-.49-2.19c.12-.28.26-.56.37-.85l6.38-16.4a3.51993,3.51993,0,0,1,2.13-2.12C512.22,48.48,513.03,48.12,514.03,47.71Zm-9.14,21.11.38.28a3.90046,3.90046,0,0,0,.48.28,4.73,4.73,0,0,0,4.8-.58c.67-.43,1.27-1,1.93-1.44a4.33,4.33,0,0,0,1.31-1.53c1.36-2.54,2.73-5.08,4.08-7.63a1.83,1.83,0,0,1,1.79-1.06c1.78,0,3.56.06,5.33,0a3.41,3.41,0,0,1,3,1.19,1.08993,1.08993,0,0,0,.19.18l8.63,8.6L546.87,77.2l4,4.1a.39.39,0,0,0,.51.11c.35-.16.71-.27,1.07-.4l2.87-1.09v-.35l-1.45-7.19-4-20.2a.63.63,0,0,0-.37-.5c-1-.51-2.06-1-3.11-1.55a46.63027,46.63027,0,0,0-11.78-4,13.65,13.65,0,0,0-6.37.1c-2.75.82-5.55,1.48-8.31,2.24-1.44.39-2.87.79-4.28,1.28-1.2.42-2.34,1-3.52,1.46a1.10009,1.10009,0,0,0-.64.67Q508.23,60.31,504.92,68.82Zm-6.43,18.83a1.42,1.42,0,0,0,1.44-.76c.93-1.38,1.9-2.74,2.85-4.1s1.74-2.46,2.62-3.68a1.61,1.61,0,0,0,.13-1.87,5.24,5.24,0,0,0-3.34-2.45,1.77,1.77,0,0,0-2.22.83c-1.34,1.85-2.69,3.69-4,5.54-.56.78-1.12,1.57-1.64,2.37a1,1,0,0,0-.16.69,4.61,4.61,0,0,0,4.31,3.43Zm14.63-4.28a4.9999,4.9999,0,0,0-.41-1,8.00208,8.00208,0,0,0-1.06-1.3,4.07,4.07,0,0,0-2.73-1.12,1.45,1.45,0,0,0-1.58.82,5.17028,5.17028,0,0,1-.55.83l-5.14,7.14a1.0601,1.0601,0,0,0-.2.64,2.37,2.37,0,0,0,.25,1,4.8,4.8,0,0,0,3.71,2.57,1.6,1.6,0,0,0,1.57-.7c1-1.4,2-2.8,3-4.18.85-1.17,1.73-2.31,2.55-3.49a7.75259,7.75259,0,0,0,.62-1.21Zm5.58,6.17a5.00215,5.00215,0,0,0-.18-.61,3.68027,3.68027,0,0,0-1.27-1.61,3.72,3.72,0,0,0-2.48-.89,1.0001,1.0001,0,0,0-.63.29c-1.84,2.49-3.65,5-5.47,7.5a1.18,1.18,0,0,0-.15,1.37A4.56006,4.56006,0,0,0,511.6,98a1.47,1.47,0,0,0,1.73-.6c1.66-2.37,3.35-4.73,5-7.1a3.74884,3.74884,0,0,0,.37-.76Zm-27.43-7.17a.88.88,0,0,0,.87-.45c.56-.79,1.15-1.58,1.71-2.37,1.08-1.53,2.14-3.08,3.24-4.6a1.18,1.18,0,0,0,.13-1.3,3.69,3.69,0,0,0-3.3-2.21,1.39,1.39,0,0,0-1.32.66c-1,1.44-2.06,2.86-3.09,4.3-.57.8-1.15,1.61-1.69,2.43a1.05,1.05,0,0,0-.2.78,3.76,3.76,0,0,0,3.68,2.76Z"/><path class="cls-1" d="M574.5,75.48a8,8,0,0,1-15.93,1.42c-1.08-5.45-2.24-10.89-3.37-16.34-.69-3.33-1.42-6.66-2-10a7.40988,7.40988,0,0,1,1.83-6.49,7.59,7.59,0,0,1,8.14-2.46,7.72,7.72,0,0,1,5.76,6.32c.92,4.37,1.81,8.74,2.71,13.11s1.8,8.67,2.68,13A10.37815,10.37815,0,0,1,574.5,75.48Zm-13.52-31.7h-.38a5.54,5.54,0,0,0-5.0509,5.98928L555.55,49.78a1.80816,1.80816,0,0,0,.05.42c.67,3.46,1.41,6.91,2.12,10.36,1.08,5.23,2.21,10.44,3.22,15.68a5.73,5.73,0,0,0,6.18,4.84,5.58,5.58,0,0,0,4.82025-6.248L571.94,74.83V74.7c-.44-2.39-1-4.76-1.45-7.14l-4-19.27A5.62,5.62,0,0,0,560.98,43.78Z"/><path class="cls-1" d="M491.78,42.61a9.08023,9.08023,0,0,1-.69,3.27l-9,24.42a7.74,7.74,0,0,1-7.11,5.33,8,8,0,0,1-8.38-6.95,9.6799,9.6799,0,0,1,.7-4.59q4.48-12.1,8.91-24.21a8,8,0,0,1,13.12-3.08A7.81,7.81,0,0,1,491.78,42.61ZM474.58,73.2a5.59,5.59,0,0,0,5.21-3.72l.5-1.35q4.32994-11.79,8.63-23.56a5.46976,5.46976,0,0,0,.32-2.69,5.53,5.53,0,0,0-10.72-1.12l-9.16,24.91a5.84018,5.84018,0,0,0-.33,2.81,5.59,5.59,0,0,0,5.55,4.76Z"/><path class="cls-1" d="M561.31,44.9a4.76,4.76,0,1,1-.06,0Zm-2.28,4.76a2.3,2.3,0,1,0,2.31-2.29,2.3,2.3,0,0,0-2.31,2.29v0Z"/><path class="cls-1" d="M488.44,42.65a4.76,4.76,0,1,1-4.71-4.81h0A4.77,4.77,0,0,1,488.44,42.65Zm-2.47-.06a2.298,2.298,0,1,0,0,.01l0-.01Z"/><path class="cls-1" d="M600.12,70.16c0-.45.06-.91.07-1.36a70.26,70.26,0,0,1,9.1-32.85c.43-.76.76-.85,1.5-.4l.57.36c.59.38.68.72.32,1.34a67.64,67.64,0,0,0,42.86,99.09,66.17932,66.17932,0,0,0,13.17,1.84A67.66,67.66,0,1,0,626.14,19.57a.84.84,0,0,1-1.18.11l-.11-.11-.72-.54a.8.8,0,0,1,0-1.37,70.67,70.67,0,0,1,113.9,31.17A68.93333,68.93333,0,0,1,740.9,61.7,70.67,70.67,0,0,1,601.15,82.48a68.7514,68.7514,0,0,1-1-11,1.7599,1.7599,0,0,0-.06-.32Q600.12,70.69,600.12,70.16Z"/><path class="cls-1" d="M663.75,78.48V46.27a.47.47,0,0,1,.38-.54h0a134.6593,134.6593,0,0,0,21.52-8,93.201,93.201,0,0,0,12-6.72,3.1,3.1,0,0,1,4.2.67,7.3801,7.3801,0,0,1,2,5.15V87.48a7.34,7.34,0,0,1-2,5.06,3.28,3.28,0,0,1-4.43.64,136.8907,136.8907,0,0,0-18.8-10,70.59038,70.59038,0,0,0-11.84-4A30.25587,30.25587,0,0,0,663.75,78.48Zm2.49-2.12,2,.47a79.89157,79.89157,0,0,1,12.91,4.65A146.33069,146.33069,0,0,1,698.92,91c.47.29.61.29,1-.07a2.5412,2.5412,0,0,0,.37-.37,5.23013,5.23013,0,0,0,1.15-3.32V37a5.24589,5.24589,0,0,0-.06-.89,4.92,4.92,0,0,0-1.52-3,.67.67,0,0,0-.94,0,87.34044,87.34044,0,0,1-9.65,5.59,137.791,137.791,0,0,1-22.59,8.9.52.52,0,0,0-.45.58h0V75.9Z"/><path class="cls-1" d="M659.48,45.35V81.17h-.45c-6.3,0-12.6.05-18.91,0a17.94,17.94,0,0,1-17.37-15.61,17.37015,17.37015,0,0,1,3.72-13.36,17.58,17.58,0,0,1,11.56-6.66,15.43972,15.43972,0,0,1,2.27-.17h18.76Zm-2.5,33.34V47.85H640.43a14.20884,14.20884,0,0,0-2,.16,15.42,15.42,0,0,0,2,30.69h16.52Z"/><path class="cls-1" d="M642.92,85.78h16.32v21.7a12.79,12.79,0,0,1-2.65,8,7.16,7.16,0,0,1-4.1,2.75,6.33,6.33,0,0,1-6-1.8,11.45015,11.45015,0,0,1-3.31-6.66,17.57992,17.57992,0,0,1-.22-2.82V86.26Zm2.49,2.48v19a11.87945,11.87945,0,0,0,.49,3.46,8.40016,8.40016,0,0,0,2.61,4.22,3.76,3.76,0,0,0,5,.11,7.24071,7.24071,0,0,0,1.45-1.54,10.37,10.37,0,0,0,1.81-6.06V88.24Z"/><path class="cls-1" d="M707.92,73.07v-22h5.42a3,3,0,0,1,2.79,3v16a3.07,3.07,0,0,1-3.11,3Zm2.48-19.59V70.65h2.36c.67,0,.89-.23.89-.9V54.48a2.70285,2.70285,0,0,0,0-.3.64.64,0,0,0-.61-.6h-2.66Z"/></svg>