<svg id="Layer_1" data-name="Layer 1" xmlns="http://www.w3.org/2000/svg" width="487.84492" height="177.50002" viewBox="0 0 487.84492 177.50002"><defs><style>.cls-1,.cls-3{fill:#3d86c6;}.cls-1,.cls-2{fill-rule:evenodd;}.cls-2,.cls-4{fill:#fff;}</style></defs><title>iconos_formularios</title><path class="cls-1" d="M190.00308,55.49877A40.50154,40.50154,0,1,1,149.49569,15,40.49926,40.49926,0,0,1,190.00308,55.49877Z" transform="translate(-14 -14.99998)"/><path class="cls-2" d="M125.28979,40.52255c.08366-.6106.16183-1.22365.25236-1.83056a13.34042,13.34042,0,0,1,2.31984-5.80374,15.03127,15.03127,0,0,1,2.90956-3.0536,4.00668,4.00668,0,0,1,5.3858.26467c1.02792.99468,2.03183,2.01337,3.04129,3.03267,1.58127,1.58681,3.13177,3.20686,4.75489,4.76043a4.17686,4.17686,0,0,1,.168,5.93608c-1.03961,1.09993-2.11554,2.15494-3.18593,3.22471-.30037.2973-.63091.5712-.96144.86542.47457.86234.89558,1.65329,1.3406,2.41345a38.9735,38.9735,0,0,0,4.89277,6.8372,34.3132,34.3132,0,0,0,7.44779,6.26353c1.30983.79648,2.64433,1.56281,3.97318,2.35621a.35619.35619,0,0,0,.52258-.06894c1.17257-1.18734,2.35067-2.35621,3.51647-3.54355a4.68364,4.68364,0,0,1,2.77723-1.49079,3.90583,3.90583,0,0,1,3.354,1.13933c2.66274,2.64489,5.31379,5.31686,7.95868,7.9796a4.7029,4.7029,0,0,1,1.172,2.4073v.90481a1.79567,1.79567,0,0,1-.08981.26714,7.68542,7.68542,0,0,1-.83593,1.81825,14.20079,14.20079,0,0,1-5.44612,4.292,12.12541,12.12541,0,0,1-5.02505,1.06977,26.988,26.988,0,0,1-8.62534-1.81517,41.85739,41.85739,0,0,1-9.41931-5.03742,57.30265,57.30265,0,0,1-7.00277-5.75819,93.64064,93.64064,0,0,1-7.153-7.69093,40.52475,40.52475,0,0,1-6.029-9.41931,22.0054,22.0054,0,0,1-1.70684-5.67756c-.12064-.74232-.20435-1.49325-.30648-2.2448Z" transform="translate(-14 -14.99998)"/><circle class="cls-3" cx="40.37222" cy="40.37071" r="40.36933"/><path class="cls-2" d="M48.37421,54.88159c1.01231.88188,1.9875,1.73484,2.96816,2.59.853.74654,1.71082,1.49254,2.55832,2.23581a1.75144,1.75144,0,0,0,2.51526.01091c1.7266-1.498,3.43743-3.00308,5.15316-4.50872.11733-.096.2292-.19482.39455-.32252,5.95269,6.66158,11.895,13.31278,17.93283,20.06222a15.04306,15.04306,0,0,1-1.90783.75636,8.64035,8.64035,0,0,1-2.07809.2745q-20.74437.02456-41.46745.00819a7.07672,7.07672,0,0,1-3.94331-1.09526Q39.437,64.88514,48.37421,54.88159Z" transform="translate(-14 -14.99998)"/><path class="cls-2" d="M55.16348,56.14493Q43.00517,45.501,30.85122,34.87013a7.0984,7.0984,0,0,1,3.65085-.90043q12.886-.00409,25.76715,0,7.80185,0,15.60916.00273a7.13276,7.13276,0,0,1,3.60774.895Q67.31143,45.52363,55.16348,56.14493Z" transform="translate(-14 -14.99998)"/><path class="cls-2" d="M82.06573,37.28165a6.83837,6.83837,0,0,1,1.10835,3.80256q.00819,13.88551,0,27.77867a7.08605,7.08605,0,0,1-.90043,3.46694c-5.89975-6.60318-11.76181-13.16326-17.67193-19.76644C70.43212,47.46311,76.23037,42.39012,82.06573,37.28165Z" transform="translate(-14 -14.99998)"/><path class="cls-2" d="M28.05878,72.32982a6.9869,6.9869,0,0,1-.89552-3.41346q-.02374-13.93708,0-27.87471a6.7212,6.7212,0,0,1,1.10344-3.76q8.7293,7.63814,17.45865,15.27627C39.83646,59.15565,33.97981,65.71081,28.05878,72.32982Z" transform="translate(-14 -14.99998)"/><circle class="cls-3" cx="230.83294" cy="40.50016" r="40.50001"/><path class="cls-4" d="M250.68312,24.22865c12.06763,3.30429,18.93655,16.68258,13.79511,28.02052-5.35181,11.80139-11.50972,23.23731-17.55982,35.0242a2.32036,2.32036,0,0,1-4.12559.00059L226.236,55.16983c-6.9552-13.66527-.20142-28.01761,14.77507-31.44718A23.14559,23.14559,0,0,1,250.68312,24.22865Zm6.777,20.45627a12.71048,12.71048,0,0,0-25.42069-.099,12.7105,12.7105,0,1,0,25.42069.099Z" transform="translate(-14 -14.99998)"/><path class="cls-1" d="M44.68262,151.29879c1.46353,1.275,2.87341,2.50812,4.29118,3.74442,1.23315,1.0793,2.4734,2.15782,3.69866,3.23239a2.53212,2.53212,0,0,0,3.6364.01578c2.49622-2.16571,4.96962-4.34167,7.45012-6.51842.16963-.13886.33136-.28166.57042-.46628,8.606,9.63089,17.19705,19.24678,25.92615,29.00469a21.7483,21.7483,0,0,1-2.75822,1.0935,12.49168,12.49168,0,0,1-3.00438.39685q-29.9909.0355-59.951.01183a10.23108,10.23108,0,0,1-5.701-1.58345Q31.76172,165.7613,44.68262,151.29879Z" transform="translate(-14 -14.99998)"/><path class="cls-1" d="M54.49813,153.12525Q36.9204,137.73689,19.349,122.36748a10.26241,10.26241,0,0,1,5.27817-1.30179q18.62981-.00592,37.25252,0,11.27943,0,22.56674.00394a10.3121,10.3121,0,0,1,5.21584,1.2939Q72.06086,137.76964,54.49813,153.12525Z" transform="translate(-14 -14.99998)"/><path class="cls-1" d="M93.3917,125.85391a9.88648,9.88648,0,0,1,1.60239,5.4975q.01183,20.0748,0,40.16065a10.24457,10.24457,0,0,1-1.30179,5.01229c-8.52949-9.54647-17.00448-19.03061-25.549-28.57707C76.57256,140.57361,84.9553,133.2394,93.3917,125.85391Z" transform="translate(-14 -14.99998)"/><path class="cls-1" d="M15.31185,176.52435a10.10121,10.10121,0,0,1-1.29469-4.935q-.03432-20.14936,0-40.29951a9.71709,9.71709,0,0,1,1.59529-5.436q12.62027,11.04274,25.24061,22.08548C32.33928,157.478,23.87211,166.955,15.31185,176.52435Z" transform="translate(-14 -14.99998)"/><circle class="cls-3" cx="319.8563" cy="20.56575" r="20.56574"/><path class="cls-1" d="M317.14952,52.28027a20.52679,20.52679,0,0,0,15.42043,7.07093s10.473,1.47671,17.35381-7.07093c8.99657,5.7846,15.42043,14.81232,16.70678,25.72666,0,0-4.55425,15.62313-34.70762,17.99307,0,0-23.50724-.55948-32.743-16.70674C299.79571,79.89355,300.31915,59.613,317.14952,52.28027Z" transform="translate(-14 -14.99998)"/><path class="cls-1" d="M380.63055,18.75v73.5a3.75,3.75,0,0,0,3.75,3.75H430.5a3.75,3.75,0,0,0,3.75-3.75V18.75A3.75,3.75,0,0,0,430.5,15H384.38055A3.75,3.75,0,0,0,380.63055,18.75ZM424.75,91.25H389.38055a3.75,3.75,0,0,1-3.75-3.75V23.75a3.75,3.75,0,0,1,3.75-3.75H424.75a3.75,3.75,0,0,1,3.75,3.75V87.5A3.75,3.75,0,0,1,424.75,91.25Z" transform="translate(-14 -14.99998)"/><rect class="cls-3" x="379.75" y="11.43501" width="25.25" height="3.06501" rx="1.5325" ry="1.5325"/><rect class="cls-3" x="375.75" y="21.93501" width="34.75" height="3.06501" rx="1.5325" ry="1.5325"/><rect class="cls-3" x="375.75" y="32.43501" width="34.75" height="3.06501" rx="1.5325" ry="1.5325"/><rect class="cls-3" x="375.75" y="43.68501" width="34.75" height="3.06501" rx="1.5325" ry="1.5325"/><rect class="cls-3" x="375.75" y="55.68501" width="34.75" height="3.06501" rx="1.5325" ry="1.5325"/><rect class="cls-3" x="375.75" y="67.68501" width="34.75" height="3.06501" rx="1.5325" ry="1.5325"/><polygon class="cls-3" points="466.836 10.985 436.096 61.403 435.905 61.291 435.864 61.783 435.774 61.93 435.848 61.973 434.25 81 451.253 70.33 450.946 70.15 481.671 19.758 466.836 10.985"/><path class="cls-3" d="M499.65985,19.8194l-7.072-4.14935a4.49908,4.49908,0,0,0-6.16913,1.48187l-.2041.335-.10284-.06085-4.10547,6.73334,14.83453,8.77319,3.27661-5.3739c.04572-.06323.10126-.11566.14429-.18158l.90277-1.48187A4.35469,4.35469,0,0,0,499.65985,19.8194Z" transform="translate(-14 -14.99998)"/><path class="cls-3" d="M282.08637,121.31149H267.52529a3.00627,3.00627,0,0,0-2.83571,2.00809l-2.86913,8.151H207.63267a3.297,3.297,0,0,0-3.0916,4.44236l6.92825,18.70015a3.297,3.297,0,0,0,3.0916,2.15156h38.53259l-.87158,2.57232a3.00626,3.00626,0,0,1-2.84725,2.04152H218.17992a3.00626,3.00626,0,1,0,0,6.01252h36.11494a3.00627,3.00627,0,0,0,2.83571-2.00809l6.11965-17.38555a3.00747,3.00747,0,0,0,.15057-.67108l1.48-4.09707a3.03483,3.03483,0,0,0,.12389-.30648l.19925-.588,2.32885-6.447a3.31081,3.31081,0,0,0,.19682-1.00712l1.86864-5.515a3.00626,3.00626,0,0,1,2.84725-2.04152h9.6409a3.00626,3.00626,0,0,0,0-6.01252Z" transform="translate(-14 -14.99998)"/><circle class="cls-3" cx="211.98574" cy="160.54828" r="6.53744"/><circle class="cls-3" cx="243.28259" cy="160.54828" r="6.21056"/><path class="cls-3" d="M282.08637,121.31149H267.52529a3.00627,3.00627,0,0,0-2.83571,2.00809l-2.86913,8.151H207.63267a3.297,3.297,0,0,0-3.0916,4.44236l6.92825,18.70015a3.297,3.297,0,0,0,3.0916,2.15156h38.53259l-.87158,2.57232a3.00626,3.00626,0,0,1-2.84725,2.04152H218.17992a3.00626,3.00626,0,1,0,0,6.01252h36.11494a3.00627,3.00627,0,0,0,2.83571-2.00809l6.11965-17.38555a3.00747,3.00747,0,0,0,.15057-.67108l1.48-4.09707a3.03483,3.03483,0,0,0,.12389-.30648l.19925-.588,2.32885-6.447a3.31081,3.31081,0,0,0,.19682-1.00712l1.86864-5.515a3.00626,3.00626,0,0,1,2.84725-2.04152h9.6409a3.00626,3.00626,0,0,0,0-6.01252Z" transform="translate(-14 -14.99998)"/><circle class="cls-3" cx="211.98574" cy="160.54828" r="6.53744"/><circle class="cls-3" cx="243.28259" cy="160.54828" r="6.21056"/><circle class="cls-3" cx="135.71803" cy="136.78198" r="40.71803"/><path class="cls-3" d="M146.99485,170.32465a33.19277,33.19277,0,0,1-14.54854-5.01348,1.203,1.203,0,0,1-.33534-1.68081l3.83994-5.67485a1.20061,1.20061,0,0,1,1.65561-.3275,24.72,24.72,0,0,0,9.73405,4.05526v-6.91349c-9.275-2.13144-13.99927-5.30007-13.99927-12.44366v-.11524c0-6.79786,4.95473-11.52171,13.76878-12.15575v-2.08218a1.20131,1.20131,0,0,1,1.20131-1.20131h3.58892a1.20131,1.20131,0,0,1,1.20131,1.20131v2.25524a26.13881,26.13881,0,0,1,11.15827,3.842,1.20338,1.20338,0,0,1,.38724,1.64858l-3.46595,5.66365a1.20162,1.20162,0,0,1-1.66213.38789,23.53907,23.53907,0,0,0-6.70535-2.78546v6.68261c9.15978,2.13183,13.76878,5.41532,13.76878,12.5593v.11524c0,7.02835-5.41532,11.349-13.59611,12.09793v4.4445a1.20131,1.20131,0,0,1-1.20131,1.20131h-3.58892a1.20131,1.20131,0,0,1-1.20131-1.20131Zm.40355-31.85825c-2.8229.23049-3.91753,1.38254-3.91753,2.88033v.11524c0,1.49779.80632,2.36192,3.91753,3.22606Zm9.2176,20.62446v-.11524c0-1.5556-.86414-2.41974-3.8601-3.28388V162.029C155.40613,161.7407,156.616,160.76131,156.616,159.09086Z" transform="translate(-14 -14.99998)"/><circle class="cls-3" cx="135.71803" cy="136.78198" r="40.71803"/><path class="cls-4" d="M146.99485,170.32465a33.19277,33.19277,0,0,1-14.54854-5.01348,1.203,1.203,0,0,1-.33534-1.68081l3.83994-5.67485a1.20061,1.20061,0,0,1,1.65561-.3275,24.72,24.72,0,0,0,9.73405,4.05526v-6.91349c-9.275-2.13144-13.99927-5.30007-13.99927-12.44366v-.11524c0-6.79786,4.95473-11.52171,13.76878-12.15575v-2.08218a1.20131,1.20131,0,0,1,1.20131-1.20131h3.58892a1.20131,1.20131,0,0,1,1.20131,1.20131v2.25524a26.13881,26.13881,0,0,1,11.15827,3.842,1.20338,1.20338,0,0,1,.38724,1.64858l-3.46595,5.66365a1.20162,1.20162,0,0,1-1.66213.38789,23.53907,23.53907,0,0,0-6.70535-2.78546v6.68261c9.15978,2.13183,13.76878,5.41532,13.76878,12.5593v.11524c0,7.02835-5.41532,11.349-13.59611,12.09793v4.4445a1.20131,1.20131,0,0,1-1.20131,1.20131h-3.58892a1.20131,1.20131,0,0,1-1.20131-1.20131Zm.40355-31.85825c-2.8229.23049-3.91753,1.38254-3.91753,2.88033v.11524c0,1.49779.80632,2.36192,3.91753,3.22606Zm9.2176,20.62446v-.11524c0-1.5556-.86414-2.41974-3.8601-3.28388V162.029C155.40613,161.7407,156.616,160.76131,156.616,159.09086Z" transform="translate(-14 -14.99998)"/><rect class="cls-3" x="366.63055" y="96.00002" width="25.92438" height="81.36682" rx="3.23971" ry="3.23971"/><rect class="cls-3" x="396.45265" y="96.00002" width="25.92438" height="81.36682" rx="3.23971" ry="3.23971"/><rect class="cls-3" x="451.49474" y="112.935" width="25.05503" height="77.80259" rx="3.23971" ry="3.23971" transform="translate(-37.90908 153.98062) rotate(-20.13137)"/><rect class="cls-4" x="370.19891" y="102.70502" width="18.49246" height="5.44718" rx="2.54755" ry="2.54755"/><rect class="cls-4" x="400.0191" y="102.70502" width="18.49246" height="5.44718" rx="2.54755" ry="2.54755"/><rect class="cls-4" x="444.14006" y="120.4286" width="18.49246" height="5.44718" rx="2.54755" ry="2.54755" transform="matrix(0.93891, -0.34417, 0.34417, 0.93891, -28.68655, 148.56757)"/><path class="cls-3" d="M363.06007,185.62774H310.60893l15.94985-22.46781,6.45721,6.51756a3.77009,3.77009,0,0,0,5.63935-.511l19.87456-27.99632.92125.68761a3.1,3.1,0,0,0,4.9315-2.1662l1.07036-9.509a3.11123,3.11123,0,0,0-4.32436-3.22762l-8.69393,3.81886a3.14813,3.14813,0,0,0-.60716,5.39382l.79647.59446L335.162,161.36l-6.04988-6.10641a3.59113,3.59113,0,0,0-.75378-.57778c-.04983-.04023-.09731-.08247-.14975-.1204l-.078-.05645a3.61317,3.61317,0,0,0-5.05686.8429l-16.985,23.926V114.36954a3.33849,3.33849,0,1,0-6.67669,0v74.62774a3.36391,3.36391,0,0,0,3.33834,3.36954c.06292,0,.12438-.00607.18645-.00958.06208.00351.12351.00958.18643.00958h59.93682a3.36969,3.36969,0,0,0,0-6.73908Z" transform="translate(-14 -14.99998)"/></svg>