<svg id="Layer_1" data-name="Layer 1" xmlns="http://www.w3.org/2000/svg" width="281.04805" height="229.83507" viewBox="0 0 281.04805 229.83507"><defs><style>.cls-1{fill:#006bad;}.cls-2{fill:#fff;}.cls-3{fill:#008df0;}.cls-4{fill:#0099f7;}</style></defs><title>sobre</title><path class="cls-1" d="M0,86.91575,128.86589,3.4458a21.44433,21.44433,0,0,1,23.31628,0L281.048,86.91575,140.524,201.09152Z" transform="translate(0 0)"/><rect class="cls-2" x="44.71219" y="72.54397" width="194.8174" height="157.29109"/><path class="cls-3" d="M0,86.91575l116.09224,51.95264c8.49372,3.801,9.27565,14.61409,1.4035,19.40845L0,229.83507Z" transform="translate(0 0)"/><path class="cls-3" d="M281.048,86.91572,162.69425,138.86836c-8.65918,3.801-9.45635,14.61409-1.43085,19.40845L281.048,229.835Z" transform="translate(0 0)"/><path class="cls-4" d="M0,229.83507H281.048L154.51193,137.08514a23.32866,23.32866,0,0,0-27.97581,0Z" transform="translate(0 0)"/></svg>