<svg id="Layer_1" data-name="Layer 1" xmlns="http://www.w3.org/2000/svg" width="499.98719" height="243.98719" viewBox="0 0 499.98719 243.98719"><defs><style>.cls-1{fill:#008df0;}.cls-2{fill:#fff;}</style></defs><title>tiempo-y-revision</title><path class="cls-1" d="M2,111c1.31074-5.82648,2.37156-11.72255,3.97184-17.46838C18.56346,48.3214,47.17012,18.45663,92.52817,6.10674c40.809-11.11129,77.99022-2.0731,110.29127,24.90224C240.6676,62.61681,254.764,115.69565,238.72769,162.519c-19.60715,57.24973-78.22311,91.91727-137.63128,80.0975-43.66492-8.68747-74.15826-34.50412-90.76695-75.97534C7.20558,158.841,5.86273,150.328,3.68919,142.14633,3.14367,140.0929,2.564,138.04854,2,136Q2,123.5,2,111ZM124.33866,29.31317C73.78851,28.16,31.0481,69.72223,29.82138,121.22484c-1.21747,51.11465,39.66946,94.05431,89.97408,95.96217,51.90437,1.96851,97.37844-39.27653,97.85949-93.15889A93.96612,93.96612,0,0,0,124.33866,29.31317Z" transform="translate(-2 -1)"/><path class="cls-2" d="M124.33866,29.31317a93.96612,93.96612,0,0,1,93.31629,94.715c-.481,53.88235-45.95512,95.1274-97.85949,93.15889-50.30462-1.90787-91.19155-44.84752-89.97408-95.96217C31.0481,69.72223,73.78851,28.16,124.33866,29.31317Zm8.10067,55.26027h-.02048c0-7.48732.09869-14.97629-.02631-22.46152-.13966-8.36278-4.79606-13.72428-11.8766-13.97464-6.79315-.2402-12.11794,5.35442-12.19949,13.64334q-.28234,28.69855.00314,57.40144c.04475,5.21835,1.72221,10.24944,7.33653,11.89769,14.0226,4.11673,28.09854,8.09715,42.29124,11.56718,5.84363,1.42871,11.49008-2.7532,13.09636-8.2995a11.92882,11.92882,0,0,0-6.60538-14.0928,33.56541,33.56541,0,0,0-5.62694-2.008c-7.53525-2.05585-15.05711-4.18382-22.66148-5.95148-2.86838-.66678-3.79259-1.97577-3.7505-4.7612C132.51508,99.882,132.43933,92.22716,132.43933,84.57344Z" transform="translate(-2 -1)"/><path class="cls-1" d="M132.43933,84.57344c0,7.65372.07574,15.30856-.0399,22.96053-.04208,2.78543.88213,4.09442,3.7505,4.7612,7.60437,1.76765,15.12624,3.89563,22.66148,5.95148a33.56541,33.56541,0,0,1,5.62694,2.008,11.92882,11.92882,0,0,1,6.60538,14.0928c-1.60628,5.5463-7.25273,9.72821-13.09636,8.2995-14.1927-3.47-28.26865-7.45045-42.29124-11.56718-5.61432-1.64825-7.29178-6.67934-7.33653-11.89769q-.24615-28.69917-.00314-57.40144c.08155-8.28893,5.40633-13.88354,12.19949-13.64334,7.08054.25036,11.73694,5.61186,11.8766,13.97464.125,7.48523.02631,14.9742.02631,22.46152Z" transform="translate(-2 -1)"/><path class="cls-1" d="M501.98314,122.75795a11.30412,11.30412,0,0,0-11.98148-10.58352,11.5249,11.5249,0,0,0-10.746,12.08042l-.02848.1043A99.23357,99.23357,0,1,1,379.9936,25.12558h.05689a12.06293,12.06293,0,0,0,0-24.12558h-.05689a121.9936,121.9936,0,1,0,121.9936,121.9936Z" transform="translate(-2 -1)"/><path class="cls-1" d="M302.643,121.66517l-.04773.03807c-1.91064,3.94022-.66552,8.4892,2.781,10.16044s7.78934-.16817,9.7-4.10845l.23416-.3341a76.66938,76.66938,0,0,1,40.857-32.92931,38.33485,38.33485,0,1,0,45.59731-1.068,77.131,77.131,0,0,1,45.05111,35.01628l.118.21328c1.56133,3.93069,5.74661,5.95747,9.34806,4.52692s5.25518-5.77677,3.69379-9.70746l-.125-.16661c-17.72018-29.19982-43.33338-46.69183-78.97643-46.743C345.81231,76.513,320.38878,93.35387,302.643,121.66517Zm76.3718,22.13469a19.1433,19.1433,0,1,1,19.817-18.93078A19.32289,19.32289,0,0,1,379.01479,143.79987Z" transform="translate(-2 -1)"/></svg>